<?xml version="1.0" encoding="UTF-8" standalone="no"?>
<svg
   width="768"
   height="1174"
   viewBox="0 0 768 1174"
   fill="none"
   version="1.1"
   id="svg56"
   sodipodi:docname="Encriptador - 1 Tablet.svg"
   inkscape:version="1.1.2 (b8e25be833, 2022-02-05)"
   xmlns:inkscape="http://www.inkscape.org/namespaces/inkscape"
   xmlns:sodipodi="http://sodipodi.sourceforge.net/DTD/sodipodi-0.dtd"
   xmlns="http://www.w3.org/2000/svg"
   xmlns:svg="http://www.w3.org/2000/svg">
  <sodipodi:namedview
     id="namedview58"
     pagecolor="#ffffff"
     bordercolor="#666666"
     borderopacity="1.0"
     inkscape:pageshadow="2"
     inkscape:pageopacity="0.0"
     inkscape:pagecheckerboard="0"
     showgrid="false"
     inkscape:zoom="0.15930983"
     inkscape:cx="379.76313"
     inkscape:cy="583.76811"
     inkscape:window-width="1366"
     inkscape:window-height="715"
     inkscape:window-x="-8"
     inkscape:window-y="-8"
     inkscape:window-maximized="1"
     inkscape:current-layer="svg56" />
  <g
     id="g124">
    <rect
       width="768"
       height="1174"
       fill="#f3f5fc"
       id="rect2"
       x="0"
       y="0"
       style="fill:#ffe6d5" />
    <rect
       x="40"
       y="76"
       width="31"
       height="48"
       fill="#e9ecf8"
       id="rect4" />
    <path
       fill-rule="evenodd"
       clip-rule="evenodd"
       d="m 63.3958,96.2683 c -0.0434,0.2687 -0.1492,0.5245 -0.3095,0.7482 -0.1603,0.2236 -0.3709,0.4094 -0.616,0.5432 -0.4937,0.308 -0.9256,0.462 -1.3626,0.616 -0.9307,0.3104 -1.9103,0.6209 -2.9464,0.981 -1.0926,0.3602 -2.0722,0.7203 -2.9463,0.9813 -1.0901,0.36 -2.1262,0.67 -3.1109,1.03 -0.7408,0.307 -1.4367,0.706 -2.0696,1.188 -0.5887,0.515 -1.1024,1.105 -1.5272,1.753 -0.437,0.72 -0.7121,1.649 -0.7121,2.732 0,2.168 0.545,3.818 1.6377,4.848 1.0901,1.086 3.1109,1.6 6.106,1.6 3.0543,0 5.1265,-0.567 6.2218,-1.702 1.0875,-1.135 1.6325,-2.732 1.6325,-4.793 V 96.2683 Z M 55.5415,73.4187 c 5.3476,0 9.2735,0.981 11.7802,2.9928 2.5093,1.9621 3.7639,4.4855 3.7639,7.4758 v 25.4817 c 0,1.031 -0.216,2.166 -0.5965,3.403 -0.3856,1.242 -1.1466,2.374 -2.3473,3.403 -1.1441,1.035 -2.7252,1.912 -4.7434,2.583 -2.0182,0.67 -4.6355,1.03 -7.8543,1.03 -3.2137,0 -5.8361,-0.36 -7.8518,-1.03 -2.0156,-0.671 -3.5993,-1.548 -4.7434,-2.583 -1.0643,-0.927 -1.8706,-2.097 -2.3447,-3.403 C 40.2185,111.538 40,110.403 40,109.372 v -4.073 c 0,-2.168 0.599,-4.18 1.7997,-5.9361 1.2006,-1.8032 2.8897,-3.04 5.0725,-3.8149 1.0901,-0.3601 2.3447,-0.7203 3.7613,-1.1847 1.4192,-0.4669 2.7253,-0.9314 4.0364,-1.3412 1.3112,-0.4147 2.4553,-0.8295 3.4349,-1.1921 0.5911,-0.2285 1.1915,-0.434 1.7996,-0.616 l 0.9822,-0.4644 c 0.3856,-0.2062 0.7635,-0.5166 1.1466,-0.9289 0.3805,-0.4098 0.707,-0.8742 0.9821,-1.3908 0.2907,-0.5594 0.4404,-1.1773 0.4371,-1.8032 v -1.6516 c 0.004,-0.6053 -0.1275,-1.2043 -0.3857,-1.7559 -0.2159,-0.6209 -0.653,-1.1872 -1.252,-1.7013 -0.5991,-0.5166 -1.4192,-0.9289 -2.3987,-1.2418 -0.9822,-0.3055 -2.2882,-0.462 -3.7639,-0.462 -3.0544,0 -5.0726,0.5712 -6.1627,1.7534 -0.9255,1.0332 -1.4705,2.3223 -1.5785,3.7653 0,0.3104 -0.2726,0.5166 -0.6016,0.5166 l -6.6511,0.1043 c -0.158,6e-4 -0.3099,-0.059 -0.4226,-0.166 -0.1126,-0.107 -0.177,-0.2527 -0.179,-0.4053 v -1.4902 c 0,-1.4479 0.2751,-2.7891 0.8741,-4.0781 0.6016,-1.2915 1.5297,-2.3719 2.7818,-3.3033 1.2546,-0.9264 2.8923,-1.6988 4.854,-2.2154 1.9102,-0.6209 4.2549,-0.8767 6.9801,-0.8767 z"
       fill="#0a3871"
       id="path6" />
    <path
       d="M 45.6364,252.727 H 42.8182 V 276 h 2.8182 z m 7.9687,12.773 c 0,-3.045 1.8864,-4.773 4.4546,-4.773 2.4886,0 4,1.625 4,4.364 V 276 h 2.6818 v -11.091 c 0,-4.454 -2.375,-6.591 -5.9091,-6.591 -2.6364,0 -4.2727,1.182 -5.0909,2.955 h -0.2273 v -2.728 H 50.9233 V 276 h 2.6818 z m 23.0824,17.409 c 4.1818,0 7.5455,-1.909 7.5455,-6.409 v -17.955 h -2.591 v 2.773 h -0.2727 c -0.5909,-0.909 -1.6818,-3 -5.0909,-3 -4.4091,0 -7.4545,3.5 -7.4545,8.864 0,5.454 3.1818,8.545 7.4091,8.545 3.409,0 4.5,-2 5.0909,-2.954 h 0.2272 v 3.545 c 0,2.909 -2.0454,4.227 -4.8636,4.227 -3.1705,0 -4.2841,-1.67 -5,-2.636 l -2.1364,1.5 c 1.0909,1.83 3.2387,3.5 7.1364,3.5 z m -0.0909,-9.591 c -3.3636,0 -5.0909,-2.545 -5.0909,-6.182 0,-3.545 1.6818,-6.409 5.0909,-6.409 3.2727,0 5,2.637 5,6.409 0,3.864 -1.7727,6.182 -5,6.182 z M 89.142,276 h 2.6819 v -11.045 c 0,-2.364 1.8636,-4.091 4.4091,-4.091 0.7159,0 1.4545,0.136 1.6363,0.181 v -2.727 c -0.3068,-0.023 -1.0113,-0.045 -1.4091,-0.045 -2.0909,0 -3.9091,1.182 -4.5454,2.909 H 91.733 v -2.637 h -2.591 z m 18.693,0.364 c 3.546,0 6.137,-1.773 6.955,-4.409 l -2.591,-0.728 c -0.682,1.818 -2.261,2.728 -4.364,2.728 -3.147,0 -5.318,-2.035 -5.443,-5.773 h 12.67 v -1.137 c 0,-6.5 -3.863,-8.727 -7.5,-8.727 -4.727,0 -7.8631,3.727 -7.8631,9.091 0,5.364 3.0911,8.955 8.1361,8.955 z m -5.443,-10.5 c 0.182,-2.716 2.102,-5.137 5.17,-5.137 2.91,0 4.773,2.182 4.773,5.137 z m 29.114,-3.409 c -0.841,-2.478 -2.728,-4.137 -6.182,-4.137 -3.682,0 -6.409,2.091 -6.409,5.046 0,2.409 1.432,4.022 4.636,4.772 l 2.909,0.682 c 1.762,0.409 2.591,1.25 2.591,2.455 0,1.5 -1.591,2.727 -4.091,2.727 -2.193,0 -3.568,-0.943 -4.045,-2.818 l -2.546,0.636 c 0.625,2.966 3.069,4.546 6.637,4.546 4.056,0 6.818,-2.216 6.818,-5.228 0,-2.431 -1.523,-3.966 -4.636,-4.727 l -2.591,-0.636 c -2.069,-0.512 -3,-1.205 -3,-2.546 0,-1.5 1.591,-2.591 3.727,-2.591 2.341,0 3.307,1.296 3.773,2.5 z m 11.673,13.909 c 3.545,0 6.136,-1.773 6.955,-4.409 l -2.591,-0.728 c -0.682,1.818 -2.262,2.728 -4.364,2.728 -3.148,0 -5.318,-2.035 -5.443,-5.773 h 12.67 v -1.137 c 0,-6.5 -3.863,-8.727 -7.5,-8.727 -4.727,0 -7.863,3.727 -7.863,9.091 0,5.364 3.091,8.955 8.136,8.955 z m -5.443,-10.5 c 0.182,-2.716 2.102,-5.137 5.17,-5.137 2.909,0 4.773,2.182 4.773,5.137 z m 33.068,10.5 c 3.545,0 6.136,-1.773 6.955,-4.409 l -2.591,-0.728 c -0.682,1.818 -2.262,2.728 -4.364,2.728 -3.148,0 -5.318,-2.035 -5.443,-5.773 h 12.67 v -1.137 c 0,-6.5 -3.863,-8.727 -7.5,-8.727 -4.727,0 -7.863,3.727 -7.863,9.091 0,5.364 3.091,8.955 8.136,8.955 z m -5.443,-10.5 c 0.182,-2.716 2.102,-5.137 5.17,-5.137 2.909,0 4.773,2.182 4.773,5.137 z m 19.432,-13.137 h -2.682 V 276 h 2.682 z m 21.502,5.818 h -3.727 v -4.181 h -2.682 v 4.181 h -2.636 v 2.273 h 2.636 v 10.909 c 0,3.046 2.455,4.5 4.728,4.5 1,0 1.636,-0.182 2,-0.318 l -0.546,-2.409 c -0.227,0.045 -0.591,0.136 -1.182,0.136 -1.181,0 -2.318,-0.363 -2.318,-2.636 v -10.182 h 3.727 z m 11.165,17.819 c 3.546,0 6.137,-1.773 6.955,-4.409 l -2.591,-0.728 c -0.682,1.818 -2.262,2.728 -4.364,2.728 -3.148,0 -5.318,-2.035 -5.443,-5.773 h 12.671 v -1.137 c 0,-6.5 -3.864,-8.727 -7.5,-8.727 -4.728,0 -7.864,3.727 -7.864,9.091 0,5.364 3.091,8.955 8.136,8.955 z m -5.443,-10.5 c 0.182,-2.716 2.102,-5.137 5.171,-5.137 2.909,0 4.772,2.182 4.772,5.137 z m 18.281,-7.319 h -3.091 l 5.546,8.728 -5.546,8.727 h 3.091 l 4.182,-6.773 4.182,6.773 h 3.091 l -5.637,-8.727 5.637,-8.728 h -3.091 l -4.182,7.137 z m 22.872,0 h -3.727 v -4.181 h -2.682 v 4.181 h -2.636 v 2.273 h 2.636 v 10.909 c 0,3.046 2.455,4.5 4.728,4.5 1,0 1.636,-0.182 2,-0.318 l -0.546,-2.409 c -0.227,0.045 -0.591,0.136 -1.182,0.136 -1.181,0 -2.318,-0.363 -2.318,-2.636 v -10.182 h 3.727 z m 10.938,17.819 c 4.727,0 7.909,-3.591 7.909,-9 0,-5.455 -3.182,-9.046 -7.909,-9.046 -4.727,0 -7.909,3.591 -7.909,9.046 0,5.409 3.182,9 7.909,9 z m 0,-2.409 c -3.591,0 -5.227,-3.091 -5.227,-6.591 0,-3.5 1.636,-6.637 5.227,-6.637 3.591,0 5.227,3.137 5.227,6.637 0,3.5 -1.636,6.591 -5.227,6.591 z m 26.139,2.454 c 3.046,0 4.637,-1.636 5.182,-2.773 h 0.136 V 276 h 2.682 v -11.5 c 0,-5.545 -4.227,-6.182 -6.454,-6.182 -2.637,0 -5.637,0.909 -7,4.091 l 2.545,0.909 c 0.591,-1.273 1.989,-2.636 4.546,-2.636 2.465,0 3.681,1.307 3.681,3.545 v 0.091 c 0,1.296 -1.318,1.182 -4.5,1.591 -3.238,0.421 -6.772,1.136 -6.772,5.136 0,3.41 2.636,5.364 5.954,5.364 z M 290.656,274 c -2.136,0 -3.682,-0.955 -3.682,-2.818 0,-2.046 1.864,-2.682 3.955,-2.955 1.136,-0.136 4.182,-0.454 4.636,-1 v 2.455 c 0,2.182 -1.727,4.318 -4.909,4.318 z m 27.077,8.545 v -24 h -2.591 v 2.773 h -0.318 c -0.591,-0.909 -1.636,-3 -5.046,-3 -4.409,0 -7.454,3.5 -7.454,9 0,5.546 3.045,9.046 7.409,9.046 3.364,0 4.5,-2.091 5.091,-3.046 h 0.227 v 9.227 z m -2.636,-15.272 c 0,3.954 -1.773,6.682 -5,6.682 -3.364,0 -5.091,-2.955 -5.091,-6.682 0,-3.682 1.682,-6.546 5.091,-6.546 3.272,0 5,2.637 5,6.546 z m 18.545,1.591 c 0,3.272 -2.5,4.772 -4.5,4.772 -2.227,0 -3.818,-1.636 -3.818,-4.181 v -10.91 h -2.682 v 11.091 c 0,4.455 2.364,6.591 5.636,6.591 2.637,0 4.364,-1.409 5.182,-3.182 h 0.182 V 276 h 2.682 v -17.455 h -2.682 z m 7.594,7.136 h 2.682 v -17.455 h -2.682 z m 1.363,-20.364 c 1.046,0 1.91,-0.818 1.91,-1.818 0,-1 -0.864,-1.818 -1.91,-1.818 -1.045,0 -1.909,0.818 -1.909,1.818 0,1 0.864,1.818 1.909,1.818 z"
       fill="#0a3871"
       id="path8" />
    <path
       d="m 56,845 c 0,2.122 -0.8429,4.157 -2.3431,5.657 C 52.1566,852.157 50.1217,853 48,853 45.8783,853 43.8434,852.157 42.3431,850.657 40.8429,849.157 40,847.122 40,845 c 0,-2.122 0.8429,-4.157 2.3431,-5.657 C 43.8434,837.843 45.8783,837 48,837 c 2.1217,0 4.1566,0.843 5.6569,2.343 C 55.1571,840.843 56,842.878 56,845 Z m -8,-4 c -0.1264,0 -0.2514,0.027 -0.3669,0.078 -0.1155,0.051 -0.219,0.126 -0.3038,0.22 -0.0847,0.094 -0.149,0.204 -0.1885,0.324 -0.0395,0.12 -0.0534,0.247 -0.0408,0.373 l 0.35,3.507 c 0.0118,0.138 0.0748,0.266 0.1766,0.36 0.1019,0.093 0.2351,0.145 0.3734,0.145 0.1383,0 0.2715,-0.052 0.3734,-0.145 0.1018,-0.094 0.1648,-0.222 0.1766,-0.36 l 0.35,-3.507 c 0.0126,-0.126 -0.0013,-0.253 -0.0408,-0.373 -0.0395,-0.12 -0.1038,-0.23 -0.1885,-0.324 -0.0848,-0.094 -0.1883,-0.169 -0.3038,-0.22 C 48.2514,841.027 48.1264,841 48,841 Z m 0.002,6 c -0.2652,0 -0.5196,0.105 -0.7071,0.293 -0.1875,0.187 -0.2929,0.442 -0.2929,0.707 0,0.265 0.1054,0.52 0.2929,0.707 0.1875,0.188 0.4419,0.293 0.7071,0.293 0.2652,0 0.5196,-0.105 0.7071,-0.293 0.1875,-0.187 0.2929,-0.442 0.2929,-0.707 0,-0.265 -0.1054,-0.52 -0.2929,-0.707 C 48.5216,847.105 48.2672,847 48.002,847 Z"
       fill="#67808e"
       id="path10" />
    <path
       d="m 69.8295,842.455 h 1.0228 c -0.0469,-1.317 -1.2614,-2.302 -2.9489,-2.302 -1.6704,0 -2.9829,0.972 -2.9829,2.438 0,1.176 0.8522,1.875 2.2159,2.267 l 1.0738,0.307 c 0.9205,0.255 1.7387,0.579 1.7387,1.449 0,0.954 -0.9205,1.585 -2.1307,1.585 -1.0398,0 -1.9602,-0.46 -2.0455,-1.449 h -1.0909 c 0.1023,1.432 1.2614,2.403 3.1364,2.403 2.0113,0 3.1534,-1.108 3.1534,-2.522 0,-1.637 -1.5511,-2.165 -2.4546,-2.404 l -0.8863,-0.238 c -0.6477,-0.171 -1.6875,-0.512 -1.6875,-1.449 0,-0.835 0.767,-1.449 1.9261,-1.449 1.0568,0 1.858,0.503 1.9602,1.364 z m 5.4024,6.681 c 1.7727,0 2.9659,-1.346 2.9659,-3.375 0,-2.045 -1.1932,-3.392 -2.9659,-3.392 -1.7727,0 -2.9659,1.347 -2.9659,3.392 0,2.029 1.1932,3.375 2.9659,3.375 z m 0,-0.903 c -1.3466,0 -1.9602,-1.159 -1.9602,-2.472 0,-1.312 0.6136,-2.488 1.9602,-2.488 1.3466,0 1.9602,1.176 1.9602,2.488 0,1.313 -0.6136,2.472 -1.9602,2.472 z m 5.5067,-7.96 H 79.733 V 849 h 1.0056 z m 4.5011,8.863 c 1.7727,0 2.9659,-1.346 2.9659,-3.375 0,-2.045 -1.1932,-3.392 -2.9659,-3.392 -1.7727,0 -2.9659,1.347 -2.9659,3.392 0,2.029 1.1932,3.375 2.9659,3.375 z m 0,-0.903 c -1.3466,0 -1.9602,-1.159 -1.9602,-2.472 0,-1.312 0.6136,-2.488 1.9602,-2.488 1.3466,0 1.9602,1.176 1.9602,2.488 0,1.313 -0.6136,2.472 -1.9602,2.472 z m 8.8817,-7.96 H 93.1158 V 849 h 1.0056 z m 4.5863,8.863 c 1.3293,0 2.3013,-0.664 2.6083,-1.653 l -0.972,-0.273 c -0.256,0.682 -0.8479,1.023 -1.6363,1.023 -1.1804,0 -1.9943,-0.763 -2.0412,-2.165 h 4.7515 v -0.426 c 0,-2.437 -1.4489,-3.273 -2.8125,-3.273 -1.7728,0 -2.9489,1.398 -2.9489,3.409 0,2.012 1.1591,3.358 3.0511,3.358 z m -2.0412,-3.937 c 0.0682,-1.019 0.7884,-1.926 1.939,-1.926 1.0909,0 1.7895,0.818 1.7895,1.926 z m 9.1275,-2.744 h -1.397 v -1.569 h -1.006 v 1.569 h -0.989 v 0.852 h 0.989 v 4.091 c 0,1.142 0.92,1.687 1.773,1.687 0.375,0 0.613,-0.068 0.75,-0.119 l -0.205,-0.904 c -0.085,0.018 -0.221,0.052 -0.443,0.052 -0.443,0 -0.869,-0.137 -0.869,-0.989 v -3.818 h 1.397 z m 1.513,6.545 h 1.006 v -4.142 c 0,-0.886 0.699,-1.534 1.653,-1.534 0.269,0 0.546,0.051 0.614,0.068 v -1.023 c -0.115,-0.008 -0.379,-0.017 -0.529,-0.017 -0.784,0 -1.465,0.443 -1.704,1.091 h -0.068 v -0.988 h -0.972 z m 6.391,0.153 c 1.142,0 1.739,-0.613 1.943,-1.039 h 0.051 V 849 h 1.006 v -4.312 c 0,-2.08 -1.585,-2.319 -2.42,-2.319 -0.989,0 -2.114,0.341 -2.625,1.534 l 0.954,0.341 c 0.222,-0.477 0.746,-0.988 1.705,-0.988 0.925,0 1.38,0.49 1.38,1.329 v 0.034 c 0,0.486 -0.494,0.443 -1.687,0.597 -1.215,0.158 -2.54,0.426 -2.54,1.926 0,1.278 0.989,2.011 2.233,2.011 z m 0.154,-0.903 c -0.802,0 -1.381,-0.358 -1.381,-1.057 0,-0.767 0.699,-1.005 1.483,-1.108 0.426,-0.051 1.568,-0.17 1.738,-0.375 v 0.921 c 0,0.818 -0.647,1.619 -1.84,1.619 z m 9.318,-4.33 c -0.315,-0.929 -1.023,-1.551 -2.318,-1.551 -1.381,0 -2.403,0.784 -2.403,1.892 0,0.904 0.536,1.509 1.738,1.79 l 1.091,0.256 c 0.661,0.153 0.972,0.469 0.972,0.92 0,0.563 -0.597,1.023 -1.534,1.023 -0.823,0 -1.339,-0.354 -1.517,-1.057 l -0.955,0.239 c 0.234,1.112 1.151,1.704 2.489,1.704 1.521,0 2.556,-0.831 2.556,-1.96 0,-0.912 -0.571,-1.487 -1.738,-1.773 l -0.972,-0.238 c -0.775,-0.192 -1.125,-0.452 -1.125,-0.955 0,-0.562 0.597,-0.971 1.398,-0.971 0.878,0 1.24,0.485 1.415,0.937 z m 5.008,5.08 h 1.006 v -4.091 c 0,-0.959 0.699,-1.636 1.483,-1.636 0.763,0 1.295,0.498 1.295,1.244 V 849 h 1.023 v -4.261 c 0,-0.844 0.528,-1.466 1.449,-1.466 0.716,0 1.329,0.379 1.329,1.346 V 849 h 1.006 v -4.381 c 0,-1.538 -0.827,-2.25 -1.994,-2.25 -0.938,0 -1.624,0.431 -1.96,1.108 h -0.069 c -0.323,-0.699 -0.894,-1.108 -1.755,-1.108 -0.853,0 -1.483,0.409 -1.756,1.108 h -0.085 v -1.022 h -0.972 z m 10.43,0 h 1.006 v -6.545 h -1.006 z m 0.511,-7.636 c 0.392,0 0.716,-0.307 0.716,-0.682 0,-0.375 -0.324,-0.682 -0.716,-0.682 -0.392,0 -0.716,0.307 -0.716,0.682 0,0.375 0.324,0.682 0.716,0.682 z m 3.342,3.698 c 0,-1.142 0.708,-1.789 1.671,-1.789 0.933,0 1.5,0.609 1.5,1.636 V 849 h 1.005 v -4.159 c 0,-1.671 -0.89,-2.472 -2.215,-2.472 -0.989,0 -1.603,0.443 -1.91,1.108 h -0.085 v -1.022 h -0.971 V 849 h 1.005 z m 10.139,1.262 c 0,1.227 -0.937,1.79 -1.687,1.79 -0.836,0 -1.432,-0.614 -1.432,-1.569 v -4.09 h -1.006 v 4.159 c 0,1.67 0.887,2.471 2.114,2.471 0.988,0 1.636,-0.528 1.943,-1.193 H 152.6 V 849 h 1.006 v -6.545 H 152.6 Z m -2.011,-4.756 h 0.886 l 1.33,-1.977 h -1.176 z m 9.495,2.352 c -0.315,-0.929 -1.023,-1.551 -2.318,-1.551 -1.381,0 -2.403,0.784 -2.403,1.892 0,0.904 0.537,1.509 1.738,1.79 l 1.091,0.256 c 0.661,0.153 0.972,0.469 0.972,0.92 0,0.563 -0.597,1.023 -1.534,1.023 -0.823,0 -1.338,-0.354 -1.517,-1.057 l -0.955,0.239 c 0.234,1.112 1.151,1.704 2.489,1.704 1.521,0 2.556,-0.831 2.556,-1.96 0,-0.912 -0.571,-1.487 -1.738,-1.773 l -0.972,-0.238 c -0.775,-0.192 -1.125,-0.452 -1.125,-0.955 0,-0.562 0.597,-0.971 1.398,-0.971 0.878,0 1.24,0.485 1.415,0.937 z m 4.292,5.216 c 1.449,0 2.404,-0.886 2.574,-2.045 h -1.005 c -0.188,0.716 -0.784,1.142 -1.569,1.142 -1.193,0 -1.96,-0.989 -1.96,-2.506 0,-1.483 0.784,-2.454 1.96,-2.454 0.887,0 1.415,0.545 1.569,1.142 h 1.005 c -0.17,-1.227 -1.21,-2.046 -2.591,-2.046 -1.772,0 -2.948,1.398 -2.948,3.392 0,1.961 1.125,3.375 2.965,3.375 z m 8.169,-2.812 c 0,1.227 -0.937,1.79 -1.687,1.79 -0.835,0 -1.432,-0.614 -1.432,-1.569 v -4.09 h -1.006 v 4.159 c 0,1.67 0.887,2.471 2.114,2.471 0.989,0 1.636,-0.528 1.943,-1.193 h 0.068 V 849 h 1.006 v -6.545 h -1.006 z m 3.854,-6.051 h -1.006 V 849 h 1.006 z m 3.768,8.88 c 1.142,0 1.739,-0.613 1.943,-1.039 h 0.051 V 849 h 1.006 v -4.312 c 0,-2.08 -1.585,-2.319 -2.421,-2.319 -0.988,0 -2.113,0.341 -2.625,1.534 l 0.955,0.341 c 0.222,-0.477 0.746,-0.988 1.705,-0.988 0.924,0 1.38,0.49 1.38,1.329 v 0.034 c 0,0.486 -0.494,0.443 -1.687,0.597 -1.215,0.158 -2.54,0.426 -2.54,1.926 0,1.278 0.989,2.011 2.233,2.011 z m 0.153,-0.903 c -0.801,0 -1.38,-0.358 -1.38,-1.057 0,-0.767 0.698,-1.005 1.483,-1.108 0.426,-0.051 1.568,-0.17 1.738,-0.375 v 0.921 c 0,0.818 -0.648,1.619 -1.841,1.619 z m 9.319,-4.33 c -0.315,-0.929 -1.023,-1.551 -2.318,-1.551 -1.381,0 -2.404,0.784 -2.404,1.892 0,0.904 0.537,1.509 1.739,1.79 l 1.091,0.256 c 0.66,0.153 0.971,0.469 0.971,0.92 0,0.563 -0.596,1.023 -1.534,1.023 -0.822,0 -1.338,-0.354 -1.517,-1.057 l -0.954,0.239 c 0.234,1.112 1.15,1.704 2.488,1.704 1.522,0 2.557,-0.831 2.557,-1.96 0,-0.912 -0.571,-1.487 -1.738,-1.773 l -0.972,-0.238 c -0.776,-0.192 -1.125,-0.452 -1.125,-0.955 0,-0.562 0.597,-0.971 1.398,-0.971 0.878,0 1.24,0.485 1.414,0.937 z m 5.656,7.535 c 0.907,0 1.547,-0.482 1.926,-1.5 l 2.787,-7.483 -1.1,-0.017 -1.806,5.215 h -0.069 l -1.806,-5.215 h -1.091 l 2.42,6.579 -0.187,0.511 c -0.367,0.998 -0.819,1.091 -1.552,0.904 l -0.255,0.886 c 0.102,0.051 0.392,0.12 0.733,0.12 z m 14.055,-7.535 c -0.316,-0.929 -1.023,-1.551 -2.318,-1.551 -1.381,0 -2.404,0.784 -2.404,1.892 0,0.904 0.537,1.509 1.739,1.79 l 1.091,0.256 c 0.66,0.153 0.971,0.469 0.971,0.92 0,0.563 -0.596,1.023 -1.534,1.023 -0.822,0 -1.338,-0.354 -1.517,-1.057 l -0.954,0.239 c 0.234,1.112 1.15,1.704 2.488,1.704 1.522,0 2.557,-0.831 2.557,-1.96 0,-0.912 -0.571,-1.487 -1.739,-1.773 l -0.971,-0.238 c -0.776,-0.192 -1.125,-0.452 -1.125,-0.955 0,-0.562 0.596,-0.971 1.398,-0.971 0.877,0 1.24,0.485 1.414,0.937 z m 1.633,5.08 h 1.006 v -6.545 h -1.006 z m 0.511,-7.636 c 0.392,0 0.716,-0.307 0.716,-0.682 0,-0.375 -0.324,-0.682 -0.716,-0.682 -0.392,0 -0.716,0.307 -0.716,0.682 0,0.375 0.324,0.682 0.716,0.682 z m 3.342,3.698 c 0,-1.142 0.708,-1.789 1.671,-1.789 0.933,0 1.5,0.609 1.5,1.636 V 849 h 1.005 v -4.159 c 0,-1.671 -0.89,-2.472 -2.215,-2.472 -0.989,0 -1.603,0.443 -1.91,1.108 h -0.085 v -1.022 h -0.971 V 849 h 1.005 z m 11.315,4.091 c 1.142,0 1.739,-0.613 1.943,-1.039 h 0.052 V 849 h 1.005 v -4.312 c 0,-2.08 -1.585,-2.319 -2.42,-2.319 -0.989,0 -2.114,0.341 -2.625,1.534 l 0.954,0.341 c 0.222,-0.477 0.746,-0.988 1.705,-0.988 0.925,0 1.381,0.49 1.381,1.329 v 0.034 c 0,0.486 -0.495,0.443 -1.688,0.597 -1.214,0.158 -2.54,0.426 -2.54,1.926 0,1.278 0.989,2.011 2.233,2.011 z m 0.154,-0.903 c -0.801,0 -1.381,-0.358 -1.381,-1.057 0,-0.767 0.699,-1.005 1.483,-1.108 0.426,-0.051 1.568,-0.17 1.739,-0.375 v 0.921 c 0,0.818 -0.648,1.619 -1.841,1.619 z m 7.341,0.886 c 1.449,0 2.403,-0.886 2.574,-2.045 h -1.006 c -0.187,0.716 -0.784,1.142 -1.568,1.142 -1.193,0 -1.96,-0.989 -1.96,-2.506 0,-1.483 0.784,-2.454 1.96,-2.454 0.886,0 1.415,0.545 1.568,1.142 h 1.006 c -0.171,-1.227 -1.21,-2.046 -2.591,-2.046 -1.773,0 -2.949,1.398 -2.949,3.392 0,1.961 1.125,3.375 2.966,3.375 z m 6.788,0 c 1.33,0 2.301,-0.664 2.608,-1.653 l -0.971,-0.273 c -0.256,0.682 -0.848,1.023 -1.637,1.023 -1.18,0 -1.994,-0.763 -2.041,-2.165 h 4.752 v -0.426 c 0,-2.437 -1.449,-3.273 -2.813,-3.273 -1.773,0 -2.949,1.398 -2.949,3.409 0,2.012 1.159,3.358 3.051,3.358 z m -2.041,-3.937 c 0.068,-1.019 0.788,-1.926 1.939,-1.926 1.091,0 1.79,0.818 1.79,1.926 z m 7.287,-0.137 c 0,-1.142 0.707,-1.789 1.67,-1.789 0.934,0 1.5,0.609 1.5,1.636 V 849 h 1.006 v -4.159 c 0,-1.671 -0.89,-2.472 -2.216,-2.472 -0.988,0 -1.602,0.443 -1.909,1.108 h -0.085 v -1.022 h -0.972 V 849 h 1.006 z m 8.86,-2.607 h -1.397 v -1.569 h -1.006 v 1.569 h -0.989 v 0.852 h 0.989 v 4.091 c 0,1.142 0.921,1.687 1.773,1.687 0.375,0 0.613,-0.068 0.75,-0.119 l -0.205,-0.904 c -0.085,0.018 -0.221,0.052 -0.443,0.052 -0.443,0 -0.869,-0.137 -0.869,-0.989 v -3.818 h 1.397 z m 4.102,6.681 c 1.773,0 2.966,-1.346 2.966,-3.375 0,-2.045 -1.193,-3.392 -2.966,-3.392 -1.773,0 -2.966,1.347 -2.966,3.392 0,2.029 1.193,3.375 2.966,3.375 z m 0,-0.903 c -1.347,0 -1.96,-1.159 -1.96,-2.472 0,-1.312 0.613,-2.488 1.96,-2.488 1.347,0 1.96,1.176 1.96,2.488 0,1.313 -0.613,2.472 -1.96,2.472 z m 9.137,-4.313 c -0.315,-0.929 -1.022,-1.551 -2.318,-1.551 -1.38,0 -2.403,0.784 -2.403,1.892 0,0.904 0.537,1.509 1.739,1.79 l 1.09,0.256 c 0.661,0.153 0.972,0.469 0.972,0.92 0,0.563 -0.597,1.023 -1.534,1.023 -0.823,0 -1.338,-0.354 -1.517,-1.057 l -0.955,0.239 c 0.235,1.112 1.151,1.704 2.489,1.704 1.521,0 2.557,-0.831 2.557,-1.96 0,-0.912 -0.571,-1.487 -1.739,-1.773 l -0.971,-0.238 c -0.776,-0.192 -1.125,-0.452 -1.125,-0.955 0,-0.562 0.596,-0.971 1.397,-0.971 0.878,0 1.24,0.485 1.415,0.937 z"
       fill="#495057"
       id="path12" />
    <path
       d="m 40,894 c 0,-13.255 10.7452,-24 24,-24 h 284 c 13.255,0 24,10.745 24,24 v 19 c 0,13.255 -10.745,24 -24,24 H 64 C 50.7452,937 40,926.255 40,913 Z"
       fill="#0a3871"
       id="path14"
       style="fill:#008000" />
    <path
       d="m 173.339,909 h 7.113 v -1.25 h -5.704 v -3.955 h 5.25 v -1.25 h -5.25 v -3.931 h 5.614 v -1.25 h -7.023 z m 10.721,-5.25 c 0,-1.523 0.944,-2.386 2.228,-2.386 1.244,0 2,0.812 2,2.181 V 909 h 1.341 v -5.545 c 0,-2.228 -1.188,-3.296 -2.955,-3.296 -1.318,0 -2.136,0.591 -2.545,1.477 h -0.114 v -1.363 h -1.296 V 909 h 1.341 z m 11.564,5.432 c 1.932,0 3.205,-1.182 3.432,-2.727 h -1.341 c -0.25,0.954 -1.045,1.522 -2.091,1.522 -1.591,0 -2.613,-1.318 -2.613,-3.341 0,-1.977 1.045,-3.272 2.613,-3.272 1.182,0 1.887,0.727 2.091,1.522 h 1.341 c -0.227,-1.636 -1.614,-2.727 -3.454,-2.727 -2.364,0 -3.932,1.864 -3.932,4.523 0,2.613 1.5,4.5 3.954,4.5 z M 201.016,909 h 1.341 v -5.523 c 0,-1.182 0.932,-2.045 2.205,-2.045 0.358,0 0.727,0.068 0.818,0.091 v -1.364 c -0.153,-0.011 -0.506,-0.023 -0.705,-0.023 -1.045,0 -1.954,0.591 -2.272,1.455 h -0.091 v -1.318 h -1.296 z m 5.953,0 h 1.341 v -8.727 h -1.341 z m 0.682,-10.182 c 0.523,0 0.955,-0.409 0.955,-0.909 0,-0.5 -0.432,-0.909 -0.955,-0.909 -0.522,0 -0.954,0.409 -0.954,0.909 0,0.5 0.432,0.909 0.954,0.909 z m 3.115,13.455 h 1.341 v -4.614 h 0.114 c 0.295,0.477 0.864,1.523 2.545,1.523 2.182,0 3.705,-1.75 3.705,-4.523 0,-2.75 -1.523,-4.5 -3.727,-4.5 -1.705,0 -2.228,1.046 -2.523,1.5 h -0.159 v -1.386 h -1.296 z m 1.319,-7.637 c 0,-1.954 0.863,-3.272 2.5,-3.272 1.704,0 2.545,1.431 2.545,3.272 0,1.864 -0.864,3.341 -2.545,3.341 -1.614,0 -2.5,-1.363 -2.5,-3.341 z m 12.227,-4.363 h -1.864 v -2.091 h -1.341 v 2.091 h -1.318 v 1.136 h 1.318 v 5.455 c 0,1.522 1.228,2.25 2.364,2.25 0.5,0 0.818,-0.091 1,-0.159 l -0.273,-1.205 c -0.113,0.023 -0.295,0.068 -0.591,0.068 -0.591,0 -1.159,-0.182 -1.159,-1.318 v -5.091 h 1.864 z m 4.585,8.932 c 1.523,0 2.318,-0.819 2.591,-1.387 h 0.068 V 909 h 1.341 v -5.75 c 0,-2.773 -2.114,-3.091 -3.227,-3.091 -1.318,0 -2.818,0.455 -3.5,2.046 l 1.272,0.454 c 0.296,-0.636 0.995,-1.318 2.273,-1.318 1.233,0 1.841,0.653 1.841,1.773 v 0.045 c 0,0.648 -0.659,0.591 -2.25,0.796 -1.619,0.21 -3.386,0.568 -3.386,2.568 0,1.704 1.318,2.682 2.977,2.682 z M 229.102,908 c -1.069,0 -1.841,-0.477 -1.841,-1.409 0,-1.023 0.931,-1.341 1.977,-1.477 0.568,-0.069 2.091,-0.228 2.318,-0.5 v 1.227 c 0,1.091 -0.864,2.159 -2.454,2.159 z m 6.242,1 h 1.341 v -5.523 c 0,-1.182 0.932,-2.045 2.205,-2.045 0.358,0 0.727,0.068 0.818,0.091 v -1.364 c -0.153,-0.011 -0.506,-0.023 -0.704,-0.023 -1.046,0 -1.955,0.591 -2.273,1.455 h -0.091 v -1.318 h -1.296 z"
       fill="#ffffff"
       id="path16" />
    <path
       d="m 518.469,909 c 3.545,0 5.545,-2.205 5.545,-5.841 0,-3.614 -2,-5.795 -5.386,-5.795 h -3.75 V 909 Z m -2.182,-1.25 v -9.136 h 2.25 c 2.727,0 4.114,1.727 4.114,4.545 0,2.841 -1.387,4.591 -4.273,4.591 z m 13.568,1.432 c 1.773,0 3.068,-0.887 3.477,-2.205 l -1.295,-0.363 c -0.341,0.909 -1.131,1.363 -2.182,1.363 -1.574,0 -2.659,-1.017 -2.721,-2.886 h 6.335 v -0.568 c 0,-3.25 -1.932,-4.364 -3.75,-4.364 -2.364,0 -3.932,1.864 -3.932,4.546 0,2.681 1.545,4.477 4.068,4.477 z m -2.721,-5.25 c 0.09,-1.358 1.051,-2.568 2.585,-2.568 1.454,0 2.386,1.091 2.386,2.568 z m 14.556,-1.705 c -0.42,-1.238 -1.363,-2.068 -3.091,-2.068 -1.84,0 -3.204,1.046 -3.204,2.523 0,1.204 0.716,2.011 2.318,2.386 l 1.455,0.341 c 0.88,0.205 1.295,0.625 1.295,1.227 0,0.75 -0.795,1.364 -2.045,1.364 -1.097,0 -1.784,-0.472 -2.023,-1.409 l -1.273,0.318 c 0.313,1.483 1.534,2.273 3.318,2.273 2.029,0 3.409,-1.108 3.409,-2.614 0,-1.216 -0.761,-1.983 -2.318,-2.363 l -1.295,-0.319 c -1.034,-0.255 -1.5,-0.602 -1.5,-1.272 0,-0.75 0.795,-1.296 1.863,-1.296 1.171,0 1.654,0.648 1.887,1.25 z m 5.837,6.955 c 1.773,0 3.068,-0.887 3.477,-2.205 l -1.295,-0.363 c -0.341,0.909 -1.131,1.363 -2.182,1.363 -1.574,0 -2.659,-1.017 -2.722,-2.886 h 6.336 v -0.568 c 0,-3.25 -1.932,-4.364 -3.75,-4.364 -2.364,0 -3.932,1.864 -3.932,4.546 0,2.681 1.545,4.477 4.068,4.477 z m -2.722,-5.25 c 0.091,-1.358 1.052,-2.568 2.586,-2.568 1.454,0 2.386,1.091 2.386,2.568 z m 9.716,-0.182 c 0,-1.523 0.943,-2.386 2.228,-2.386 1.244,0 2,0.812 2,2.181 V 909 h 1.34 v -5.545 c 0,-2.228 -1.187,-3.296 -2.954,-3.296 -1.318,0 -2.136,0.591 -2.546,1.477 h -0.113 v -1.363 H 553.18 V 909 h 1.341 z m 11.564,5.432 c 1.932,0 3.205,-1.182 3.432,-2.727 h -1.341 c -0.25,0.954 -1.045,1.522 -2.091,1.522 -1.591,0 -2.613,-1.318 -2.613,-3.341 0,-1.977 1.045,-3.272 2.613,-3.272 1.182,0 1.887,0.727 2.091,1.522 h 1.341 c -0.227,-1.636 -1.614,-2.727 -3.455,-2.727 -2.363,0 -3.931,1.864 -3.931,4.523 0,2.613 1.5,4.5 3.954,4.5 z M 571.477,909 h 1.341 v -5.523 c 0,-1.182 0.932,-2.045 2.205,-2.045 0.358,0 0.727,0.068 0.818,0.091 v -1.364 c -0.153,-0.011 -0.506,-0.023 -0.705,-0.023 -1.045,0 -1.954,0.591 -2.272,1.455 h -0.091 v -1.318 h -1.296 z m 5.953,0 h 1.341 v -8.727 h -1.341 z m 0.682,-10.182 c 0.523,0 0.955,-0.409 0.955,-0.909 0,-0.5 -0.432,-0.909 -0.955,-0.909 -0.523,0 -0.954,0.409 -0.954,0.909 0,0.5 0.431,0.909 0.954,0.909 z m 3.115,13.455 h 1.341 v -4.614 h 0.114 c 0.295,0.477 0.863,1.523 2.545,1.523 2.182,0 3.705,-1.75 3.705,-4.523 0,-2.75 -1.523,-4.5 -3.727,-4.5 -1.705,0 -2.228,1.046 -2.523,1.5 h -0.159 v -1.386 h -1.296 z m 1.318,-7.637 c 0,-1.954 0.864,-3.272 2.5,-3.272 1.705,0 2.546,1.431 2.546,3.272 0,1.864 -0.864,3.341 -2.546,3.341 -1.613,0 -2.5,-1.363 -2.5,-3.341 z m 12.228,-4.363 h -1.864 v -2.091 h -1.341 v 2.091 h -1.318 v 1.136 h 1.318 v 5.455 c 0,1.522 1.227,2.25 2.364,2.25 0.5,0 0.818,-0.091 1,-0.159 l -0.273,-1.205 c -0.114,0.023 -0.295,0.068 -0.591,0.068 -0.591,0 -1.159,-0.182 -1.159,-1.318 v -5.091 h 1.864 z m 4.585,8.932 c 1.523,0 2.318,-0.819 2.591,-1.387 h 0.068 V 909 h 1.341 v -5.75 c 0,-2.773 -2.114,-3.091 -3.227,-3.091 -1.319,0 -2.819,0.455 -3.5,2.046 l 1.272,0.454 c 0.296,-0.636 0.995,-1.318 2.273,-1.318 1.233,0 1.841,0.653 1.841,1.773 v 0.045 c 0,0.648 -0.659,0.591 -2.25,0.796 -1.619,0.21 -3.386,0.568 -3.386,2.568 0,1.704 1.318,2.682 2.977,2.682 z M 599.562,908 c -1.068,0 -1.84,-0.477 -1.84,-1.409 0,-1.023 0.931,-1.341 1.977,-1.477 0.568,-0.069 2.091,-0.228 2.318,-0.5 v 1.227 c 0,1.091 -0.864,2.159 -2.455,2.159 z m 6.243,1 h 1.341 v -5.523 c 0,-1.182 0.932,-2.045 2.205,-2.045 0.358,0 0.727,0.068 0.818,0.091 v -1.364 c -0.153,-0.011 -0.506,-0.023 -0.705,-0.023 -1.045,0 -1.954,0.591 -2.272,1.455 h -0.091 v -1.318 h -1.296 z"
       fill="#0a3871"
       id="path18" />
    <path
       d="m 420,871 h 284 v -2 H 420 Z m 307,23 v 19 h 2 v -19 z m -23,42 H 420 v 2 H 704 Z M 397,913 v -19 h -2 v 19 z m 23,23 c -12.703,0 -23,-10.297 -23,-23 h -2 c 0,13.807 11.193,25 25,25 z m 307,-23 c 0,12.703 -10.297,23 -23,23 v 2 c 13.807,0 25,-11.193 25,-25 z m -23,-42 c 12.703,0 23,10.297 23,23 h 2 c 0,-13.807 -11.193,-25 -25,-25 z m -284,-2 c -13.807,0 -25,11.193 -25,25 h 2 c 0,-12.703 10.297,-23 23,-23 z"
       fill="#0a3871"
       id="path20" />
    <g
       filter="url(#filter0_d_10_165)"
       id="g28">
      <rect
         x="40"
         y="1001"
         width="688"
         height="133"
         rx="32"
         fill="#ffffff"
         id="rect22" />
      <path
         d="m 212.874,1038.55 h -3.673 v 10.97 h -0.153 l -7.535,-10.97 h -3.238 V 1056 h 3.69 v -10.99 h 0.128 l 7.594,10.99 h 3.187 z m 2.981,17.45 h 3.631 v -13.09 h -3.631 z m 1.824,-14.78 c 1.082,0 1.969,-0.83 1.969,-1.84 0,-1 -0.887,-1.83 -1.969,-1.83 -1.074,0 -1.96,0.83 -1.96,1.83 0,1.01 0.886,1.84 1.96,1.84 z m 8.346,7.21 c 0.008,-1.69 1.014,-2.67 2.48,-2.67 1.457,0 2.335,0.95 2.327,2.55 v 7.69 h 3.63 v -8.34 c 0,-3.05 -1.789,-4.92 -4.517,-4.92 -1.943,0 -3.349,0.95 -3.937,2.48 h -0.154 v -2.31 h -3.46 V 1056 h 3.631 z m 17.197,12.75 c 3.741,0 6.4,-1.7 6.4,-5.05 v -13.22 h -3.605 v 2.2 h -0.136 c -0.486,-1.07 -1.551,-2.37 -3.742,-2.37 -2.872,0 -5.301,2.23 -5.301,6.69 0,4.35 2.361,6.38 5.31,6.38 2.088,0 3.255,-1.05 3.733,-2.13 h 0.153 v 2.4 c 0,1.8 -1.15,2.49 -2.727,2.49 -1.602,0 -2.412,-0.69 -2.71,-1.49 l -3.358,0.45 c 0.434,2.07 2.454,3.65 5.983,3.65 z m 0.076,-8.09 c -1.781,0 -2.753,-1.42 -2.753,-3.68 0,-2.22 0.955,-3.78 2.753,-3.78 1.764,0 2.753,1.49 2.753,3.78 0,2.31 -1.006,3.68 -2.753,3.68 z m 17.608,-2.66 c 0.009,1.75 -1.193,2.67 -2.497,2.67 -1.372,0 -2.258,-0.96 -2.267,-2.5 v -7.69 h -3.631 v 8.33 c 0.009,3.06 1.799,4.93 4.432,4.93 1.969,0 3.384,-1.01 3.972,-2.55 h 0.136 v 2.38 h 3.486 v -13.09 h -3.631 z m -3.673,-9.21 h 2.565 l 2.6,-3.88 h -3.358 z m 13.839,7.21 c 0.008,-1.69 1.014,-2.67 2.48,-2.67 1.457,0 2.335,0.95 2.327,2.55 v 7.69 h 3.63 v -8.34 c 0,-3.05 -1.79,-4.92 -4.517,-4.92 -1.943,0 -3.349,0.95 -3.937,2.48 h -0.154 v -2.31 h -3.46 V 1056 h 3.631 z m 16.853,7.57 h 3.631 v -7.86 c 0,-1.45 0.921,-2.41 2.131,-2.41 1.193,0 1.994,0.82 1.994,2.11 v 8.16 h 3.52 v -7.99 c 0,-1.36 0.776,-2.28 2.097,-2.28 1.159,0 2.028,0.72 2.028,2.18 v 8.09 h 3.622 v -8.8 c 0,-2.84 -1.687,-4.46 -4.125,-4.46 -1.917,0 -3.409,0.98 -3.946,2.48 h -0.136 c -0.418,-1.52 -1.756,-2.48 -3.554,-2.48 -1.764,0 -3.102,0.94 -3.648,2.48 h -0.153 v -2.31 h -3.461 z m 27.857,0.26 c 3.239,0 5.42,-1.58 5.932,-4.01 l -3.358,-0.22 c -0.367,1 -1.304,1.52 -2.514,1.52 -1.816,0 -2.966,-1.21 -2.966,-3.16 v -0.01 h 8.914 v -0.99 c 0,-4.45 -2.693,-6.65 -6.153,-6.65 -3.852,0 -6.349,2.73 -6.349,6.77 0,4.15 2.463,6.75 6.494,6.75 z m -2.906,-8.13 c 0.076,-1.49 1.21,-2.68 2.821,-2.68 1.576,0 2.667,1.12 2.676,2.68 z m 14.914,0.3 c 0.009,-1.69 1.015,-2.67 2.481,-2.67 1.457,0 2.335,0.95 2.326,2.55 v 7.69 h 3.631 v -8.34 c 0,-3.05 -1.79,-4.92 -4.517,-4.92 -1.943,0 -3.349,0.95 -3.938,2.48 h -0.153 v -2.31 h -3.46 V 1056 h 3.63 z m 22.192,-1.79 c -0.324,-2.41 -2.268,-3.9 -5.574,-3.9 -3.35,0 -5.557,1.55 -5.549,4.07 -0.008,1.96 1.228,3.23 3.784,3.74 l 2.268,0.46 c 1.142,0.23 1.661,0.64 1.678,1.3 -0.017,0.78 -0.86,1.33 -2.13,1.33 -1.296,0 -2.156,-0.55 -2.378,-1.62 l -3.571,0.19 c 0.341,2.5 2.472,4.05 5.94,4.05 3.392,0 5.821,-1.73 5.83,-4.32 -0.009,-1.89 -1.244,-3.02 -3.784,-3.54 l -2.37,-0.48 c -1.218,-0.26 -1.67,-0.68 -1.662,-1.31 -0.008,-0.79 0.878,-1.3 2.003,-1.3 1.262,0 2.012,0.69 2.191,1.54 z m 6.317,9.61 c 1.935,0 3.188,-0.85 3.827,-2.07 h 0.102 v 1.82 h 3.443 v -8.83 c 0,-3.12 -2.642,-4.43 -5.557,-4.43 -3.136,0 -5.199,1.5 -5.701,3.88 l 3.358,0.28 c 0.247,-0.87 1.022,-1.51 2.326,-1.51 1.236,0 1.943,0.62 1.943,1.7 v 0.05 c 0,0.84 -0.894,0.95 -3.17,1.17 -2.591,0.24 -4.918,1.11 -4.918,4.03 0,2.59 1.85,3.91 4.347,3.91 z m 1.04,-2.51 c -1.117,0 -1.918,-0.52 -1.918,-1.52 0,-1.02 0.844,-1.52 2.122,-1.7 0.793,-0.11 2.088,-0.3 2.523,-0.59 v 1.39 c 0,1.37 -1.133,2.42 -2.727,2.42 z m 9.149,-10.83 v 13.68 c 0,0.99 -0.418,1.48 -1.585,1.48 -0.154,0 -0.29,0 -0.478,-0.02 v 2.84 c 0.265,0.01 0.478,0.02 0.733,0.02 3.086,0 4.961,-1.23 4.961,-4.26 v -13.74 z m 1.807,-1.69 c 1.082,0 1.968,-0.83 1.968,-1.84 0,-1 -0.886,-1.83 -1.968,-1.83 -1.074,0 -1.96,0.83 -1.96,1.83 0,1.01 0.886,1.84 1.96,1.84 z m 10.698,15.04 c 3.239,0 5.42,-1.58 5.932,-4.01 l -3.358,-0.22 c -0.367,1 -1.304,1.52 -2.514,1.52 -1.816,0 -2.966,-1.21 -2.966,-3.16 v -0.01 h 8.914 v -0.99 c 0,-4.45 -2.693,-6.65 -6.153,-6.65 -3.852,0 -6.349,2.73 -6.349,6.77 0,4.15 2.463,6.75 6.494,6.75 z m -2.906,-8.13 c 0.076,-1.49 1.21,-2.68 2.821,-2.68 1.576,0 2.667,1.12 2.676,2.68 z m 23.878,-5.22 h -2.599 v -0.88 c 0,-0.89 0.358,-1.41 1.423,-1.41 0.435,0 0.878,0.1 1.168,0.19 l 0.639,-2.72 c -0.452,-0.14 -1.449,-0.36 -2.565,-0.36 -2.464,0 -4.296,1.39 -4.296,4.23 v 0.95 h -1.849 v 2.73 h 1.849 V 1056 h 3.631 v -10.36 h 2.599 z m 10.613,7.52 c 0.009,1.75 -1.193,2.67 -2.497,2.67 -1.372,0 -2.259,-0.96 -2.267,-2.5 v -7.69 h -3.631 v 8.33 c 0.009,3.06 1.799,4.93 4.432,4.93 1.969,0 3.384,-1.01 3.972,-2.55 h 0.136 v 2.38 h 3.486 v -13.09 h -3.631 z m 12.501,5.83 c 3.238,0 5.42,-1.58 5.932,-4.01 l -3.358,-0.22 c -0.367,1 -1.304,1.52 -2.515,1.52 -1.815,0 -2.965,-1.21 -2.965,-3.16 v -0.01 h 8.914 v -0.99 c 0,-4.45 -2.693,-6.65 -6.153,-6.65 -3.852,0 -6.349,2.73 -6.349,6.77 0,4.15 2.463,6.75 6.494,6.75 z m -2.906,-8.13 c 0.076,-1.49 1.21,-2.68 2.821,-2.68 1.576,0 2.667,1.12 2.676,2.68 z m 22.804,8.13 c 3.239,0 5.421,-1.58 5.932,-4.01 l -3.358,-0.22 c -0.366,1 -1.304,1.52 -2.514,1.52 -1.815,0 -2.966,-1.21 -2.966,-3.16 v -0.01 h 8.915 v -0.99 c 0,-4.45 -2.693,-6.65 -6.154,-6.65 -3.852,0 -6.349,2.73 -6.349,6.77 0,4.15 2.463,6.75 6.494,6.75 z m -2.906,-8.13 c 0.077,-1.49 1.21,-2.68 2.821,-2.68 1.577,0 2.668,1.12 2.676,2.68 z m 14.915,0.3 c 0.008,-1.69 1.014,-2.67 2.48,-2.67 1.457,0 2.335,0.95 2.327,2.55 v 7.69 h 3.63 v -8.34 c 0,-3.05 -1.789,-4.92 -4.517,-4.92 -1.943,0 -3.349,0.95 -3.937,2.48 h -0.154 v -2.31 h -3.46 V 1056 h 3.631 z m 17.214,7.83 c 3.485,0 5.676,-2.05 5.846,-5.06 h -3.426 c -0.213,1.4 -1.133,2.18 -2.378,2.18 -1.696,0 -2.795,-1.42 -2.795,-3.93 0,-2.47 1.108,-3.88 2.795,-3.88 1.33,0 2.182,0.88 2.378,2.18 h 3.426 c -0.153,-3.03 -2.446,-5.01 -5.863,-5.01 -3.972,0 -6.427,2.75 -6.427,6.77 0,3.98 2.412,6.75 6.444,6.75 z m 14.086,0 c 3.971,0 6.443,-2.72 6.443,-6.75 0,-4.06 -2.472,-6.77 -6.443,-6.77 -3.972,0 -6.444,2.71 -6.444,6.77 0,4.03 2.472,6.75 6.444,6.75 z m 0.017,-2.82 c -1.833,0 -2.77,-1.68 -2.77,-3.96 0,-2.28 0.937,-3.97 2.77,-3.97 1.798,0 2.735,1.69 2.735,3.97 0,2.28 -0.937,3.96 -2.735,3.96 z m 12.417,-5.01 c 0.009,-1.69 1.014,-2.67 2.48,-2.67 1.458,0 2.336,0.95 2.327,2.55 v 7.69 h 3.631 v -8.34 c 0,-3.05 -1.79,-4.92 -4.517,-4.92 -1.944,0 -3.35,0.95 -3.938,2.48 h -0.153 v -2.31 h -3.461 V 1056 h 3.631 z m 18.262,-5.52 h -2.463 v -3.14 h -3.631 v 3.14 h -1.789 v 2.73 h 1.789 v 6.81 c -0.017,2.57 1.731,3.84 4.364,3.73 0.938,-0.04 1.602,-0.22 1.969,-0.34 l -0.571,-2.7 c -0.179,0.03 -0.563,0.12 -0.904,0.12 -0.724,0 -1.227,-0.28 -1.227,-1.28 v -6.34 h 2.463 z m 2.365,13.09 h 3.631 v -7.41 c 0,-1.61 1.176,-2.71 2.778,-2.71 0.503,0 1.194,0.08 1.534,0.19 v -3.22 c -0.323,-0.08 -0.775,-0.13 -1.142,-0.13 -1.465,0 -2.667,0.85 -3.144,2.47 h -0.137 v -2.28 h -3.52 z m 13.179,0.25 c 1.934,0 3.187,-0.85 3.826,-2.07 h 0.103 v 1.82 h 3.443 v -8.83 c 0,-3.12 -2.642,-4.43 -5.557,-4.43 -3.136,0 -5.199,1.5 -5.702,3.88 l 3.358,0.28 c 0.247,-0.87 1.023,-1.51 2.327,-1.51 1.236,0 1.943,0.62 1.943,1.7 v 0.05 c 0,0.84 -0.895,0.95 -3.17,1.17 -2.591,0.24 -4.918,1.11 -4.918,4.03 0,2.59 1.849,3.91 4.347,3.91 z m 1.039,-2.51 c -1.116,0 -1.917,-0.52 -1.917,-1.52 0,-1.02 0.843,-1.52 2.122,-1.7 0.792,-0.11 2.088,-0.3 2.523,-0.59 v 1.39 c 0,1.37 -1.134,2.42 -2.728,2.42 z m 13.973,2.47 c 2.114,0 3.213,-1.22 3.716,-2.31 h 0.154 v 2.1 h 3.579 v -17.45 h -3.622 v 6.56 h -0.111 c -0.486,-1.07 -1.534,-2.37 -3.724,-2.37 -2.872,0 -5.301,2.23 -5.301,6.73 0,4.38 2.326,6.74 5.309,6.74 z m 1.151,-2.89 c -1.781,0 -2.753,-1.58 -2.753,-3.87 0,-2.26 0.955,-3.82 2.753,-3.82 1.764,0 2.753,1.49 2.753,3.82 0,2.34 -1.006,3.87 -2.753,3.87 z m 15.198,2.94 c 3.972,0 6.443,-2.72 6.443,-6.75 0,-4.06 -2.471,-6.77 -6.443,-6.77 -3.972,0 -6.443,2.71 -6.443,6.77 0,4.03 2.471,6.75 6.443,6.75 z m 0.017,-2.82 c -1.832,0 -2.77,-1.68 -2.77,-3.96 0,-2.28 0.938,-3.97 2.77,-3.97 1.798,0 2.736,1.69 2.736,3.97 0,2.28 -0.938,3.96 -2.736,3.96 z"
         fill="#343a40"
         id="path24" />
      <path
         d="m 187.654,1084.36 h -1.409 V 1096 h 1.409 z m 3.984,6.39 c 0,-1.52 0.944,-2.39 2.228,-2.39 1.244,0 2,0.82 2,2.19 v 5.45 h 1.341 v -5.55 c 0,-2.22 -1.188,-3.29 -2.955,-3.29 -1.318,0 -2.136,0.59 -2.545,1.48 h -0.114 v -1.37 h -1.295 v 8.73 h 1.34 z m 11.542,8.7 c 2.091,0 3.772,-0.95 3.772,-3.2 v -8.98 h -1.295 v 1.39 h -0.136 c -0.296,-0.46 -0.841,-1.5 -2.546,-1.5 -2.204,0 -3.727,1.75 -3.727,4.43 0,2.73 1.591,4.27 3.704,4.27 1.705,0 2.25,-1 2.546,-1.47 h 0.114 v 1.77 c 0,1.45 -1.023,2.11 -2.432,2.11 -1.586,0 -2.142,-0.83 -2.5,-1.32 l -1.068,0.75 c 0.545,0.92 1.619,1.75 3.568,1.75 z m -0.046,-4.79 c -1.682,0 -2.545,-1.27 -2.545,-3.09 0,-1.77 0.841,-3.21 2.545,-3.21 1.637,0 2.5,1.32 2.5,3.21 0,1.93 -0.886,3.09 -2.5,3.09 z m 6.273,1.34 h 1.341 v -5.52 c 0,-1.18 0.932,-2.05 2.204,-2.05 0.358,0 0.728,0.07 0.819,0.09 v -1.36 c -0.154,-0.01 -0.506,-0.02 -0.705,-0.02 -1.045,0 -1.954,0.59 -2.273,1.45 h -0.091 v -1.32 h -1.295 z m 9.347,0.18 c 1.772,0 3.068,-0.88 3.477,-2.2 l -1.296,-0.37 c -0.341,0.91 -1.13,1.37 -2.181,1.37 -1.574,0 -2.66,-1.02 -2.722,-2.89 h 6.335 v -0.57 c 0,-3.25 -1.932,-4.36 -3.75,-4.36 -2.363,0 -3.932,1.86 -3.932,4.54 0,2.69 1.546,4.48 4.069,4.48 z m -2.722,-5.25 c 0.091,-1.36 1.051,-2.57 2.585,-2.57 1.455,0 2.387,1.09 2.387,2.57 z m 14.557,-1.7 c -0.421,-1.24 -1.364,-2.07 -3.091,-2.07 -1.841,0 -3.205,1.04 -3.205,2.52 0,1.21 0.716,2.01 2.319,2.39 l 1.454,0.34 c 0.881,0.2 1.296,0.62 1.296,1.23 0,0.75 -0.796,1.36 -2.046,1.36 -1.097,0 -1.784,-0.47 -2.023,-1.41 l -1.272,0.32 c 0.312,1.48 1.534,2.27 3.318,2.27 2.028,0 3.409,-1.11 3.409,-2.61 0,-1.22 -0.761,-1.98 -2.318,-2.37 l -1.296,-0.31 c -1.034,-0.26 -1.5,-0.61 -1.5,-1.28 0,-0.75 0.796,-1.29 1.864,-1.29 1.17,0 1.653,0.65 1.886,1.25 z m 4.746,6.97 c 1.522,0 2.318,-0.81 2.59,-1.38 h 0.069 v 1.18 h 1.341 v -5.75 c 0,-2.77 -2.114,-3.09 -3.228,-3.09 -1.318,0 -2.818,0.45 -3.5,2.04 l 1.273,0.46 c 0.295,-0.64 0.994,-1.32 2.273,-1.32 1.233,0 1.841,0.65 1.841,1.77 v 0.05 c 0,0.65 -0.659,0.59 -2.25,0.79 -1.62,0.21 -3.387,0.57 -3.387,2.57 0,1.71 1.318,2.68 2.978,2.68 z m 0.204,-1.2 c -1.068,0 -1.841,-0.48 -1.841,-1.41 0,-1.02 0.932,-1.34 1.977,-1.48 0.569,-0.06 2.091,-0.22 2.319,-0.5 v 1.23 c 0,1.09 -0.864,2.16 -2.455,2.16 z m 14.402,1.18 c 1.773,0 3.068,-0.88 3.477,-2.2 l -1.295,-0.37 c -0.341,0.91 -1.131,1.37 -2.182,1.37 -1.574,0 -2.659,-1.02 -2.722,-2.89 h 6.336 v -0.57 c 0,-3.25 -1.932,-4.36 -3.75,-4.36 -2.364,0 -3.932,1.86 -3.932,4.54 0,2.69 1.545,4.48 4.068,4.48 z m -2.722,-5.25 c 0.091,-1.36 1.052,-2.57 2.586,-2.57 1.454,0 2.386,1.09 2.386,2.57 z m 9.716,-6.57 h -1.341 V 1096 h 1.341 z m 10.752,2.91 h -1.864 v -2.09 h -1.341 v 2.09 h -1.318 v 1.14 h 1.318 v 5.45 c 0,1.53 1.228,2.25 2.364,2.25 0.5,0 0.818,-0.09 1,-0.16 l -0.273,-1.2 c -0.113,0.02 -0.295,0.07 -0.591,0.07 -0.591,0 -1.159,-0.18 -1.159,-1.32 v -5.09 h 1.864 z m 5.582,8.91 c 1.773,0 3.068,-0.88 3.477,-2.2 l -1.295,-0.37 c -0.341,0.91 -1.131,1.37 -2.182,1.37 -1.574,0 -2.659,-1.02 -2.721,-2.89 h 6.335 v -0.57 c 0,-3.25 -1.932,-4.36 -3.75,-4.36 -2.364,0 -3.932,1.86 -3.932,4.54 0,2.69 1.545,4.48 4.068,4.48 z m -2.721,-5.25 c 0.09,-1.36 1.051,-2.57 2.585,-2.57 1.454,0 2.386,1.09 2.386,2.57 z m 9.14,-3.66 h -1.545 l 2.772,4.37 -2.772,4.36 h 1.545 l 2.091,-3.39 2.091,3.39 h 1.545 l -2.818,-4.36 2.818,-4.37 h -1.545 l -2.091,3.57 z m 11.436,0 h -1.863 v -2.09 h -1.341 v 2.09 h -1.318 v 1.14 h 1.318 v 5.45 c 0,1.53 1.227,2.25 2.363,2.25 0.5,0 0.819,-0.09 1,-0.16 l -0.272,-1.2 c -0.114,0.02 -0.296,0.07 -0.591,0.07 -0.591,0 -1.159,-0.18 -1.159,-1.32 v -5.09 h 1.863 z m 5.469,8.91 c 2.364,0 3.955,-1.79 3.955,-4.5 0,-2.73 -1.591,-4.52 -3.955,-4.52 -2.364,0 -3.955,1.79 -3.955,4.52 0,2.71 1.591,4.5 3.955,4.5 z m 0,-1.2 c -1.795,0 -2.614,-1.55 -2.614,-3.3 0,-1.75 0.819,-3.32 2.614,-3.32 1.795,0 2.614,1.57 2.614,3.32 0,1.75 -0.819,3.3 -2.614,3.3 z m 17.797,4.29 v -12 h -1.296 v 1.39 h -0.159 c -0.295,-0.46 -0.818,-1.5 -2.522,-1.5 -2.205,0 -3.728,1.75 -3.728,4.5 0,2.77 1.523,4.52 3.705,4.52 1.682,0 2.25,-1.04 2.545,-1.52 h 0.114 v 4.61 z m -1.318,-7.63 c 0,1.97 -0.887,3.34 -2.5,3.34 -1.682,0 -2.546,-1.48 -2.546,-3.34 0,-1.84 0.841,-3.28 2.546,-3.28 1.636,0 2.5,1.32 2.5,3.28 z m 9.272,0.79 c 0,1.64 -1.25,2.39 -2.25,2.39 -1.113,0 -1.909,-0.82 -1.909,-2.09 v -5.46 h -1.341 v 5.55 c 0,2.23 1.182,3.29 2.819,3.29 1.318,0 2.181,-0.7 2.591,-1.59 h 0.09 v 1.48 h 1.341 v -8.73 h -1.341 z m 7.456,3.75 c 1.773,0 3.069,-0.88 3.478,-2.2 l -1.296,-0.37 c -0.341,0.91 -1.13,1.37 -2.182,1.37 -1.573,0 -2.659,-1.02 -2.721,-2.89 h 6.335 v -0.57 c 0,-3.25 -1.932,-4.36 -3.75,-4.36 -2.364,0 -3.932,1.86 -3.932,4.54 0,2.69 1.546,4.48 4.068,4.48 z m -2.721,-5.25 c 0.091,-1.36 1.051,-2.57 2.585,-2.57 1.455,0 2.386,1.09 2.386,2.57 z m 16.17,5.25 c 1.682,0 2.25,-1.04 2.546,-1.52 h 0.159 v 1.34 h 1.295 v -11.64 h -1.341 v 4.3 h -0.113 c -0.296,-0.46 -0.818,-1.5 -2.523,-1.5 -2.205,0 -3.727,1.75 -3.727,4.5 0,2.77 1.522,4.52 3.704,4.52 z m 0.182,-1.2 c -1.682,0 -2.545,-1.48 -2.545,-3.34 0,-1.84 0.841,-3.28 2.545,-3.28 1.636,0 2.5,1.32 2.5,3.28 0,1.97 -0.886,3.34 -2.5,3.34 z m 10.119,1.2 c 1.773,0 3.069,-0.88 3.478,-2.2 l -1.296,-0.37 c -0.341,0.91 -1.13,1.37 -2.182,1.37 -1.573,0 -2.659,-1.02 -2.721,-2.89 h 6.335 v -0.57 c 0,-3.25 -1.932,-4.36 -3.75,-4.36 -2.364,0 -3.932,1.86 -3.932,4.54 0,2.69 1.546,4.48 4.068,4.48 z m -2.721,-5.25 c 0.091,-1.36 1.051,-2.57 2.585,-2.57 1.455,0 2.386,1.09 2.386,2.57 z m 14.557,-1.7 c -0.421,-1.24 -1.364,-2.07 -3.091,-2.07 -1.841,0 -3.205,1.04 -3.205,2.52 0,1.21 0.716,2.01 2.318,2.39 l 1.455,0.34 c 0.881,0.2 1.295,0.62 1.295,1.23 0,0.75 -0.795,1.36 -2.045,1.36 -1.097,0 -1.784,-0.47 -2.023,-1.41 l -1.273,0.32 c 0.313,1.48 1.535,2.27 3.319,2.27 2.028,0 3.409,-1.11 3.409,-2.61 0,-1.22 -0.762,-1.98 -2.318,-2.37 l -1.296,-0.31 c -1.034,-0.26 -1.5,-0.61 -1.5,-1.28 0,-0.75 0.796,-1.29 1.864,-1.29 1.17,0 1.653,0.65 1.886,1.25 z m 5.836,6.95 c 1.773,0 3.068,-0.88 3.478,-2.2 l -1.296,-0.37 c -0.341,0.91 -1.131,1.37 -2.182,1.37 -1.574,0 -2.659,-1.02 -2.721,-2.89 h 6.335 v -0.57 c 0,-3.25 -1.932,-4.36 -3.75,-4.36 -2.364,0 -3.932,1.86 -3.932,4.54 0,2.69 1.546,4.48 4.068,4.48 z m -2.721,-5.25 c 0.091,-1.36 1.051,-2.57 2.585,-2.57 1.454,0 2.386,1.09 2.386,2.57 z m 12.034,5.25 c 1.773,0 3.068,-0.88 3.477,-2.2 l -1.295,-0.37 c -0.341,0.91 -1.131,1.37 -2.182,1.37 -1.574,0 -2.659,-1.02 -2.722,-2.89 h 6.335 v -0.57 c 0,-3.25 -1.931,-4.36 -3.75,-4.36 -2.363,0 -3.931,1.86 -3.931,4.54 0,2.69 1.545,4.48 4.068,4.48 z m -2.722,-5.25 c 0.091,-1.36 1.051,-2.57 2.585,-2.57 1.455,0 2.387,1.09 2.387,2.57 z m 14.557,-1.7 c -0.42,-1.24 -1.364,-2.07 -3.091,-2.07 -1.841,0 -3.204,1.04 -3.204,2.52 0,1.21 0.715,2.01 2.318,2.39 l 1.454,0.34 c 0.881,0.2 1.296,0.62 1.296,1.23 0,0.75 -0.796,1.36 -2.046,1.36 -1.096,0 -1.784,-0.47 -2.022,-1.41 l -1.273,0.32 c 0.312,1.48 1.534,2.27 3.318,2.27 2.028,0 3.409,-1.11 3.409,-2.61 0,-1.22 -0.761,-1.98 -2.318,-2.37 l -1.296,-0.31 c -1.034,-0.26 -1.5,-0.61 -1.5,-1.28 0,-0.75 0.796,-1.29 1.864,-1.29 1.171,0 1.654,0.65 1.886,1.25 z m 10.337,6.95 c 1.772,0 3.068,-0.88 3.477,-2.2 l -1.296,-0.37 c -0.34,0.91 -1.13,1.37 -2.181,1.37 -1.574,0 -2.659,-1.02 -2.722,-2.89 h 6.335 v -0.57 c 0,-3.25 -1.932,-4.36 -3.75,-4.36 -2.363,0 -3.932,1.86 -3.932,4.54 0,2.69 1.546,4.48 4.069,4.48 z m -2.722,-5.25 c 0.091,-1.36 1.051,-2.57 2.585,-2.57 1.455,0 2.387,1.09 2.387,2.57 z m 9.716,-0.18 c 0,-1.52 0.943,-2.39 2.227,-2.39 1.245,0 2,0.82 2,2.19 v 5.45 h 1.341 v -5.55 c 0,-2.22 -1.187,-3.29 -2.954,-3.29 -1.319,0 -2.137,0.59 -2.546,1.48 h -0.113 v -1.37 h -1.296 v 8.73 h 1.341 z m 11.564,5.43 c 1.932,0 3.204,-1.18 3.432,-2.73 h -1.341 c -0.25,0.96 -1.046,1.53 -2.091,1.53 -1.591,0 -2.614,-1.32 -2.614,-3.34 0,-1.98 1.046,-3.28 2.614,-3.28 1.182,0 1.886,0.73 2.091,1.53 h 1.341 c -0.228,-1.64 -1.614,-2.73 -3.455,-2.73 -2.363,0 -3.932,1.86 -3.932,4.52 0,2.62 1.5,4.5 3.955,4.5 z m 5.392,-0.18 h 1.341 v -5.52 c 0,-1.18 0.932,-2.05 2.204,-2.05 0.358,0 0.728,0.07 0.819,0.09 v -1.36 c -0.154,-0.01 -0.506,-0.02 -0.705,-0.02 -1.045,0 -1.954,0.59 -2.273,1.45 h -0.091 v -1.32 h -1.295 z m 5.953,0 h 1.341 v -8.73 h -1.341 z m 0.682,-10.18 c 0.523,0 0.954,-0.41 0.954,-0.91 0,-0.5 -0.431,-0.91 -0.954,-0.91 -0.523,0 -0.955,0.41 -0.955,0.91 0,0.5 0.432,0.91 0.955,0.91 z m 3.115,13.45 h 1.341 v -4.61 h 0.114 c 0.295,0.48 0.863,1.52 2.545,1.52 2.182,0 3.705,-1.75 3.705,-4.52 0,-2.75 -1.523,-4.5 -3.728,-4.5 -1.704,0 -2.227,1.04 -2.522,1.5 h -0.16 v -1.39 h -1.295 z m 1.318,-7.63 c 0,-1.96 0.864,-3.28 2.5,-3.28 1.705,0 2.546,1.44 2.546,3.28 0,1.86 -0.864,3.34 -2.546,3.34 -1.613,0 -2.5,-1.37 -2.5,-3.34 z m 12.227,-4.37 h -1.863 v -2.09 h -1.341 v 2.09 h -1.318 v 1.14 h 1.318 v 5.45 c 0,1.53 1.227,2.25 2.364,2.25 0.5,0 0.818,-0.09 1,-0.16 l -0.273,-1.2 c -0.114,0.02 -0.296,0.07 -0.591,0.07 -0.591,0 -1.159,-0.18 -1.159,-1.32 v -5.09 h 1.863 z m 4.586,8.93 c 1.522,0 2.318,-0.81 2.591,-1.38 h 0.068 v 1.18 h 1.341 v -5.75 c 0,-2.77 -2.114,-3.09 -3.228,-3.09 -1.318,0 -2.818,0.45 -3.5,2.04 l 1.273,0.46 c 0.296,-0.64 0.994,-1.32 2.273,-1.32 1.233,0 1.841,0.65 1.841,1.77 v 0.05 c 0,0.65 -0.659,0.59 -2.25,0.79 -1.62,0.21 -3.387,0.57 -3.387,2.57 0,1.71 1.319,2.68 2.978,2.68 z m 0.204,-1.2 c -1.068,0 -1.841,-0.48 -1.841,-1.41 0,-1.02 0.932,-1.34 1.978,-1.48 0.568,-0.06 2.09,-0.22 2.318,-0.5 v 1.23 c 0,1.09 -0.864,2.16 -2.455,2.16 z m 6.243,1 h 1.341 v -5.52 c 0,-1.18 0.932,-2.05 2.205,-2.05 0.357,0 0.727,0.07 0.818,0.09 v -1.36 c -0.154,-0.01 -0.506,-0.02 -0.705,-0.02 -1.045,0 -1.954,0.59 -2.273,1.45 h -0.09 v -1.32 h -1.296 z m 13.999,0.18 c 2.363,0 3.954,-1.79 3.954,-4.5 0,-2.73 -1.591,-4.52 -3.954,-4.52 -2.364,0 -3.955,1.79 -3.955,4.52 0,2.71 1.591,4.5 3.955,4.5 z m 0,-1.2 c -1.796,0 -2.614,-1.55 -2.614,-3.3 0,-1.75 0.818,-3.32 2.614,-3.32 1.795,0 2.613,1.57 2.613,3.32 0,1.75 -0.818,3.3 -2.613,3.3 z m 13.797,1.2 c 1.681,0 2.25,-1.04 2.545,-1.52 h 0.159 v 1.34 h 1.296 v -11.64 h -1.341 v 4.3 h -0.114 c -0.295,-0.46 -0.818,-1.5 -2.523,-1.5 -2.204,0 -3.727,1.75 -3.727,4.5 0,2.77 1.523,4.52 3.705,4.52 z m 0.181,-1.2 c -1.681,0 -2.545,-1.48 -2.545,-3.34 0,-1.84 0.841,-3.28 2.545,-3.28 1.637,0 2.5,1.32 2.5,3.28 0,1.97 -0.886,3.34 -2.5,3.34 z m 10.12,1.2 c 1.772,0 3.068,-0.88 3.477,-2.2 l -1.296,-0.37 c -0.34,0.91 -1.13,1.37 -2.181,1.37 -1.574,0 -2.659,-1.02 -2.722,-2.89 h 6.335 v -0.57 c 0,-3.25 -1.932,-4.36 -3.75,-4.36 -2.363,0 -3.932,1.86 -3.932,4.54 0,2.69 1.546,4.48 4.069,4.48 z m -2.722,-5.25 c 0.091,-1.36 1.051,-2.57 2.585,-2.57 1.455,0 2.387,1.09 2.387,2.57 z m 14.557,-1.7 c -0.421,-1.24 -1.364,-2.07 -3.091,-2.07 -1.841,0 -3.205,1.04 -3.205,2.52 0,1.21 0.716,2.01 2.319,2.39 l 1.454,0.34 c 0.881,0.2 1.296,0.62 1.296,1.23 0,0.75 -0.796,1.36 -2.046,1.36 -1.096,0 -1.784,-0.47 -2.023,-1.41 l -1.272,0.32 c 0.312,1.48 1.534,2.27 3.318,2.27 2.028,0 3.409,-1.11 3.409,-2.61 0,-1.22 -0.761,-1.98 -2.318,-2.37 l -1.296,-0.31 c -1.034,-0.26 -1.5,-0.61 -1.5,-1.28 0,-0.75 0.796,-1.29 1.864,-1.29 1.17,0 1.653,0.65 1.886,1.25 z m 5.837,6.95 c 1.772,0 3.068,-0.88 3.477,-2.2 l -1.296,-0.37 c -0.341,0.91 -1.13,1.37 -2.181,1.37 -1.574,0 -2.66,-1.02 -2.722,-2.89 h 6.335 v -0.57 c 0,-3.25 -1.932,-4.36 -3.75,-4.36 -2.363,0 -3.932,1.86 -3.932,4.54 0,2.69 1.546,4.48 4.069,4.48 z m -2.722,-5.25 c 0.091,-1.36 1.051,-2.57 2.585,-2.57 1.455,0 2.387,1.09 2.387,2.57 z m 9.716,-0.18 c 0,-1.52 0.943,-2.39 2.227,-2.39 1.244,0 2,0.82 2,2.19 v 5.45 h 1.341 v -5.55 c 0,-2.22 -1.187,-3.29 -2.954,-3.29 -1.319,0 -2.137,0.59 -2.546,1.48 h -0.114 v -1.37 h -1.295 v 8.73 h 1.341 z m 11.564,5.43 c 1.932,0 3.204,-1.18 3.432,-2.73 h -1.341 c -0.25,0.96 -1.046,1.53 -2.091,1.53 -1.591,0 -2.614,-1.32 -2.614,-3.34 0,-1.98 1.046,-3.28 2.614,-3.28 1.182,0 1.886,0.73 2.091,1.53 h 1.341 c -0.228,-1.64 -1.614,-2.73 -3.455,-2.73 -2.364,0 -3.932,1.86 -3.932,4.52 0,2.62 1.5,4.5 3.955,4.5 z m 5.392,-0.18 h 1.341 v -5.52 c 0,-1.18 0.932,-2.05 2.204,-2.05 0.358,0 0.728,0.07 0.818,0.09 v -1.36 c -0.153,-0.01 -0.505,-0.02 -0.704,-0.02 -1.046,0 -1.955,0.59 -2.273,1.45 h -0.091 v -1.32 h -1.295 z m 5.953,0 h 1.341 v -8.73 h -1.341 z m 0.682,-10.18 c 0.523,0 0.954,-0.41 0.954,-0.91 0,-0.5 -0.431,-0.91 -0.954,-0.91 -0.523,0 -0.955,0.41 -0.955,0.91 0,0.5 0.432,0.91 0.955,0.91 z m 3.115,13.45 h 1.341 v -4.61 h 0.113 c 0.296,0.48 0.864,1.52 2.546,1.52 2.182,0 3.704,-1.75 3.704,-4.52 0,-2.75 -1.522,-4.5 -3.727,-4.5 -1.704,0 -2.227,1.04 -2.523,1.5 h -0.159 v -1.39 h -1.295 z m 1.318,-7.63 c 0,-1.96 0.864,-3.28 2.5,-3.28 1.705,0 2.545,1.44 2.545,3.28 0,1.86 -0.863,3.34 -2.545,3.34 -1.614,0 -2.5,-1.37 -2.5,-3.34 z m 12.227,-4.37 h -1.863 v -2.09 h -1.341 v 2.09 h -1.318 v 1.14 h 1.318 v 5.45 c 0,1.53 1.227,2.25 2.363,2.25 0.5,0 0.819,-0.09 1,-0.16 l -0.272,-1.2 c -0.114,0.02 -0.296,0.07 -0.591,0.07 -0.591,0 -1.159,-0.18 -1.159,-1.32 v -5.09 h 1.863 z m 4.586,8.93 c 1.522,0 2.318,-0.81 2.59,-1.38 h 0.069 v 1.18 h 1.341 v -5.75 c 0,-2.77 -2.114,-3.09 -3.228,-3.09 -1.318,0 -2.818,0.45 -3.5,2.04 l 1.273,0.46 c 0.295,-0.64 0.994,-1.32 2.273,-1.32 1.233,0 1.841,0.65 1.841,1.77 v 0.05 c 0,0.65 -0.659,0.59 -2.25,0.79 -1.62,0.21 -3.387,0.57 -3.387,2.57 0,1.71 1.318,2.68 2.978,2.68 z m 0.204,-1.2 c -1.068,0 -1.841,-0.48 -1.841,-1.41 0,-1.02 0.932,-1.34 1.977,-1.48 0.569,-0.06 2.091,-0.22 2.319,-0.5 v 1.23 c 0,1.09 -0.864,2.16 -2.455,2.16 z m 6.243,1 h 1.341 v -5.52 c 0,-1.18 0.932,-2.05 2.204,-2.05 0.358,0 0.728,0.07 0.819,0.09 v -1.36 c -0.154,-0.01 -0.506,-0.02 -0.705,-0.02 -1.045,0 -1.954,0.59 -2.273,1.45 h -0.091 v -1.32 h -1.295 z m 5.93,0.09 c 0.563,0 1.023,-0.46 1.023,-1.02 0,-0.56 -0.46,-1.02 -1.023,-1.02 -0.562,0 -1.022,0.46 -1.022,1.02 0,0.56 0.46,1.02 1.022,1.02 z"
         fill="#495057"
         id="path26" />
    </g>
  </g>
  <defs
     id="defs54">
    <filter
       id="filter0_d_10_165"
       x="16"
       y="1001"
       width="736"
       height="181"
       filterUnits="userSpaceOnUse"
       color-interpolation-filters="sRGB">
      <feFlood
         flood-opacity="0"
         result="BackgroundImageFix"
         id="feFlood32" />
      <feColorMatrix
         in="SourceAlpha"
         type="matrix"
         values="0 0 0 0 0 0 0 0 0 0 0 0 0 0 0 0 0 0 127 0"
         result="hardAlpha"
         id="feColorMatrix34" />
      <feMorphology
         radius="8"
         operator="erode"
         in="SourceAlpha"
         result="effect1_dropShadow_10_165"
         id="feMorphology36" />
      <feOffset
         dy="24"
         id="feOffset38" />
      <feGaussianBlur
         stdDeviation="16"
         id="feGaussianBlur40" />
      <feComposite
         in2="hardAlpha"
         operator="out"
         id="feComposite42" />
      <feColorMatrix
         type="matrix"
         values="0 0 0 0 0 0 0 0 0 0 0 0 0 0 0 0 0 0 0.08 0"
         id="feColorMatrix44" />
      <feBlend
         mode="normal"
         in2="BackgroundImageFix"
         result="effect1_dropShadow_10_165"
         id="feBlend46" />
      <feBlend
         mode="normal"
         in="SourceGraphic"
         in2="effect1_dropShadow_10_165"
         result="shape"
         id="feBlend48" />
    </filter>
    <clipPath
       id="clip0_10_165">
      <rect
         width="768"
         height="1174"
         fill="white"
         id="rect51" />
    </clipPath>
  </defs>
</svg>
