<?xml version="1.0" encoding="UTF-8" standalone="no"?>
<svg
   width="375"
   height="933"
   viewBox="0 0 375 933"
   fill="none"
   version="1.1"
   id="svg54"
   sodipodi:docname="Encriptador - 1 Celular.svg"
   inkscape:version="1.1.2 (b8e25be833, 2022-02-05)"
   xmlns:inkscape="http://www.inkscape.org/namespaces/inkscape"
   xmlns:sodipodi="http://sodipodi.sourceforge.net/DTD/sodipodi-0.dtd"
   xmlns="http://www.w3.org/2000/svg"
   xmlns:svg="http://www.w3.org/2000/svg">
  <sodipodi:namedview
     id="namedview56"
     pagecolor="#ffffff"
     bordercolor="#666666"
     borderopacity="1.0"
     inkscape:pageshadow="2"
     inkscape:pageopacity="0.0"
     inkscape:pagecheckerboard="0"
     showgrid="false"
     inkscape:zoom="0.2004606"
     inkscape:cx="187.06918"
     inkscape:cy="463.93157"
     inkscape:window-width="1366"
     inkscape:window-height="715"
     inkscape:window-x="-8"
     inkscape:window-y="-8"
     inkscape:window-maximized="1"
     inkscape:current-layer="svg54" />
  <rect
     width="375"
     height="933"
     fill="#f3f5fc"
     id="rect2"
     x="0"
     y="0"
     style="fill:#ffe6d5" />
  <path
     d="M 21.6364,164.727 H 18.8182 V 188 h 2.8182 z m 7.9687,12.773 c 0,-3.045 1.8864,-4.773 4.4546,-4.773 2.4886,0 4,1.625 4,4.364 V 188 h 2.6818 v -11.091 c 0,-4.454 -2.375,-6.591 -5.9091,-6.591 -2.6364,0 -4.2727,1.182 -5.0909,2.955 h -0.2273 v -2.728 H 26.9233 V 188 h 2.6818 z m 23.0824,17.409 c 4.1818,0 7.5455,-1.909 7.5455,-6.409 v -17.955 h -2.591 v 2.773 h -0.2727 c -0.5909,-0.909 -1.6818,-3 -5.0909,-3 -4.4091,0 -7.4545,3.5 -7.4545,8.864 0,5.454 3.1818,8.545 7.4091,8.545 3.409,0 4.5,-2 5.0909,-2.954 h 0.2272 v 3.545 c 0,2.909 -2.0454,4.227 -4.8636,4.227 -3.1705,0 -4.2841,-1.67 -5,-2.636 l -2.1364,1.5 c 1.0909,1.83 3.2387,3.5 7.1364,3.5 z m -0.0909,-9.591 c -3.3636,0 -5.0909,-2.545 -5.0909,-6.182 0,-3.545 1.6818,-6.409 5.0909,-6.409 3.2727,0 5,2.637 5,6.409 0,3.864 -1.7727,6.182 -5,6.182 z M 65.142,188 h 2.6819 v -11.045 c 0,-2.364 1.8636,-4.091 4.4091,-4.091 0.7159,0 1.4545,0.136 1.6363,0.181 v -2.727 c -0.3068,-0.023 -1.0113,-0.045 -1.4091,-0.045 -2.0909,0 -3.9091,1.182 -4.5454,2.909 H 67.733 v -2.637 h -2.591 z m 18.6932,0.364 c 3.5455,0 6.1364,-1.773 6.9546,-4.409 l -2.5909,-0.728 c -0.6819,1.818 -2.2614,2.728 -4.3637,2.728 -3.1477,0 -5.3182,-2.035 -5.4432,-5.773 h 12.6705 v -1.137 c 0,-6.5 -3.8636,-8.727 -7.5,-8.727 -4.7273,0 -7.8636,3.727 -7.8636,9.091 0,5.364 3.0909,8.955 8.1363,8.955 z m -5.4432,-10.5 c 0.1819,-2.716 2.1023,-5.137 5.1705,-5.137 2.9091,0 4.7727,2.182 4.7727,5.137 z m 29.114,-3.409 c -0.841,-2.478 -2.728,-4.137 -6.182,-4.137 -3.682,0 -6.4092,2.091 -6.4092,5.046 0,2.409 1.4318,4.022 4.6363,4.772 l 2.9089,0.682 c 1.762,0.409 2.591,1.25 2.591,2.455 0,1.5 -1.591,2.727 -4.091,2.727 -2.193,0 -3.568,-0.943 -4.0452,-2.818 l -2.5455,0.636 c 0.625,2.966 3.0682,4.546 6.6367,4.546 4.056,0 6.818,-2.216 6.818,-5.228 0,-2.431 -1.523,-3.966 -4.636,-4.727 l -2.591,-0.636 c -2.0686,-0.512 -3.0004,-1.205 -3.0004,-2.546 0,-1.5 1.5909,-2.591 3.7274,-2.591 2.341,0 3.307,1.296 3.773,2.5 z m 11.673,13.909 c 3.545,0 6.136,-1.773 6.955,-4.409 l -2.591,-0.728 c -0.682,1.818 -2.262,2.728 -4.364,2.728 -3.148,0 -5.318,-2.035 -5.443,-5.773 h 12.67 v -1.137 c 0,-6.5 -3.863,-8.727 -7.5,-8.727 -4.727,0 -7.863,3.727 -7.863,9.091 0,5.364 3.091,8.955 8.136,8.955 z m -5.443,-10.5 c 0.182,-2.716 2.102,-5.137 5.17,-5.137 2.909,0 4.773,2.182 4.773,5.137 z m 33.068,10.5 c 3.545,0 6.136,-1.773 6.955,-4.409 l -2.591,-0.728 c -0.682,1.818 -2.262,2.728 -4.364,2.728 -3.148,0 -5.318,-2.035 -5.443,-5.773 h 12.67 v -1.137 c 0,-6.5 -3.863,-8.727 -7.5,-8.727 -4.727,0 -7.863,3.727 -7.863,9.091 0,5.364 3.091,8.955 8.136,8.955 z m -5.443,-10.5 c 0.182,-2.716 2.102,-5.137 5.17,-5.137 2.909,0 4.773,2.182 4.773,5.137 z m 19.432,-13.137 h -2.682 V 188 h 2.682 z m 21.502,5.818 h -3.727 v -4.181 h -2.682 v 4.181 h -2.636 v 2.273 h 2.636 v 10.909 c 0,3.046 2.455,4.5 4.728,4.5 1,0 1.636,-0.182 2,-0.318 l -0.546,-2.409 c -0.227,0.045 -0.591,0.136 -1.182,0.136 -1.181,0 -2.318,-0.363 -2.318,-2.636 v -10.182 h 3.727 z m 11.165,17.819 c 3.546,0 6.137,-1.773 6.955,-4.409 l -2.591,-0.728 c -0.682,1.818 -2.262,2.728 -4.364,2.728 -3.148,0 -5.318,-2.035 -5.443,-5.773 h 12.671 v -1.137 c 0,-6.5 -3.864,-8.727 -7.5,-8.727 -4.728,0 -7.864,3.727 -7.864,9.091 0,5.364 3.091,8.955 8.136,8.955 z m -5.443,-10.5 c 0.182,-2.716 2.102,-5.137 5.171,-5.137 2.909,0 4.772,2.182 4.772,5.137 z m 18.281,-7.319 h -3.091 l 5.546,8.728 -5.546,8.727 h 3.091 l 4.182,-6.773 4.182,6.773 h 3.091 l -5.637,-8.727 5.637,-8.728 h -3.091 l -4.182,7.137 z m 22.872,0 h -3.727 v -4.181 h -2.682 v 4.181 h -2.636 v 2.273 h 2.636 v 10.909 c 0,3.046 2.455,4.5 4.728,4.5 1,0 1.636,-0.182 2,-0.318 l -0.546,-2.409 c -0.227,0.045 -0.591,0.136 -1.182,0.136 -1.181,0 -2.318,-0.363 -2.318,-2.636 v -10.182 h 3.727 z m 10.938,17.819 c 4.727,0 7.909,-3.591 7.909,-9 0,-5.455 -3.182,-9.046 -7.909,-9.046 -4.727,0 -7.909,3.591 -7.909,9.046 0,5.409 3.182,9 7.909,9 z m 0,-2.409 c -3.591,0 -5.227,-3.091 -5.227,-6.591 0,-3.5 1.636,-6.637 5.227,-6.637 3.591,0 5.227,3.137 5.227,6.637 0,3.5 -1.636,6.591 -5.227,6.591 z m 26.139,2.454 c 3.046,0 4.637,-1.636 5.182,-2.773 h 0.136 V 188 h 2.682 v -11.5 c 0,-5.545 -4.227,-6.182 -6.454,-6.182 -2.637,0 -5.637,0.909 -7,4.091 l 2.545,0.909 c 0.591,-1.273 1.989,-2.636 4.546,-2.636 2.465,0 3.681,1.307 3.681,3.545 v 0.091 c 0,1.296 -1.318,1.182 -4.5,1.591 -3.238,0.421 -6.772,1.136 -6.772,5.136 0,3.41 2.636,5.364 5.954,5.364 z M 266.656,186 c -2.136,0 -3.682,-0.955 -3.682,-2.818 0,-2.046 1.864,-2.682 3.955,-2.955 1.136,-0.136 4.182,-0.454 4.636,-1 v 2.455 c 0,2.182 -1.727,4.318 -4.909,4.318 z m 27.077,8.545 v -24 h -2.591 v 2.773 h -0.318 c -0.591,-0.909 -1.636,-3 -5.046,-3 -4.409,0 -7.454,3.5 -7.454,9 0,5.546 3.045,9.046 7.409,9.046 3.364,0 4.5,-2.091 5.091,-3.046 h 0.227 v 9.227 z m -2.636,-15.272 c 0,3.954 -1.773,6.682 -5,6.682 -3.364,0 -5.091,-2.955 -5.091,-6.682 0,-3.682 1.682,-6.546 5.091,-6.546 3.272,0 5,2.637 5,6.546 z m 18.545,1.591 c 0,3.272 -2.5,4.772 -4.5,4.772 -2.227,0 -3.818,-1.636 -3.818,-4.181 v -10.91 h -2.682 v 11.091 c 0,4.455 2.364,6.591 5.636,6.591 2.637,0 4.364,-1.409 5.182,-3.182 h 0.182 V 188 h 2.682 v -17.455 h -2.682 z m 7.594,7.136 h 2.682 v -17.455 h -2.682 z m 1.363,-20.364 c 1.046,0 1.91,-0.818 1.91,-1.818 0,-1 -0.864,-1.818 -1.91,-1.818 -1.045,0 -1.909,0.818 -1.909,1.818 0,1 0.864,1.818 1.909,1.818 z"
     fill="#0a3871"
     id="path4" />
  <path
     d="m 16,509 c 0,-13.255 10.7452,-24 24,-24 h 295 c 13.255,0 24,10.745 24,24 v 19 c 0,13.255 -10.745,24 -24,24 H 40 C 26.7452,552 16,541.255 16,528 Z"
     fill="#0a3871"
     id="path6"
     style="fill:#008000" />
  <path
     d="m 154.839,524 h 7.113 v -1.25 h -5.704 v -3.955 h 5.25 v -1.25 h -5.25 v -3.931 h 5.614 v -1.25 h -7.023 z m 10.721,-5.25 c 0,-1.523 0.944,-2.386 2.228,-2.386 1.244,0 2,0.812 2,2.181 V 524 h 1.341 v -5.545 c 0,-2.228 -1.188,-3.296 -2.955,-3.296 -1.318,0 -2.136,0.591 -2.545,1.477 h -0.114 v -1.363 h -1.296 V 524 h 1.341 z m 11.564,5.432 c 1.932,0 3.205,-1.182 3.432,-2.727 h -1.341 c -0.25,0.954 -1.045,1.522 -2.091,1.522 -1.591,0 -2.613,-1.318 -2.613,-3.341 0,-1.977 1.045,-3.272 2.613,-3.272 1.182,0 1.887,0.727 2.091,1.522 h 1.341 c -0.227,-1.636 -1.614,-2.727 -3.454,-2.727 -2.364,0 -3.932,1.864 -3.932,4.523 0,2.613 1.5,4.5 3.954,4.5 z M 182.516,524 h 1.341 v -5.523 c 0,-1.182 0.932,-2.045 2.205,-2.045 0.358,0 0.727,0.068 0.818,0.091 v -1.364 c -0.153,-0.011 -0.506,-0.023 -0.705,-0.023 -1.045,0 -1.954,0.591 -2.272,1.455 h -0.091 v -1.318 h -1.296 z m 5.953,0 h 1.341 v -8.727 h -1.341 z m 0.682,-10.182 c 0.523,0 0.955,-0.409 0.955,-0.909 0,-0.5 -0.432,-0.909 -0.955,-0.909 -0.522,0 -0.954,0.409 -0.954,0.909 0,0.5 0.432,0.909 0.954,0.909 z m 3.115,13.455 h 1.341 v -4.614 h 0.114 c 0.295,0.477 0.864,1.523 2.545,1.523 2.182,0 3.705,-1.75 3.705,-4.523 0,-2.75 -1.523,-4.5 -3.727,-4.5 -1.705,0 -2.228,1.046 -2.523,1.5 h -0.159 v -1.386 h -1.296 z m 1.319,-7.637 c 0,-1.954 0.863,-3.272 2.5,-3.272 1.704,0 2.545,1.431 2.545,3.272 0,1.864 -0.864,3.341 -2.545,3.341 -1.614,0 -2.5,-1.363 -2.5,-3.341 z m 12.227,-4.363 h -1.864 v -2.091 h -1.341 v 2.091 h -1.318 v 1.136 h 1.318 v 5.455 c 0,1.522 1.228,2.25 2.364,2.25 0.5,0 0.818,-0.091 1,-0.159 l -0.273,-1.205 c -0.113,0.023 -0.295,0.068 -0.591,0.068 -0.591,0 -1.159,-0.182 -1.159,-1.318 v -5.091 h 1.864 z m 4.585,8.932 c 1.523,0 2.318,-0.819 2.591,-1.387 h 0.068 V 524 h 1.341 v -5.75 c 0,-2.773 -2.114,-3.091 -3.227,-3.091 -1.318,0 -2.818,0.455 -3.5,2.046 l 1.272,0.454 c 0.296,-0.636 0.995,-1.318 2.273,-1.318 1.233,0 1.841,0.653 1.841,1.773 v 0.045 c 0,0.648 -0.659,0.591 -2.25,0.796 -1.619,0.21 -3.386,0.568 -3.386,2.568 0,1.704 1.318,2.682 2.977,2.682 z M 210.602,523 c -1.069,0 -1.841,-0.477 -1.841,-1.409 0,-1.023 0.931,-1.341 1.977,-1.477 0.568,-0.069 2.091,-0.228 2.318,-0.5 v 1.227 c 0,1.091 -0.864,2.159 -2.454,2.159 z m 6.242,1 h 1.341 v -5.523 c 0,-1.182 0.932,-2.045 2.205,-2.045 0.358,0 0.727,0.068 0.818,0.091 v -1.364 c -0.153,-0.011 -0.506,-0.023 -0.704,-0.023 -1.046,0 -1.955,0.591 -2.273,1.455 h -0.091 v -1.318 h -1.296 z"
     fill="#ffffff"
     id="path8" />
  <path
     d="m 143.969,615 c 3.545,0 5.545,-2.205 5.545,-5.841 0,-3.614 -2,-5.795 -5.386,-5.795 h -3.75 V 615 Z m -2.182,-1.25 v -9.136 h 2.25 c 2.727,0 4.114,1.727 4.114,4.545 0,2.841 -1.387,4.591 -4.273,4.591 z m 13.568,1.432 c 1.773,0 3.068,-0.887 3.477,-2.205 l -1.295,-0.363 c -0.341,0.909 -1.131,1.363 -2.182,1.363 -1.574,0 -2.659,-1.017 -2.721,-2.886 h 6.335 v -0.568 c 0,-3.25 -1.932,-4.364 -3.75,-4.364 -2.364,0 -3.932,1.864 -3.932,4.546 0,2.681 1.545,4.477 4.068,4.477 z m -2.721,-5.25 c 0.09,-1.358 1.051,-2.568 2.585,-2.568 1.454,0 2.386,1.091 2.386,2.568 z m 14.556,-1.705 c -0.42,-1.238 -1.363,-2.068 -3.091,-2.068 -1.84,0 -3.204,1.046 -3.204,2.523 0,1.204 0.716,2.011 2.318,2.386 l 1.455,0.341 c 0.88,0.205 1.295,0.625 1.295,1.227 0,0.75 -0.795,1.364 -2.045,1.364 -1.097,0 -1.784,-0.472 -2.023,-1.409 l -1.273,0.318 c 0.313,1.483 1.534,2.273 3.318,2.273 2.029,0 3.409,-1.108 3.409,-2.614 0,-1.216 -0.761,-1.983 -2.318,-2.363 l -1.295,-0.319 c -1.034,-0.255 -1.5,-0.602 -1.5,-1.272 0,-0.75 0.795,-1.296 1.863,-1.296 1.171,0 1.654,0.648 1.887,1.25 z m 5.837,6.955 c 1.773,0 3.068,-0.887 3.477,-2.205 l -1.295,-0.363 c -0.341,0.909 -1.131,1.363 -2.182,1.363 -1.574,0 -2.659,-1.017 -2.722,-2.886 h 6.336 v -0.568 c 0,-3.25 -1.932,-4.364 -3.75,-4.364 -2.364,0 -3.932,1.864 -3.932,4.546 0,2.681 1.545,4.477 4.068,4.477 z m -2.722,-5.25 c 0.091,-1.358 1.052,-2.568 2.586,-2.568 1.454,0 2.386,1.091 2.386,2.568 z m 9.716,-0.182 c 0,-1.523 0.943,-2.386 2.228,-2.386 1.244,0 2,0.812 2,2.181 V 615 h 1.34 v -5.545 c 0,-2.228 -1.187,-3.296 -2.954,-3.296 -1.318,0 -2.136,0.591 -2.546,1.477 h -0.113 v -1.363 H 178.68 V 615 h 1.341 z m 11.564,5.432 c 1.932,0 3.205,-1.182 3.432,-2.727 h -1.341 c -0.25,0.954 -1.045,1.522 -2.091,1.522 -1.591,0 -2.613,-1.318 -2.613,-3.341 0,-1.977 1.045,-3.272 2.613,-3.272 1.182,0 1.887,0.727 2.091,1.522 h 1.341 c -0.227,-1.636 -1.614,-2.727 -3.455,-2.727 -2.363,0 -3.931,1.864 -3.931,4.523 0,2.613 1.5,4.5 3.954,4.5 z M 196.977,615 h 1.341 v -5.523 c 0,-1.182 0.932,-2.045 2.205,-2.045 0.358,0 0.727,0.068 0.818,0.091 v -1.364 c -0.153,-0.011 -0.506,-0.023 -0.705,-0.023 -1.045,0 -1.954,0.591 -2.272,1.455 h -0.091 v -1.318 h -1.296 z m 5.953,0 h 1.341 v -8.727 h -1.341 z m 0.682,-10.182 c 0.523,0 0.955,-0.409 0.955,-0.909 0,-0.5 -0.432,-0.909 -0.955,-0.909 -0.523,0 -0.954,0.409 -0.954,0.909 0,0.5 0.431,0.909 0.954,0.909 z m 3.115,13.455 h 1.341 v -4.614 h 0.114 c 0.295,0.477 0.863,1.523 2.545,1.523 2.182,0 3.705,-1.75 3.705,-4.523 0,-2.75 -1.523,-4.5 -3.727,-4.5 -1.705,0 -2.228,1.046 -2.523,1.5 h -0.159 v -1.386 h -1.296 z m 1.318,-7.637 c 0,-1.954 0.864,-3.272 2.5,-3.272 1.705,0 2.546,1.431 2.546,3.272 0,1.864 -0.864,3.341 -2.546,3.341 -1.613,0 -2.5,-1.363 -2.5,-3.341 z m 12.228,-4.363 h -1.864 v -2.091 h -1.341 v 2.091 h -1.318 v 1.136 h 1.318 v 5.455 c 0,1.522 1.227,2.25 2.364,2.25 0.5,0 0.818,-0.091 1,-0.159 l -0.273,-1.205 c -0.114,0.023 -0.295,0.068 -0.591,0.068 -0.591,0 -1.159,-0.182 -1.159,-1.318 v -5.091 h 1.864 z m 4.585,8.932 c 1.523,0 2.318,-0.819 2.591,-1.387 h 0.068 V 615 h 1.341 v -5.75 c 0,-2.773 -2.114,-3.091 -3.227,-3.091 -1.319,0 -2.819,0.455 -3.5,2.046 l 1.272,0.454 c 0.296,-0.636 0.995,-1.318 2.273,-1.318 1.233,0 1.841,0.653 1.841,1.773 v 0.045 c 0,0.648 -0.659,0.591 -2.25,0.796 -1.619,0.21 -3.386,0.568 -3.386,2.568 0,1.704 1.318,2.682 2.977,2.682 z M 225.062,614 c -1.068,0 -1.84,-0.477 -1.84,-1.409 0,-1.023 0.931,-1.341 1.977,-1.477 0.568,-0.069 2.091,-0.228 2.318,-0.5 v 1.227 c 0,1.091 -0.864,2.159 -2.455,2.159 z m 6.243,1 h 1.341 v -5.523 c 0,-1.182 0.932,-2.045 2.205,-2.045 0.358,0 0.727,0.068 0.818,0.091 v -1.364 c -0.153,-0.011 -0.506,-0.023 -0.705,-0.023 -1.045,0 -1.954,0.591 -2.272,1.455 h -0.091 v -1.318 h -1.296 z"
     fill="#0a3871"
     id="path10" />
  <path
     d="m 40,577 h 295 v -2 H 40 Z m 318,23 v 19 h 2 v -19 z m -23,42 H 40 v 2 H 335 Z M 17,619 v -19 h -2 v 19 z m 23,23 C 27.2975,642 17,631.703 17,619 h -2 c 0,13.807 11.1929,25 25,25 z m 318,-23 c 0,12.703 -10.297,23 -23,23 v 2 c 13.807,0 25,-11.193 25,-25 z m -23,-42 c 12.703,0 23,10.297 23,23 h 2 c 0,-13.807 -11.193,-25 -25,-25 z M 40,575 c -13.8071,0 -25,11.193 -25,25 h 2 c 0,-12.703 10.2975,-23 23,-23 z"
     fill="#0a3871"
     id="path12" />
  <path
     d="m 32,460 c 0,2.122 -0.8429,4.157 -2.3431,5.657 C 28.1566,467.157 26.1217,468 24,468 21.8783,468 19.8434,467.157 18.3431,465.657 16.8429,464.157 16,462.122 16,460 c 0,-2.122 0.8429,-4.157 2.3431,-5.657 C 19.8434,452.843 21.8783,452 24,452 c 2.1217,0 4.1566,0.843 5.6569,2.343 C 31.1571,455.843 32,457.878 32,460 Z m -8,-4 c -0.1264,0 -0.2514,0.027 -0.3669,0.078 -0.1155,0.051 -0.219,0.126 -0.3038,0.22 -0.0847,0.094 -0.149,0.204 -0.1885,0.324 -0.0395,0.12 -0.0534,0.247 -0.0408,0.373 l 0.35,3.507 c 0.0118,0.138 0.0748,0.266 0.1766,0.36 0.1019,0.093 0.2351,0.145 0.3734,0.145 0.1383,0 0.2715,-0.052 0.3734,-0.145 0.1018,-0.094 0.1648,-0.222 0.1766,-0.36 l 0.35,-3.507 c 0.0126,-0.126 -0.0013,-0.253 -0.0408,-0.373 -0.0395,-0.12 -0.1038,-0.23 -0.1885,-0.324 -0.0848,-0.094 -0.1883,-0.169 -0.3038,-0.22 C 24.2514,456.027 24.1264,456 24,456 Z m 0.002,6 c -0.2652,0 -0.5196,0.105 -0.7071,0.293 -0.1875,0.187 -0.2929,0.442 -0.2929,0.707 0,0.265 0.1054,0.52 0.2929,0.707 0.1875,0.188 0.4419,0.293 0.7071,0.293 0.2652,0 0.5196,-0.105 0.7071,-0.293 0.1875,-0.187 0.2929,-0.442 0.2929,-0.707 0,-0.265 -0.1054,-0.52 -0.2929,-0.707 C 24.5216,462.105 24.2672,462 24.002,462 Z"
     fill="#67808e"
     id="path14" />
  <path
     d="m 45.8295,457.455 h 1.0228 c -0.0469,-1.317 -1.2614,-2.302 -2.9489,-2.302 -1.6704,0 -2.9829,0.972 -2.9829,2.438 0,1.176 0.8522,1.875 2.2159,2.267 l 1.0738,0.307 c 0.9205,0.255 1.7387,0.579 1.7387,1.449 0,0.954 -0.9205,1.585 -2.1307,1.585 -1.0398,0 -1.9602,-0.46 -2.0455,-1.449 h -1.0909 c 0.1023,1.432 1.2614,2.403 3.1364,2.403 2.0113,0 3.1534,-1.108 3.1534,-2.522 0,-1.637 -1.5511,-2.165 -2.4546,-2.404 l -0.8863,-0.238 c -0.6477,-0.171 -1.6875,-0.512 -1.6875,-1.449 0,-0.835 0.767,-1.449 1.9261,-1.449 1.0568,0 1.858,0.503 1.9602,1.364 z m 5.4024,6.681 c 1.7727,0 2.9659,-1.346 2.9659,-3.375 0,-2.045 -1.1932,-3.392 -2.9659,-3.392 -1.7727,0 -2.9659,1.347 -2.9659,3.392 0,2.029 1.1932,3.375 2.9659,3.375 z m 0,-0.903 c -1.3466,0 -1.9602,-1.159 -1.9602,-2.472 0,-1.312 0.6136,-2.488 1.9602,-2.488 1.3466,0 1.9602,1.176 1.9602,2.488 0,1.313 -0.6136,2.472 -1.9602,2.472 z m 5.5067,-7.96 H 55.733 V 464 h 1.0056 z m 4.5011,8.863 c 1.7727,0 2.9659,-1.346 2.9659,-3.375 0,-2.045 -1.1932,-3.392 -2.9659,-3.392 -1.7727,0 -2.9659,1.347 -2.9659,3.392 0,2.029 1.1932,3.375 2.9659,3.375 z m 0,-0.903 c -1.3466,0 -1.9602,-1.159 -1.9602,-2.472 0,-1.312 0.6136,-2.488 1.9602,-2.488 1.3466,0 1.9602,1.176 1.9602,2.488 0,1.313 -0.6136,2.472 -1.9602,2.472 z m 8.8817,-7.96 H 69.1158 V 464 h 1.0056 z m 4.5863,8.863 c 1.3296,0 2.3012,-0.664 2.608,-1.653 l -0.9716,-0.273 c -0.2557,0.682 -0.848,1.023 -1.6364,1.023 -1.1804,0 -1.9943,-0.763 -2.0412,-2.165 h 4.7515 v -0.426 c 0,-2.437 -1.4489,-3.273 -2.8125,-3.273 -1.7728,0 -2.9489,1.398 -2.9489,3.409 0,2.012 1.1591,3.358 3.0511,3.358 z m -2.0412,-3.937 c 0.0682,-1.019 0.7884,-1.926 1.939,-1.926 1.0909,0 1.7897,0.818 1.7897,1.926 z m 9.1279,-2.744 h -1.3977 v -1.569 H 79.391 v 1.569 h -0.9887 v 0.852 h 0.9887 v 4.091 c 0,1.142 0.9204,1.687 1.7727,1.687 0.375,0 0.6136,-0.068 0.75,-0.119 l -0.2045,-0.904 c -0.0853,0.018 -0.2216,0.052 -0.4432,0.052 -0.4432,0 -0.8693,-0.137 -0.8693,-0.989 v -3.818 h 1.3977 z M 83.3072,464 h 1.0057 v -4.142 c 0,-0.886 0.6988,-1.534 1.6534,-1.534 0.2684,0 0.5454,0.051 0.6136,0.068 v -1.023 c -0.1151,-0.008 -0.3793,-0.017 -0.5284,-0.017 -0.7841,0 -1.4659,0.443 -1.7046,1.091 h -0.0681 v -0.988 h -0.9716 z m 6.391,0.153 c 1.142,0 1.7386,-0.613 1.9431,-1.039 h 0.0512 V 464 h 1.0057 v -4.312 c 0,-2.08 -1.5853,-2.319 -2.4205,-2.319 -0.9886,0 -2.1136,0.341 -2.625,1.534 l 0.9545,0.341 c 0.2216,-0.477 0.7458,-0.988 1.7046,-0.988 0.9247,0 1.3807,0.49 1.3807,1.329 v 0.034 c 0,0.486 -0.4943,0.443 -1.6875,0.597 -1.2145,0.158 -2.5398,0.426 -2.5398,1.926 0,1.278 0.9886,2.011 2.233,2.011 z m 0.1534,-0.903 c -0.8012,0 -1.3807,-0.358 -1.3807,-1.057 0,-0.767 0.6988,-1.005 1.4829,-1.108 0.4262,-0.051 1.5682,-0.17 1.7387,-0.375 v 0.921 c 0,0.818 -0.6478,1.619 -1.8409,1.619 z m 9.3185,-4.33 c -0.3153,-0.929 -1.0227,-1.551 -2.3182,-1.551 -1.3807,0 -2.4034,0.784 -2.4034,1.892 0,0.904 0.5369,1.509 1.7386,1.79 l 1.091,0.256 c 0.6605,0.153 0.9715,0.469 0.9715,0.92 0,0.563 -0.5965,1.023 -1.534,1.023 -0.8225,0 -1.3381,-0.354 -1.5171,-1.057 l -0.9545,0.239 c 0.2343,1.112 1.1505,1.704 2.4886,1.704 1.5213,0 2.5568,-0.831 2.5568,-1.96 0,-0.912 -0.571,-1.487 -1.7386,-1.773 l -0.9716,-0.238 c -0.7756,-0.192 -1.125,-0.452 -1.125,-0.955 0,-0.562 0.5966,-0.971 1.3977,-0.971 0.8779,0 1.2401,0.485 1.4148,0.937 z m 5.0079,5.08 h 1.006 v -4.091 c 0,-0.959 0.699,-1.636 1.483,-1.636 0.763,0 1.295,0.498 1.295,1.244 V 464 h 1.023 v -4.261 c 0,-0.844 0.528,-1.466 1.449,-1.466 0.716,0 1.329,0.379 1.329,1.346 V 464 h 1.006 v -4.381 c 0,-1.538 -0.827,-2.25 -1.994,-2.25 -0.938,0 -1.624,0.431 -1.96,1.108 h -0.069 c -0.323,-0.699 -0.894,-1.108 -1.755,-1.108 -0.853,0 -1.483,0.409 -1.756,1.108 h -0.085 v -1.022 h -0.972 z m 10.43,0 h 1.006 v -6.545 h -1.006 z m 0.511,-7.636 c 0.392,0 0.716,-0.307 0.716,-0.682 0,-0.375 -0.324,-0.682 -0.716,-0.682 -0.392,0 -0.716,0.307 -0.716,0.682 0,0.375 0.324,0.682 0.716,0.682 z m 3.342,3.698 c 0,-1.142 0.708,-1.789 1.671,-1.789 0.933,0 1.5,0.609 1.5,1.636 V 464 h 1.005 v -4.159 c 0,-1.671 -0.89,-2.472 -2.215,-2.472 -0.989,0 -1.603,0.443 -1.91,1.108 h -0.085 v -1.022 h -0.971 V 464 h 1.005 z m 10.139,1.262 c 0,1.227 -0.937,1.79 -1.687,1.79 -0.836,0 -1.432,-0.614 -1.432,-1.569 v -4.09 h -1.006 v 4.159 c 0,1.67 0.887,2.471 2.114,2.471 0.988,0 1.636,-0.528 1.943,-1.193 H 128.6 V 464 h 1.006 v -6.545 H 128.6 Z m -2.011,-4.756 h 0.886 l 1.33,-1.977 h -1.176 z m 9.495,2.352 c -0.315,-0.929 -1.023,-1.551 -2.318,-1.551 -1.381,0 -2.403,0.784 -2.403,1.892 0,0.904 0.537,1.509 1.738,1.79 l 1.091,0.256 c 0.661,0.153 0.972,0.469 0.972,0.92 0,0.563 -0.597,1.023 -1.534,1.023 -0.823,0 -1.338,-0.354 -1.517,-1.057 l -0.955,0.239 c 0.234,1.112 1.151,1.704 2.489,1.704 1.521,0 2.556,-0.831 2.556,-1.96 0,-0.912 -0.571,-1.487 -1.738,-1.773 l -0.972,-0.238 c -0.775,-0.192 -1.125,-0.452 -1.125,-0.955 0,-0.562 0.597,-0.971 1.398,-0.971 0.878,0 1.24,0.485 1.415,0.937 z m 4.292,5.216 c 1.449,0 2.404,-0.886 2.574,-2.045 h -1.005 c -0.188,0.716 -0.784,1.142 -1.569,1.142 -1.193,0 -1.96,-0.989 -1.96,-2.506 0,-1.483 0.784,-2.454 1.96,-2.454 0.887,0 1.415,0.545 1.569,1.142 h 1.005 c -0.17,-1.227 -1.21,-2.046 -2.591,-2.046 -1.772,0 -2.948,1.398 -2.948,3.392 0,1.961 1.125,3.375 2.965,3.375 z m 8.169,-2.812 c 0,1.227 -0.937,1.79 -1.687,1.79 -0.835,0 -1.432,-0.614 -1.432,-1.569 v -4.09 h -1.006 v 4.159 c 0,1.67 0.887,2.471 2.114,2.471 0.989,0 1.636,-0.528 1.943,-1.193 h 0.068 V 464 h 1.006 v -6.545 h -1.006 z m 3.854,-6.051 h -1.006 V 464 h 1.006 z m 3.768,8.88 c 1.142,0 1.739,-0.613 1.943,-1.039 h 0.051 V 464 h 1.006 v -4.312 c 0,-2.08 -1.585,-2.319 -2.421,-2.319 -0.988,0 -2.113,0.341 -2.625,1.534 l 0.955,0.341 c 0.222,-0.477 0.746,-0.988 1.705,-0.988 0.924,0 1.38,0.49 1.38,1.329 v 0.034 c 0,0.486 -0.494,0.443 -1.687,0.597 -1.215,0.158 -2.54,0.426 -2.54,1.926 0,1.278 0.989,2.011 2.233,2.011 z m 0.153,-0.903 c -0.801,0 -1.38,-0.358 -1.38,-1.057 0,-0.767 0.698,-1.005 1.483,-1.108 0.426,-0.051 1.568,-0.17 1.738,-0.375 v 0.921 c 0,0.818 -0.648,1.619 -1.841,1.619 z m 9.319,-4.33 c -0.315,-0.929 -1.023,-1.551 -2.318,-1.551 -1.381,0 -2.404,0.784 -2.404,1.892 0,0.904 0.537,1.509 1.739,1.79 l 1.091,0.256 c 0.66,0.153 0.971,0.469 0.971,0.92 0,0.563 -0.596,1.023 -1.534,1.023 -0.822,0 -1.338,-0.354 -1.517,-1.057 l -0.954,0.239 c 0.234,1.112 1.15,1.704 2.488,1.704 1.522,0 2.557,-0.831 2.557,-1.96 0,-0.912 -0.571,-1.487 -1.738,-1.773 l -0.972,-0.238 c -0.776,-0.192 -1.125,-0.452 -1.125,-0.955 0,-0.562 0.597,-0.971 1.398,-0.971 0.878,0 1.24,0.485 1.414,0.937 z m 5.656,7.535 c 0.907,0 1.547,-0.482 1.926,-1.5 l 2.787,-7.483 -1.1,-0.017 -1.806,5.215 h -0.069 l -1.806,-5.215 h -1.091 l 2.42,6.579 -0.187,0.511 c -0.367,0.998 -0.819,1.091 -1.552,0.904 l -0.255,0.886 c 0.102,0.051 0.392,0.12 0.733,0.12 z m 14.055,-7.535 c -0.316,-0.929 -1.023,-1.551 -2.318,-1.551 -1.381,0 -2.404,0.784 -2.404,1.892 0,0.904 0.537,1.509 1.739,1.79 l 1.091,0.256 c 0.66,0.153 0.971,0.469 0.971,0.92 0,0.563 -0.596,1.023 -1.534,1.023 -0.822,0 -1.338,-0.354 -1.517,-1.057 l -0.954,0.239 c 0.234,1.112 1.15,1.704 2.488,1.704 1.522,0 2.557,-0.831 2.557,-1.96 0,-0.912 -0.571,-1.487 -1.739,-1.773 l -0.971,-0.238 c -0.776,-0.192 -1.125,-0.452 -1.125,-0.955 0,-0.562 0.596,-0.971 1.398,-0.971 0.877,0 1.24,0.485 1.414,0.937 z m 1.633,5.08 h 1.006 v -6.545 h -1.006 z m 0.511,-7.636 c 0.392,0 0.716,-0.307 0.716,-0.682 0,-0.375 -0.324,-0.682 -0.716,-0.682 -0.392,0 -0.716,0.307 -0.716,0.682 0,0.375 0.324,0.682 0.716,0.682 z m 3.342,3.698 c 0,-1.142 0.708,-1.789 1.671,-1.789 0.933,0 1.5,0.609 1.5,1.636 V 464 h 1.005 v -4.159 c 0,-1.671 -0.89,-2.472 -2.215,-2.472 -0.989,0 -1.603,0.443 -1.91,1.108 h -0.085 v -1.022 h -0.971 V 464 h 1.005 z m 11.315,4.091 c 1.142,0 1.739,-0.613 1.943,-1.039 h 0.052 V 464 h 1.005 v -4.312 c 0,-2.08 -1.585,-2.319 -2.42,-2.319 -0.989,0 -2.114,0.341 -2.625,1.534 l 0.954,0.341 c 0.222,-0.477 0.746,-0.988 1.705,-0.988 0.925,0 1.381,0.49 1.381,1.329 v 0.034 c 0,0.486 -0.495,0.443 -1.688,0.597 -1.214,0.158 -2.54,0.426 -2.54,1.926 0,1.278 0.989,2.011 2.233,2.011 z m 0.154,-0.903 c -0.801,0 -1.381,-0.358 -1.381,-1.057 0,-0.767 0.699,-1.005 1.483,-1.108 0.426,-0.051 1.568,-0.17 1.739,-0.375 v 0.921 c 0,0.818 -0.648,1.619 -1.841,1.619 z m 7.341,0.886 c 1.449,0 2.403,-0.886 2.574,-2.045 h -1.006 c -0.187,0.716 -0.784,1.142 -1.568,1.142 -1.193,0 -1.96,-0.989 -1.96,-2.506 0,-1.483 0.784,-2.454 1.96,-2.454 0.886,0 1.415,0.545 1.568,1.142 h 1.006 c -0.171,-1.227 -1.21,-2.046 -2.591,-2.046 -1.773,0 -2.949,1.398 -2.949,3.392 0,1.961 1.125,3.375 2.966,3.375 z m 6.788,0 c 1.33,0 2.301,-0.664 2.608,-1.653 l -0.971,-0.273 c -0.256,0.682 -0.848,1.023 -1.637,1.023 -1.18,0 -1.994,-0.763 -2.041,-2.165 h 4.752 v -0.426 c 0,-2.437 -1.449,-3.273 -2.813,-3.273 -1.773,0 -2.949,1.398 -2.949,3.409 0,2.012 1.159,3.358 3.051,3.358 z m -2.041,-3.937 c 0.068,-1.019 0.788,-1.926 1.939,-1.926 1.091,0 1.79,0.818 1.79,1.926 z m 7.287,-0.137 c 0,-1.142 0.707,-1.789 1.67,-1.789 0.934,0 1.5,0.609 1.5,1.636 V 464 h 1.006 v -4.159 c 0,-1.671 -0.89,-2.472 -2.216,-2.472 -0.988,0 -1.602,0.443 -1.909,1.108 h -0.085 v -1.022 h -0.972 V 464 h 1.006 z m 8.86,-2.607 h -1.397 v -1.569 h -1.006 v 1.569 h -0.989 v 0.852 h 0.989 v 4.091 c 0,1.142 0.921,1.687 1.773,1.687 0.375,0 0.613,-0.068 0.75,-0.119 l -0.205,-0.904 c -0.085,0.018 -0.221,0.052 -0.443,0.052 -0.443,0 -0.869,-0.137 -0.869,-0.989 v -3.818 h 1.397 z m 4.102,6.681 c 1.773,0 2.966,-1.346 2.966,-3.375 0,-2.045 -1.193,-3.392 -2.966,-3.392 -1.773,0 -2.966,1.347 -2.966,3.392 0,2.029 1.193,3.375 2.966,3.375 z m 0,-0.903 c -1.347,0 -1.96,-1.159 -1.96,-2.472 0,-1.312 0.613,-2.488 1.96,-2.488 1.347,0 1.96,1.176 1.96,2.488 0,1.313 -0.613,2.472 -1.96,2.472 z m 9.137,-4.313 c -0.315,-0.929 -1.022,-1.551 -2.318,-1.551 -1.38,0 -2.403,0.784 -2.403,1.892 0,0.904 0.537,1.509 1.739,1.79 l 1.09,0.256 c 0.661,0.153 0.972,0.469 0.972,0.92 0,0.563 -0.597,1.023 -1.534,1.023 -0.823,0 -1.338,-0.354 -1.517,-1.057 l -0.955,0.239 c 0.235,1.112 1.151,1.704 2.489,1.704 1.521,0 2.557,-0.831 2.557,-1.96 0,-0.912 -0.571,-1.487 -1.739,-1.773 l -0.971,-0.238 c -0.776,-0.192 -1.125,-0.452 -1.125,-0.955 0,-0.562 0.596,-0.971 1.397,-0.971 0.878,0 1.24,0.485 1.415,0.937 z"
     fill="#495057"
     id="path16" />
  <g
     filter="url(#filter0_d_16_801)"
     id="g24">
    <rect
       x="24"
       y="707"
       width="327"
       height="186"
       rx="32"
       fill="#ffffff"
       id="rect18" />
    <path
       d="m 86.9915,744.545 h -3.6733 v 10.978 H 83.1648 L 75.6307,744.545 H 72.392 V 762 h 3.6904 v -10.986 h 0.1278 L 83.804,762 h 3.1875 z M 89.9723,762 h 3.6307 v -13.091 h -3.6307 z m 1.8239,-14.778 c 1.0824,0 1.9687,-0.827 1.9687,-1.841 0,-1.006 -0.8863,-1.833 -1.9687,-1.833 -1.0739,0 -1.9603,0.827 -1.9603,1.833 0,1.014 0.8864,1.841 1.9603,1.841 z m 8.3458,7.21 c 0.009,-1.688 1.014,-2.676 2.48,-2.676 1.458,0 2.335,0.954 2.327,2.556 V 762 h 3.631 v -8.335 c 0,-3.051 -1.79,-4.926 -4.518,-4.926 -1.943,0 -3.349,0.954 -3.937,2.48 h -0.1534 v -2.31 H 96.5114 V 762 h 3.6306 z m 17.197,12.75 c 3.741,0 6.4,-1.705 6.4,-5.054 v -13.219 h -3.605 v 2.199 h -0.136 c -0.486,-1.065 -1.551,-2.369 -3.742,-2.369 -2.872,0 -5.301,2.233 -5.301,6.69 0,4.355 2.361,6.383 5.31,6.383 2.088,0 3.256,-1.048 3.733,-2.13 h 0.153 v 2.395 c 0,1.798 -1.15,2.497 -2.727,2.497 -1.602,0 -2.412,-0.699 -2.71,-1.492 l -3.358,0.452 c 0.434,2.063 2.454,3.648 5.983,3.648 z m 0.076,-8.097 c -1.781,0 -2.752,-1.415 -2.752,-3.673 0,-2.224 0.954,-3.784 2.752,-3.784 1.765,0 2.753,1.491 2.753,3.784 0,2.31 -1.005,3.673 -2.753,3.673 z m 17.608,-2.659 c 0.009,1.756 -1.193,2.676 -2.497,2.676 -1.372,0 -2.258,-0.963 -2.267,-2.505 v -7.688 h -3.63 v 8.335 c 0.008,3.06 1.798,4.926 4.431,4.926 1.969,0 3.384,-1.014 3.972,-2.548 h 0.136 V 762 h 3.486 v -13.091 h -3.631 z m -3.673,-9.204 h 2.565 l 2.6,-3.878 h -3.358 z m 13.839,7.21 c 0.008,-1.688 1.014,-2.676 2.48,-2.676 1.457,0 2.335,0.954 2.327,2.556 V 762 h 3.63 v -8.335 c 0,-3.051 -1.789,-4.926 -4.517,-4.926 -1.943,0 -3.349,0.954 -3.937,2.48 h -0.154 v -2.31 h -3.46 V 762 h 3.631 z M 162.043,762 h 3.63 v -7.858 c 0,-1.449 0.921,-2.412 2.131,-2.412 1.193,0 1.994,0.818 1.994,2.105 V 762 h 3.52 v -7.994 c 0,-1.355 0.776,-2.276 2.097,-2.276 1.159,0 2.028,0.725 2.028,2.182 V 762 h 3.622 v -8.804 c 0,-2.838 -1.687,-4.457 -4.125,-4.457 -1.917,0 -3.409,0.98 -3.946,2.48 h -0.136 c -0.418,-1.517 -1.756,-2.48 -3.554,-2.48 -1.764,0 -3.102,0.937 -3.648,2.48 h -0.153 v -2.31 h -3.46 z m 27.856,0.256 c 3.239,0 5.421,-1.577 5.932,-4.006 l -3.358,-0.222 c -0.366,0.998 -1.304,1.517 -2.514,1.517 -1.816,0 -2.966,-1.201 -2.966,-3.153 v -0.008 h 8.915 v -0.998 c 0,-4.448 -2.694,-6.647 -6.154,-6.647 -3.852,0 -6.349,2.735 -6.349,6.775 0,4.151 2.463,6.742 6.494,6.742 z m -2.906,-8.122 c 0.077,-1.492 1.21,-2.685 2.821,-2.685 1.577,0 2.668,1.125 2.676,2.685 z m 14.915,0.298 c 0.008,-1.688 1.014,-2.676 2.48,-2.676 1.457,0 2.335,0.954 2.326,2.556 V 762 h 3.631 v -8.335 c 0,-3.051 -1.79,-4.926 -4.517,-4.926 -1.943,0 -3.349,0.954 -3.937,2.48 h -0.154 v -2.31 h -3.46 V 762 h 3.631 z m 22.191,-1.79 c -0.324,-2.412 -2.267,-3.903 -5.574,-3.903 -3.35,0 -5.557,1.551 -5.548,4.073 -0.009,1.961 1.227,3.231 3.784,3.742 l 2.267,0.452 c 1.142,0.23 1.662,0.647 1.679,1.304 -0.017,0.775 -0.861,1.329 -2.131,1.329 -1.295,0 -2.156,-0.554 -2.378,-1.619 l -3.571,0.187 c 0.341,2.506 2.472,4.049 5.94,4.049 3.393,0 5.821,-1.73 5.83,-4.313 -0.009,-1.892 -1.244,-3.025 -3.784,-3.545 l -2.369,-0.478 c -1.219,-0.264 -1.671,-0.681 -1.662,-1.312 -0.009,-0.784 0.878,-1.296 2.003,-1.296 1.261,0 2.011,0.691 2.19,1.535 z m 6.317,9.605 c 1.935,0 3.188,-0.844 3.827,-2.062 h 0.102 V 762 h 3.443 v -8.83 c 0,-3.119 -2.642,-4.431 -5.556,-4.431 -3.137,0 -5.199,1.5 -5.702,3.886 l 3.358,0.273 c 0.247,-0.87 1.023,-1.509 2.326,-1.509 1.236,0 1.944,0.622 1.944,1.696 v 0.051 c 0,0.844 -0.895,0.955 -3.171,1.176 -2.591,0.239 -4.917,1.108 -4.917,4.032 0,2.591 1.849,3.903 4.346,3.903 z m 1.04,-2.506 c -1.117,0 -1.918,-0.519 -1.918,-1.517 0,-1.022 0.844,-1.525 2.123,-1.704 0.792,-0.111 2.088,-0.298 2.522,-0.588 v 1.389 c 0,1.372 -1.133,2.42 -2.727,2.42 z m 9.149,-10.832 v 13.679 c 0,0.989 -0.417,1.483 -1.585,1.483 -0.154,0 -0.29,0 -0.477,-0.017 v 2.838 c 0.264,0.009 0.477,0.017 0.733,0.017 3.085,0 4.96,-1.227 4.96,-4.261 v -13.739 z m 1.807,-1.687 c 1.082,0 1.969,-0.827 1.969,-1.841 0,-1.006 -0.887,-1.833 -1.969,-1.833 -1.074,0 -1.96,0.827 -1.96,1.833 0,1.014 0.886,1.841 1.96,1.841 z m 10.698,15.034 c 3.239,0 5.421,-1.577 5.932,-4.006 l -3.358,-0.222 c -0.367,0.998 -1.304,1.517 -2.514,1.517 -1.816,0 -2.966,-1.201 -2.966,-3.153 v -0.008 h 8.915 v -0.998 c 0,-4.448 -2.694,-6.647 -6.154,-6.647 -3.852,0 -6.349,2.735 -6.349,6.775 0,4.151 2.463,6.742 6.494,6.742 z m -2.906,-8.122 c 0.077,-1.492 1.21,-2.685 2.821,-2.685 1.577,0 2.667,1.125 2.676,2.685 z m 23.878,-5.225 h -2.599 v -0.878 c 0,-0.886 0.358,-1.406 1.423,-1.406 0.435,0 0.878,0.094 1.168,0.187 l 0.639,-2.727 c -0.452,-0.136 -1.449,-0.358 -2.565,-0.358 -2.463,0 -4.296,1.389 -4.296,4.236 v 0.946 h -1.849 v 2.727 h 1.849 V 762 h 3.631 v -10.364 h 2.599 z m 10.613,7.517 c 0.009,1.756 -1.193,2.676 -2.497,2.676 -1.372,0 -2.258,-0.963 -2.267,-2.505 v -7.688 H 276.3 v 8.335 c 0.009,3.06 1.799,4.926 4.432,4.926 1.969,0 3.384,-1.014 3.972,-2.548 h 0.136 V 762 h 3.486 v -13.091 h -3.631 z m 12.501,5.83 c 3.239,0 5.42,-1.577 5.932,-4.006 l -3.358,-0.222 c -0.367,0.998 -1.304,1.517 -2.514,1.517 -1.816,0 -2.966,-1.201 -2.966,-3.153 v -0.008 h 8.915 v -0.998 c 0,-4.448 -2.694,-6.647 -6.154,-6.647 -3.852,0 -6.349,2.735 -6.349,6.775 0,4.151 2.463,6.742 6.494,6.742 z m -2.906,-8.122 c 0.076,-1.492 1.21,-2.685 2.821,-2.685 1.577,0 2.667,1.125 2.676,2.685 z m -167.215,37.122 c 3.239,0 5.42,-1.577 5.932,-4.006 l -3.358,-0.222 c -0.367,0.998 -1.304,1.517 -2.514,1.517 -1.816,0 -2.966,-1.201 -2.966,-3.153 v -0.008 h 8.914 v -0.998 c 0,-4.448 -2.693,-6.647 -6.153,-6.647 -3.852,0 -6.349,2.735 -6.349,6.775 0,4.151 2.463,6.742 6.494,6.742 z m -2.906,-8.122 c 0.076,-1.492 1.21,-2.685 2.821,-2.685 1.576,0 2.667,1.125 2.676,2.685 z m 14.914,0.298 c 0.009,-1.688 1.015,-2.676 2.481,-2.676 1.457,0 2.335,0.954 2.326,2.556 V 791 h 3.631 v -8.335 c 0,-3.051 -1.79,-4.926 -4.517,-4.926 -1.943,0 -3.35,0.954 -3.938,2.48 h -0.153 v -2.31 h -3.46 V 791 h 3.63 z m 17.214,7.824 c 3.486,0 5.676,-2.046 5.847,-5.054 h -3.426 c -0.213,1.397 -1.134,2.182 -2.378,2.182 -1.696,0 -2.796,-1.424 -2.796,-3.929 0,-2.472 1.108,-3.887 2.796,-3.887 1.329,0 2.182,0.878 2.378,2.182 h 3.426 c -0.154,-3.026 -2.446,-5.011 -5.864,-5.011 -3.971,0 -6.426,2.752 -6.426,6.767 0,3.98 2.412,6.75 6.443,6.75 z m 14.086,0 c 3.972,0 6.443,-2.719 6.443,-6.75 0,-4.057 -2.471,-6.767 -6.443,-6.767 -3.971,0 -6.443,2.71 -6.443,6.767 0,4.031 2.472,6.75 6.443,6.75 z m 0.017,-2.813 c -1.832,0 -2.77,-1.679 -2.77,-3.963 0,-2.284 0.938,-3.971 2.77,-3.971 1.799,0 2.736,1.687 2.736,3.971 0,2.284 -0.937,3.963 -2.736,3.963 z m 12.418,-5.011 c 0.008,-1.688 1.014,-2.676 2.48,-2.676 1.457,0 2.335,0.954 2.327,2.556 V 791 h 3.63 v -8.335 c 0,-3.051 -1.789,-4.926 -4.517,-4.926 -1.943,0 -3.349,0.954 -3.937,2.48 h -0.154 v -2.31 h -3.46 V 791 h 3.631 z m 18.262,-5.523 h -2.463 v -3.136 h -3.631 v 3.136 h -1.79 v 2.727 h 1.79 v 6.819 c -0.017,2.565 1.73,3.835 4.364,3.724 0.937,-0.034 1.602,-0.222 1.969,-0.341 l -0.571,-2.702 c -0.179,0.034 -0.563,0.12 -0.904,0.12 -0.724,0 -1.227,-0.273 -1.227,-1.279 v -6.341 h 2.463 z M 203.445,791 h 3.631 v -7.406 c 0,-1.611 1.176,-2.719 2.778,-2.719 0.503,0 1.193,0.085 1.534,0.196 v -3.222 c -0.324,-0.076 -0.775,-0.127 -1.142,-0.127 -1.466,0 -2.668,0.852 -3.145,2.471 h -0.136 v -2.284 h -3.52 z m 13.178,0.247 c 1.935,0 3.188,-0.844 3.827,-2.062 h 0.102 V 791 h 3.443 v -8.83 c 0,-3.119 -2.642,-4.431 -5.556,-4.431 -3.137,0 -5.199,1.5 -5.702,3.886 l 3.358,0.273 c 0.247,-0.87 1.023,-1.509 2.327,-1.509 1.235,0 1.943,0.622 1.943,1.696 v 0.051 c 0,0.844 -0.895,0.955 -3.171,1.176 -2.591,0.239 -4.917,1.108 -4.917,4.032 0,2.591 1.849,3.903 4.346,3.903 z m 1.04,-2.506 c -1.116,0 -1.918,-0.519 -1.918,-1.517 0,-1.022 0.844,-1.525 2.123,-1.704 0.792,-0.111 2.088,-0.298 2.522,-0.588 v 1.389 c 0,1.372 -1.133,2.42 -2.727,2.42 z m 13.973,2.472 c 2.114,0 3.213,-1.219 3.716,-2.31 h 0.153 V 791 h 3.58 v -17.455 h -3.622 v 6.563 h -0.111 c -0.486,-1.065 -1.534,-2.369 -3.725,-2.369 -2.872,0 -5.301,2.233 -5.301,6.733 0,4.38 2.327,6.741 5.31,6.741 z m 1.151,-2.889 c -1.782,0 -2.753,-1.585 -2.753,-3.869 0,-2.267 0.954,-3.827 2.753,-3.827 1.764,0 2.752,1.491 2.752,3.827 0,2.335 -1.005,3.869 -2.752,3.869 z m 15.198,2.932 c 3.971,0 6.443,-2.719 6.443,-6.75 0,-4.057 -2.472,-6.767 -6.443,-6.767 -3.972,0 -6.443,2.71 -6.443,6.767 0,4.031 2.471,6.75 6.443,6.75 z m 0.017,-2.813 c -1.833,0 -2.77,-1.679 -2.77,-3.963 0,-2.284 0.937,-3.971 2.77,-3.971 1.798,0 2.736,1.687 2.736,3.971 0,2.284 -0.938,3.963 -2.736,3.963 z"
       fill="#343a40"
       id="path20" />
    <path
       d="M 86.076,819.364 H 84.6669 V 831 h 1.4091 z m 3.9844,6.386 c 0,-1.523 0.9432,-2.386 2.2272,-2.386 1.2444,0 2,0.812 2,2.181 V 831 h 1.341 v -5.545 c 0,-2.228 -1.1875,-3.296 -2.9546,-3.296 -1.3182,0 -2.1364,0.591 -2.5454,1.477 h -0.1137 v -1.363 H 88.7195 V 831 h 1.3409 z m 11.5416,8.705 c 2.09,0 3.772,-0.955 3.772,-3.205 v -8.977 h -1.295 v 1.386 h -0.137 c -0.295,-0.454 -0.84,-1.5 -2.545,-1.5 -2.2045,0 -3.7273,1.75 -3.7273,4.432 0,2.727 1.591,4.273 3.7043,4.273 1.705,0 2.25,-1 2.546,-1.478 h 0.113 v 1.773 c 0,1.455 -1.022,2.114 -2.431,2.114 -1.586,0 -2.1425,-0.835 -2.5004,-1.318 l -1.0682,0.75 c 0.5454,0.914 1.6193,1.75 3.5686,1.75 z m -0.046,-4.796 c -1.6817,0 -2.5453,-1.273 -2.5453,-3.091 0,-1.773 0.8409,-3.204 2.5453,-3.204 1.636,0 2.5,1.318 2.5,3.204 0,1.932 -0.886,3.091 -2.5,3.091 z m 6.273,1.341 h 1.341 v -5.523 c 0,-1.182 0.932,-2.045 2.204,-2.045 0.358,0 0.728,0.068 0.818,0.091 v -1.364 c -0.153,-0.011 -0.505,-0.023 -0.704,-0.023 -1.046,0 -1.955,0.591 -2.273,1.455 h -0.091 v -1.318 h -1.295 z m 9.346,0.182 c 1.773,0 3.069,-0.887 3.478,-2.205 l -1.296,-0.363 c -0.341,0.909 -1.13,1.363 -2.182,1.363 -1.573,0 -2.659,-1.017 -2.721,-2.886 h 6.335 v -0.568 c 0,-3.25 -1.932,-4.364 -3.75,-4.364 -2.364,0 -3.932,1.864 -3.932,4.546 0,2.681 1.546,4.477 4.068,4.477 z m -2.721,-5.25 c 0.091,-1.358 1.051,-2.568 2.585,-2.568 1.455,0 2.386,1.091 2.386,2.568 z m 14.557,-1.705 c -0.421,-1.238 -1.364,-2.068 -3.091,-2.068 -1.841,0 -3.205,1.046 -3.205,2.523 0,1.204 0.716,2.011 2.318,2.386 l 1.455,0.341 c 0.881,0.205 1.295,0.625 1.295,1.227 0,0.75 -0.795,1.364 -2.045,1.364 -1.097,0 -1.784,-0.472 -2.023,-1.409 l -1.273,0.318 c 0.313,1.483 1.535,2.273 3.319,2.273 2.028,0 3.409,-1.108 3.409,-2.614 0,-1.216 -0.762,-1.983 -2.318,-2.363 l -1.296,-0.319 c -1.034,-0.255 -1.5,-0.602 -1.5,-1.272 0,-0.75 0.796,-1.296 1.864,-1.296 1.17,0 1.653,0.648 1.886,1.25 z m 4.745,6.978 c 1.523,0 2.319,-0.819 2.591,-1.387 h 0.068 V 831 h 1.341 v -5.75 c 0,-2.773 -2.113,-3.091 -3.227,-3.091 -1.318,0 -2.818,0.455 -3.5,2.046 l 1.273,0.454 c 0.295,-0.636 0.994,-1.318 2.273,-1.318 1.233,0 1.84,0.653 1.84,1.773 v 0.045 c 0,0.648 -0.659,0.591 -2.25,0.796 -1.619,0.21 -3.386,0.568 -3.386,2.568 0,1.704 1.318,2.682 2.977,2.682 z M 133.961,830 c -1.068,0 -1.841,-0.477 -1.841,-1.409 0,-1.023 0.932,-1.341 1.977,-1.477 0.568,-0.069 2.091,-0.228 2.318,-0.5 v 1.227 c 0,1.091 -0.863,2.159 -2.454,2.159 z m 14.402,1.182 c 1.773,0 3.068,-0.887 3.477,-2.205 l -1.295,-0.363 c -0.341,0.909 -1.131,1.363 -2.182,1.363 -1.574,0 -2.659,-1.017 -2.722,-2.886 h 6.336 v -0.568 c 0,-3.25 -1.932,-4.364 -3.75,-4.364 -2.364,0 -3.932,1.864 -3.932,4.546 0,2.681 1.545,4.477 4.068,4.477 z m -2.722,-5.25 c 0.091,-1.358 1.051,-2.568 2.586,-2.568 1.454,0 2.386,1.091 2.386,2.568 z m 9.716,-6.568 h -1.341 V 831 h 1.341 z m 10.752,2.909 h -1.864 v -2.091 h -1.341 v 2.091 h -1.318 v 1.136 h 1.318 v 5.455 c 0,1.522 1.227,2.25 2.364,2.25 0.5,0 0.818,-0.091 1,-0.159 l -0.273,-1.205 c -0.114,0.023 -0.295,0.068 -0.591,0.068 -0.591,0 -1.159,-0.182 -1.159,-1.318 v -5.091 h 1.864 z m 5.582,8.909 c 1.773,0 3.068,-0.887 3.477,-2.205 l -1.295,-0.363 c -0.341,0.909 -1.131,1.363 -2.182,1.363 -1.574,0 -2.659,-1.017 -2.722,-2.886 h 6.336 v -0.568 c 0,-3.25 -1.932,-4.364 -3.75,-4.364 -2.364,0 -3.932,1.864 -3.932,4.546 0,2.681 1.545,4.477 4.068,4.477 z m -2.722,-5.25 c 0.091,-1.358 1.052,-2.568 2.586,-2.568 1.454,0 2.386,1.091 2.386,2.568 z m 9.141,-3.659 h -1.545 l 2.772,4.363 -2.772,4.364 h 1.545 l 2.091,-3.386 2.091,3.386 h 1.545 l -2.818,-4.364 2.818,-4.363 h -1.545 l -2.091,3.568 z m 11.436,0 h -1.863 v -2.091 h -1.341 v 2.091 h -1.319 v 1.136 h 1.319 v 5.455 c 0,1.522 1.227,2.25 2.363,2.25 0.5,0 0.818,-0.091 1,-0.159 l -0.272,-1.205 c -0.114,0.023 -0.296,0.068 -0.591,0.068 -0.591,0 -1.159,-0.182 -1.159,-1.318 v -5.091 h 1.863 z m 5.469,8.909 c 2.364,0 3.954,-1.796 3.954,-4.5 0,-2.727 -1.59,-4.523 -3.954,-4.523 -2.364,0 -3.955,1.796 -3.955,4.523 0,2.704 1.591,4.5 3.955,4.5 z m 0,-1.205 c -1.796,0 -2.614,-1.545 -2.614,-3.295 0,-1.75 0.818,-3.318 2.614,-3.318 1.795,0 2.614,1.568 2.614,3.318 0,1.75 -0.819,3.295 -2.614,3.295 z m 17.797,4.296 v -12 h -1.296 v 1.386 h -0.159 c -0.295,-0.454 -0.818,-1.5 -2.522,-1.5 -2.205,0 -3.728,1.75 -3.728,4.5 0,2.773 1.523,4.523 3.705,4.523 1.682,0 2.25,-1.046 2.545,-1.523 h 0.114 v 4.614 z m -1.318,-7.637 c 0,1.978 -0.887,3.341 -2.5,3.341 -1.682,0 -2.546,-1.477 -2.546,-3.341 0,-1.841 0.841,-3.272 2.546,-3.272 1.636,0 2.5,1.318 2.5,3.272 z m 9.272,0.796 c 0,1.636 -1.25,2.386 -2.25,2.386 -1.113,0 -1.909,-0.818 -1.909,-2.091 v -5.454 h -1.341 v 5.545 c 0,2.227 1.182,3.296 2.819,3.296 1.318,0 2.181,-0.705 2.59,-1.591 h 0.091 V 831 h 1.341 v -8.727 h -1.341 z m 7.456,3.75 c 1.773,0 3.068,-0.887 3.478,-2.205 l -1.296,-0.363 c -0.341,0.909 -1.131,1.363 -2.182,1.363 -1.574,0 -2.659,-1.017 -2.721,-2.886 h 6.335 v -0.568 c 0,-3.25 -1.932,-4.364 -3.75,-4.364 -2.364,0 -3.932,1.864 -3.932,4.546 0,2.681 1.546,4.477 4.068,4.477 z m -2.721,-5.25 c 0.091,-1.358 1.051,-2.568 2.585,-2.568 1.454,0 2.386,1.091 2.386,2.568 z m 16.17,5.25 c 1.682,0 2.25,-1.046 2.546,-1.523 h 0.159 V 831 h 1.295 v -11.636 h -1.341 v 4.295 h -0.113 c -0.296,-0.454 -0.819,-1.5 -2.523,-1.5 -2.205,0 -3.727,1.75 -3.727,4.5 0,2.773 1.522,4.523 3.704,4.523 z m 0.182,-1.205 c -1.682,0 -2.545,-1.477 -2.545,-3.341 0,-1.841 0.84,-3.272 2.545,-3.272 1.636,0 2.5,1.318 2.5,3.272 0,1.978 -0.886,3.341 -2.5,3.341 z m 10.119,1.205 c 1.773,0 3.068,-0.887 3.478,-2.205 l -1.296,-0.363 c -0.341,0.909 -1.131,1.363 -2.182,1.363 -1.574,0 -2.659,-1.017 -2.721,-2.886 h 6.335 v -0.568 c 0,-3.25 -1.932,-4.364 -3.75,-4.364 -2.364,0 -3.932,1.864 -3.932,4.546 0,2.681 1.546,4.477 4.068,4.477 z m -2.721,-5.25 c 0.091,-1.358 1.051,-2.568 2.585,-2.568 1.454,0 2.386,1.091 2.386,2.568 z m 14.557,-1.705 c -0.421,-1.238 -1.364,-2.068 -3.091,-2.068 -1.841,0 -3.205,1.046 -3.205,2.523 0,1.204 0.716,2.011 2.318,2.386 l 1.455,0.341 c 0.88,0.205 1.295,0.625 1.295,1.227 0,0.75 -0.795,1.364 -2.045,1.364 -1.097,0 -1.784,-0.472 -2.023,-1.409 l -1.273,0.318 c 0.313,1.483 1.534,2.273 3.319,2.273 2.028,0 3.409,-1.108 3.409,-2.614 0,-1.216 -0.762,-1.983 -2.319,-2.363 l -1.295,-0.319 c -1.034,-0.255 -1.5,-0.602 -1.5,-1.272 0,-0.75 0.795,-1.296 1.864,-1.296 1.17,0 1.653,0.648 1.886,1.25 z m 5.836,6.955 c 1.773,0 3.068,-0.887 3.477,-2.205 l -1.295,-0.363 c -0.341,0.909 -1.131,1.363 -2.182,1.363 -1.574,0 -2.659,-1.017 -2.721,-2.886 h 6.335 v -0.568 c 0,-3.25 -1.932,-4.364 -3.75,-4.364 -2.364,0 -3.932,1.864 -3.932,4.546 0,2.681 1.545,4.477 4.068,4.477 z m -2.721,-5.25 c 0.09,-1.358 1.051,-2.568 2.585,-2.568 1.454,0 2.386,1.091 2.386,2.568 z m 12.034,5.25 c 1.772,0 3.068,-0.887 3.477,-2.205 l -1.296,-0.363 c -0.34,0.909 -1.13,1.363 -2.181,1.363 -1.574,0 -2.659,-1.017 -2.722,-2.886 h 6.335 v -0.568 c 0,-3.25 -1.932,-4.364 -3.75,-4.364 -2.363,0 -3.932,1.864 -3.932,4.546 0,2.681 1.546,4.477 4.069,4.477 z m -2.722,-5.25 c 0.091,-1.358 1.051,-2.568 2.585,-2.568 1.455,0 2.387,1.091 2.387,2.568 z m 14.557,-1.705 c -0.421,-1.238 -1.364,-2.068 -3.091,-2.068 -1.841,0 -3.205,1.046 -3.205,2.523 0,1.204 0.716,2.011 2.319,2.386 l 1.454,0.341 c 0.881,0.205 1.296,0.625 1.296,1.227 0,0.75 -0.796,1.364 -2.046,1.364 -1.096,0 -1.784,-0.472 -2.023,-1.409 l -1.272,0.318 c 0.312,1.483 1.534,2.273 3.318,2.273 2.028,0 3.409,-1.108 3.409,-2.614 0,-1.216 -0.761,-1.983 -2.318,-2.363 l -1.296,-0.319 c -1.034,-0.255 -1.5,-0.602 -1.5,-1.272 0,-0.75 0.796,-1.296 1.864,-1.296 1.17,0 1.653,0.648 1.886,1.25 z M 99.7145,855.182 c 1.7725,0 3.0685,-0.887 3.4775,-2.205 l -1.296,-0.363 c -0.341,0.909 -1.13,1.363 -2.1815,1.363 -1.5739,0 -2.6591,-1.017 -2.7216,-2.886 h 6.3351 v -0.568 c 0,-3.25 -1.932,-4.364 -3.7499,-4.364 -2.3636,0 -3.9318,1.864 -3.9318,4.546 0,2.681 1.5455,4.477 4.0682,4.477 z m -2.7216,-5.25 c 0.0909,-1.358 1.0511,-2.568 2.5852,-2.568 1.4549,0 2.3859,1.091 2.3859,2.568 z m 9.7161,-0.182 c 0,-1.523 0.943,-2.386 2.227,-2.386 1.244,0 2,0.812 2,2.181 V 855 h 1.341 v -5.545 c 0,-2.228 -1.188,-3.296 -2.955,-3.296 -1.318,0 -2.136,0.591 -2.545,1.477 h -0.114 v -1.363 h -1.295 V 855 h 1.341 z m 11.564,5.432 c 1.932,0 3.204,-1.182 3.432,-2.727 h -1.341 c -0.25,0.954 -1.046,1.522 -2.091,1.522 -1.591,0 -2.614,-1.318 -2.614,-3.341 0,-1.977 1.046,-3.272 2.614,-3.272 1.182,0 1.886,0.727 2.091,1.522 h 1.341 c -0.228,-1.636 -1.614,-2.727 -3.455,-2.727 -2.364,0 -3.932,1.864 -3.932,4.523 0,2.613 1.5,4.5 3.955,4.5 z M 123.665,855 h 1.341 v -5.523 c 0,-1.182 0.932,-2.045 2.204,-2.045 0.358,0 0.728,0.068 0.818,0.091 v -1.364 c -0.153,-0.011 -0.505,-0.023 -0.704,-0.023 -1.046,0 -1.955,0.591 -2.273,1.455 h -0.091 v -1.318 h -1.295 z m 5.953,0 h 1.341 v -8.727 h -1.341 z m 0.682,-10.182 c 0.522,0 0.954,-0.409 0.954,-0.909 0,-0.5 -0.432,-0.909 -0.954,-0.909 -0.523,0 -0.955,0.409 -0.955,0.909 0,0.5 0.432,0.909 0.955,0.909 z m 3.115,13.455 h 1.341 v -4.614 h 0.113 c 0.296,0.477 0.864,1.523 2.546,1.523 2.182,0 3.704,-1.75 3.704,-4.523 0,-2.75 -1.522,-4.5 -3.727,-4.5 -1.704,0 -2.227,1.046 -2.523,1.5 h -0.159 v -1.386 h -1.295 z m 1.318,-7.637 c 0,-1.954 0.864,-3.272 2.5,-3.272 1.705,0 2.545,1.431 2.545,3.272 0,1.864 -0.863,3.341 -2.545,3.341 -1.614,0 -2.5,-1.363 -2.5,-3.341 z m 12.227,-4.363 h -1.863 v -2.091 h -1.341 v 2.091 h -1.318 v 1.136 h 1.318 v 5.455 c 0,1.522 1.227,2.25 2.363,2.25 0.5,0 0.819,-0.091 1,-0.159 l -0.272,-1.205 c -0.114,0.023 -0.296,0.068 -0.591,0.068 -0.591,0 -1.159,-0.182 -1.159,-1.318 v -5.091 h 1.863 z m 4.585,8.932 c 1.523,0 2.319,-0.819 2.591,-1.387 h 0.069 V 855 h 1.34 v -5.75 c 0,-2.773 -2.113,-3.091 -3.227,-3.091 -1.318,0 -2.818,0.455 -3.5,2.046 l 1.273,0.454 c 0.295,-0.636 0.994,-1.318 2.273,-1.318 1.233,0 1.841,0.653 1.841,1.773 v 0.045 c 0,0.648 -0.66,0.591 -2.25,0.796 -1.62,0.21 -3.387,0.568 -3.387,2.568 0,1.704 1.318,2.682 2.977,2.682 z M 151.75,854 c -1.068,0 -1.841,-0.477 -1.841,-1.409 0,-1.023 0.932,-1.341 1.977,-1.477 0.569,-0.069 2.091,-0.228 2.319,-0.5 v 1.227 c 0,1.091 -0.864,2.159 -2.455,2.159 z m 6.243,1 h 1.341 v -5.523 c 0,-1.182 0.932,-2.045 2.204,-2.045 0.358,0 0.728,0.068 0.819,0.091 v -1.364 c -0.154,-0.011 -0.506,-0.023 -0.705,-0.023 -1.045,0 -1.955,0.591 -2.273,1.455 h -0.091 v -1.318 h -1.295 z m 13.998,0.182 c 2.364,0 3.955,-1.796 3.955,-4.5 0,-2.727 -1.591,-4.523 -3.955,-4.523 -2.363,0 -3.954,1.796 -3.954,4.523 0,2.704 1.591,4.5 3.954,4.5 z m 0,-1.205 c -1.795,0 -2.613,-1.545 -2.613,-3.295 0,-1.75 0.818,-3.318 2.613,-3.318 1.796,0 2.614,1.568 2.614,3.318 0,1.75 -0.818,3.295 -2.614,3.295 z m 13.797,1.205 c 1.682,0 2.25,-1.046 2.546,-1.523 h 0.159 V 855 h 1.295 v -11.636 h -1.341 v 4.295 h -0.113 c -0.296,-0.454 -0.818,-1.5 -2.523,-1.5 -2.204,0 -3.727,1.75 -3.727,4.5 0,2.773 1.523,4.523 3.704,4.523 z m 0.182,-1.205 c -1.682,0 -2.545,-1.477 -2.545,-3.341 0,-1.841 0.841,-3.272 2.545,-3.272 1.637,0 2.5,1.318 2.5,3.272 0,1.978 -0.886,3.341 -2.5,3.341 z m 10.119,1.205 c 1.773,0 3.069,-0.887 3.478,-2.205 l -1.296,-0.363 c -0.341,0.909 -1.13,1.363 -2.182,1.363 -1.573,0 -2.659,-1.017 -2.721,-2.886 h 6.335 v -0.568 c 0,-3.25 -1.932,-4.364 -3.75,-4.364 -2.364,0 -3.932,1.864 -3.932,4.546 0,2.681 1.546,4.477 4.068,4.477 z m -2.721,-5.25 c 0.091,-1.358 1.051,-2.568 2.585,-2.568 1.455,0 2.386,1.091 2.386,2.568 z m 14.557,-1.705 c -0.421,-1.238 -1.364,-2.068 -3.091,-2.068 -1.841,0 -3.205,1.046 -3.205,2.523 0,1.204 0.716,2.011 2.318,2.386 l 1.455,0.341 c 0.881,0.205 1.295,0.625 1.295,1.227 0,0.75 -0.795,1.364 -2.045,1.364 -1.097,0 -1.784,-0.472 -2.023,-1.409 l -1.272,0.318 c 0.312,1.483 1.534,2.273 3.318,2.273 2.028,0 3.409,-1.108 3.409,-2.614 0,-1.216 -0.762,-1.983 -2.318,-2.363 l -1.296,-0.319 c -1.034,-0.255 -1.5,-0.602 -1.5,-1.272 0,-0.75 0.796,-1.296 1.864,-1.296 1.17,0 1.653,0.648 1.886,1.25 z m 5.836,6.955 c 1.773,0 3.069,-0.887 3.478,-2.205 l -1.296,-0.363 c -0.341,0.909 -1.131,1.363 -2.182,1.363 -1.573,0 -2.659,-1.017 -2.721,-2.886 h 6.335 v -0.568 c 0,-3.25 -1.932,-4.364 -3.75,-4.364 -2.364,0 -3.932,1.864 -3.932,4.546 0,2.681 1.546,4.477 4.068,4.477 z m -2.721,-5.25 c 0.091,-1.358 1.051,-2.568 2.585,-2.568 1.455,0 2.386,1.091 2.386,2.568 z m 9.716,-0.182 c 0,-1.523 0.943,-2.386 2.227,-2.386 1.244,0 2,0.812 2,2.181 V 855 h 1.341 v -5.545 c 0,-2.228 -1.188,-3.296 -2.955,-3.296 -1.318,0 -2.136,0.591 -2.545,1.477 h -0.114 v -1.363 h -1.295 V 855 h 1.341 z m 11.564,5.432 c 1.931,0 3.204,-1.182 3.431,-2.727 h -1.34 c -0.25,0.954 -1.046,1.522 -2.091,1.522 -1.591,0 -2.614,-1.318 -2.614,-3.341 0,-1.977 1.045,-3.272 2.614,-3.272 1.181,0 1.886,0.727 2.091,1.522 h 1.34 c -0.227,-1.636 -1.613,-2.727 -3.454,-2.727 -2.364,0 -3.932,1.864 -3.932,4.523 0,2.613 1.5,4.5 3.955,4.5 z M 237.712,855 h 1.341 v -5.523 c 0,-1.182 0.931,-2.045 2.204,-2.045 0.358,0 0.727,0.068 0.818,0.091 v -1.364 c -0.153,-0.011 -0.505,-0.023 -0.704,-0.023 -1.046,0 -1.955,0.591 -2.273,1.455 h -0.091 v -1.318 h -1.295 z m 5.953,0 h 1.341 v -8.727 h -1.341 z m 0.682,-10.182 c 0.522,0 0.954,-0.409 0.954,-0.909 0,-0.5 -0.432,-0.909 -0.954,-0.909 -0.523,0 -0.955,0.409 -0.955,0.909 0,0.5 0.432,0.909 0.955,0.909 z m 3.115,13.455 h 1.341 v -4.614 h 0.113 c 0.296,0.477 0.864,1.523 2.546,1.523 2.181,0 3.704,-1.75 3.704,-4.523 0,-2.75 -1.523,-4.5 -3.727,-4.5 -1.705,0 -2.227,1.046 -2.523,1.5 h -0.159 v -1.386 h -1.295 z m 1.318,-7.637 c 0,-1.954 0.863,-3.272 2.5,-3.272 1.704,0 2.545,1.431 2.545,3.272 0,1.864 -0.863,3.341 -2.545,3.341 -1.614,0 -2.5,-1.363 -2.5,-3.341 z m 12.227,-4.363 h -1.864 v -2.091 h -1.34 v 2.091 h -1.319 v 1.136 h 1.319 v 5.455 c 0,1.522 1.227,2.25 2.363,2.25 0.5,0 0.818,-0.091 1,-0.159 l -0.273,-1.205 c -0.113,0.023 -0.295,0.068 -0.59,0.068 -0.591,0 -1.16,-0.182 -1.16,-1.318 v -5.091 h 1.864 z m 4.585,8.932 c 1.523,0 2.319,-0.819 2.591,-1.387 h 0.068 V 855 h 1.341 v -5.75 c 0,-2.773 -2.113,-3.091 -3.227,-3.091 -1.318,0 -2.818,0.455 -3.5,2.046 l 1.273,0.454 c 0.295,-0.636 0.994,-1.318 2.273,-1.318 1.232,0 1.84,0.653 1.84,1.773 v 0.045 c 0,0.648 -0.659,0.591 -2.25,0.796 -1.619,0.21 -3.386,0.568 -3.386,2.568 0,1.704 1.318,2.682 2.977,2.682 z M 265.797,854 c -1.068,0 -1.841,-0.477 -1.841,-1.409 0,-1.023 0.932,-1.341 1.977,-1.477 0.568,-0.069 2.091,-0.228 2.318,-0.5 v 1.227 c 0,1.091 -0.863,2.159 -2.454,2.159 z m 6.243,1 h 1.341 v -5.523 c 0,-1.182 0.931,-2.045 2.204,-2.045 0.358,0 0.727,0.068 0.818,0.091 v -1.364 c -0.153,-0.011 -0.505,-0.023 -0.704,-0.023 -1.046,0 -1.955,0.591 -2.273,1.455 h -0.091 v -1.318 h -1.295 z m 5.93,0.091 c 0.563,0 1.023,-0.46 1.023,-1.023 0,-0.562 -0.46,-1.023 -1.023,-1.023 -0.562,0 -1.023,0.461 -1.023,1.023 0,0.563 0.461,1.023 1.023,1.023 z"
       fill="#495057"
       id="path22" />
  </g>
  <path
     fill-rule="evenodd"
     clip-rule="evenodd"
     d="m 40.084,47.6529 c -0.0447,0.2782 -0.1536,0.543 -0.3186,0.7746 -0.165,0.2315 -0.3818,0.4237 -0.6341,0.5623 -0.5082,0.3188 -0.9528,0.4782 -1.4027,0.6376 -0.9581,0.3214 -1.9665,0.6428 -3.033,1.0156 -1.1248,0.3727 -2.1332,0.7455 -3.033,1.0155 -1.1222,0.3728 -2.1888,0.6941 -3.2024,1.0669 -0.7626,0.3171 -1.479,0.7302 -2.1305,1.229 -0.606,0.5333 -1.1348,1.1439 -1.5721,1.8151 -0.4499,0.7455 -0.7331,1.7071 -0.7331,2.828 0,2.2445 0.5611,3.9516 1.6859,5.0186 1.1221,1.1235 3.2023,1.6557 6.2856,1.6557 3.1442,0 5.2773,-0.5862 6.4048,-1.7611 1.1195,-1.175 1.6806,-2.8281 1.6806,-4.962 V 47.6529 Z M 31.9987,24 c 5.5049,0 9.5463,1.0155 12.1267,3.098 C 46.7085,29.1291 48,31.7412 48,34.8366 v 26.3782 c 0,1.0669 -0.2223,2.2419 -0.614,3.5222 -0.397,1.2855 -1.1804,2.4579 -2.4164,3.5222 -1.1777,1.0721 -2.8053,1.9797 -4.8829,2.6738 C 38.0091,71.6272 35.3149,72 32.0013,72 28.6931,72 25.9935,71.6272 23.9186,70.933 21.8437,70.2389 20.2134,69.3313 19.0356,68.2592 17.94,67.3001 17.1101,66.089 16.622,64.737 16.225,63.4592 16,62.2843 16,61.2174 V 57.001 c 0,-2.2445 0.6167,-4.327 1.8526,-6.1447 1.236,-1.8665 2.9748,-3.1468 5.2218,-3.949 1.1221,-0.3728 2.4136,-0.7455 3.8719,-1.2263 1.4609,-0.4834 2.8054,-0.9641 4.1552,-1.3883 1.3497,-0.4294 2.5275,-0.8587 3.5358,-1.2341 0.6085,-0.2365 1.2266,-0.4492 1.8527,-0.6376 l 1.0109,-0.4808 c 0.397,-0.2134 0.7861,-0.5347 1.1804,-0.9615 0.3917,-0.4242 0.7278,-0.905 1.011,-1.4398 0.2992,-0.579 0.4534,-1.2186 0.45,-1.8665 V 35.9627 C 40.1464,35.3361 40.011,34.716 39.7453,34.145 39.523,33.5023 39.073,32.9161 38.4564,32.3839 c -0.6167,-0.5347 -1.4609,-0.9615 -2.4693,-1.2855 -1.011,-0.3162 -2.3555,-0.4782 -3.8746,-0.4782 -3.1442,0 -5.2218,0.5914 -6.3439,1.8152 -0.9528,1.0695 -1.5139,2.4038 -1.625,3.8975 0,0.3214 -0.2806,0.5348 -0.6193,0.5348 l -6.8468,0.108 c -0.1626,7e-4 -0.3189,-0.0611 -0.4349,-0.1718 -0.116,-0.1108 -0.1823,-0.2616 -0.1844,-0.4195 v -1.5426 c 0,-1.4989 0.2832,-2.8872 0.8999,-4.2216 0.6193,-1.3369 1.5747,-2.4552 2.8636,-3.4193 1.2915,-0.959 2.9774,-1.7586 4.9968,-2.2933 C 26.7849,24.2648 29.1986,24 32.004,24 Z"
     fill="#0a3871"
     id="path26" />
  <defs
     id="defs52">
    <filter
       id="filter0_d_16_801"
       x="0"
       y="707"
       width="375"
       height="234"
       filterUnits="userSpaceOnUse"
       color-interpolation-filters="sRGB">
      <feFlood
         flood-opacity="0"
         result="BackgroundImageFix"
         id="feFlood30" />
      <feColorMatrix
         in="SourceAlpha"
         type="matrix"
         values="0 0 0 0 0 0 0 0 0 0 0 0 0 0 0 0 0 0 127 0"
         result="hardAlpha"
         id="feColorMatrix32" />
      <feMorphology
         radius="8"
         operator="erode"
         in="SourceAlpha"
         result="effect1_dropShadow_16_801"
         id="feMorphology34" />
      <feOffset
         dy="24"
         id="feOffset36" />
      <feGaussianBlur
         stdDeviation="16"
         id="feGaussianBlur38" />
      <feComposite
         in2="hardAlpha"
         operator="out"
         id="feComposite40" />
      <feColorMatrix
         type="matrix"
         values="0 0 0 0 0 0 0 0 0 0 0 0 0 0 0 0 0 0 0.08 0"
         id="feColorMatrix42" />
      <feBlend
         mode="normal"
         in2="BackgroundImageFix"
         result="effect1_dropShadow_16_801"
         id="feBlend44" />
      <feBlend
         mode="normal"
         in="SourceGraphic"
         in2="effect1_dropShadow_16_801"
         result="shape"
         id="feBlend46" />
    </filter>
    <clipPath
       id="clip0_16_801">
      <rect
         width="375"
         height="933"
         fill="white"
         id="rect49" />
    </clipPath>
  </defs>
</svg>
