<svg width="375" height="933" viewBox="0 0 375 933" fill="none" xmlns="http://www.w3.org/2000/svg">
<g clip-path="url(#clip0_16_801)">
<rect width="375" height="933" fill="#F3F5FC"/>
<path d="M21.6364 164.727H18.8182V188H21.6364V164.727ZM29.6051 177.5C29.6051 174.455 31.4915 172.727 34.0597 172.727C36.5483 172.727 38.0597 174.352 38.0597 177.091V188H40.7415V176.909C40.7415 172.455 38.3665 170.318 34.8324 170.318C32.196 170.318 30.5597 171.5 29.7415 173.273H29.5142V170.545H26.9233V188H29.6051V177.5ZM52.6875 194.909C56.8693 194.909 60.233 193 60.233 188.5V170.545H57.642V173.318H57.3693C56.7784 172.409 55.6875 170.318 52.2784 170.318C47.8693 170.318 44.8239 173.818 44.8239 179.182C44.8239 184.636 48.0057 187.727 52.233 187.727C55.642 187.727 56.733 185.727 57.3239 184.773H57.5511V188.318C57.5511 191.227 55.5057 192.545 52.6875 192.545C49.517 192.545 48.4034 190.875 47.6875 189.909L45.5511 191.409C46.642 193.239 48.7898 194.909 52.6875 194.909ZM52.5966 185.318C49.233 185.318 47.5057 182.773 47.5057 179.136C47.5057 175.591 49.1875 172.727 52.5966 172.727C55.8693 172.727 57.5966 175.364 57.5966 179.136C57.5966 183 55.8239 185.318 52.5966 185.318ZM65.142 188H67.8239V176.955C67.8239 174.591 69.6875 172.864 72.233 172.864C72.9489 172.864 73.6875 173 73.8693 173.045V170.318C73.5625 170.295 72.858 170.273 72.4602 170.273C70.3693 170.273 68.5511 171.455 67.9148 173.182H67.733V170.545H65.142V188ZM83.8352 188.364C87.3807 188.364 89.9716 186.591 90.7898 183.955L88.1989 183.227C87.517 185.045 85.9375 185.955 83.8352 185.955C80.6875 185.955 78.517 183.92 78.392 180.182H91.0625V179.045C91.0625 172.545 87.1989 170.318 83.5625 170.318C78.8352 170.318 75.6989 174.045 75.6989 179.409C75.6989 184.773 78.7898 188.364 83.8352 188.364ZM78.392 177.864C78.5739 175.148 80.4943 172.727 83.5625 172.727C86.4716 172.727 88.3352 174.909 88.3352 177.864H78.392ZM107.506 174.455C106.665 171.977 104.778 170.318 101.324 170.318C97.642 170.318 94.9148 172.409 94.9148 175.364C94.9148 177.773 96.3466 179.386 99.5511 180.136L102.46 180.818C104.222 181.227 105.051 182.068 105.051 183.273C105.051 184.773 103.46 186 100.96 186C98.767 186 97.392 185.057 96.9148 183.182L94.3693 183.818C94.9943 186.784 97.4375 188.364 101.006 188.364C105.062 188.364 107.824 186.148 107.824 183.136C107.824 180.705 106.301 179.17 103.188 178.409L100.597 177.773C98.5284 177.261 97.5966 176.568 97.5966 175.227C97.5966 173.727 99.1875 172.636 101.324 172.636C103.665 172.636 104.631 173.932 105.097 175.136L107.506 174.455ZM119.179 188.364C122.724 188.364 125.315 186.591 126.134 183.955L123.543 183.227C122.861 185.045 121.281 185.955 119.179 185.955C116.031 185.955 113.861 183.92 113.736 180.182H126.406V179.045C126.406 172.545 122.543 170.318 118.906 170.318C114.179 170.318 111.043 174.045 111.043 179.409C111.043 184.773 114.134 188.364 119.179 188.364ZM113.736 177.864C113.918 175.148 115.838 172.727 118.906 172.727C121.815 172.727 123.679 174.909 123.679 177.864H113.736ZM146.804 188.364C150.349 188.364 152.94 186.591 153.759 183.955L151.168 183.227C150.486 185.045 148.906 185.955 146.804 185.955C143.656 185.955 141.486 183.92 141.361 180.182H154.031V179.045C154.031 172.545 150.168 170.318 146.531 170.318C141.804 170.318 138.668 174.045 138.668 179.409C138.668 184.773 141.759 188.364 146.804 188.364ZM141.361 177.864C141.543 175.148 143.463 172.727 146.531 172.727C149.44 172.727 151.304 174.909 151.304 177.864H141.361ZM160.793 164.727H158.111V188H160.793V164.727ZM182.295 170.545H178.568V166.364H175.886V170.545H173.25V172.818H175.886V183.727C175.886 186.773 178.341 188.227 180.614 188.227C181.614 188.227 182.25 188.045 182.614 187.909L182.068 185.5C181.841 185.545 181.477 185.636 180.886 185.636C179.705 185.636 178.568 185.273 178.568 183V172.818H182.295V170.545ZM193.46 188.364C197.006 188.364 199.597 186.591 200.415 183.955L197.824 183.227C197.142 185.045 195.562 185.955 193.46 185.955C190.312 185.955 188.142 183.92 188.017 180.182H200.688V179.045C200.688 172.545 196.824 170.318 193.188 170.318C188.46 170.318 185.324 174.045 185.324 179.409C185.324 184.773 188.415 188.364 193.46 188.364ZM188.017 177.864C188.199 175.148 190.119 172.727 193.188 172.727C196.097 172.727 197.96 174.909 197.96 177.864H188.017ZM206.298 170.545H203.207L208.753 179.273L203.207 188H206.298L210.48 181.227L214.662 188H217.753L212.116 179.273L217.753 170.545H214.662L210.48 177.682L206.298 170.545ZM229.17 170.545H225.443V166.364H222.761V170.545H220.125V172.818H222.761V183.727C222.761 186.773 225.216 188.227 227.489 188.227C228.489 188.227 229.125 188.045 229.489 187.909L228.943 185.5C228.716 185.545 228.352 185.636 227.761 185.636C226.58 185.636 225.443 185.273 225.443 183V172.818H229.17V170.545ZM240.108 188.364C244.835 188.364 248.017 184.773 248.017 179.364C248.017 173.909 244.835 170.318 240.108 170.318C235.381 170.318 232.199 173.909 232.199 179.364C232.199 184.773 235.381 188.364 240.108 188.364ZM240.108 185.955C236.517 185.955 234.881 182.864 234.881 179.364C234.881 175.864 236.517 172.727 240.108 172.727C243.699 172.727 245.335 175.864 245.335 179.364C245.335 182.864 243.699 185.955 240.108 185.955ZM266.247 188.409C269.293 188.409 270.884 186.773 271.429 185.636H271.565V188H274.247V176.5C274.247 170.955 270.02 170.318 267.793 170.318C265.156 170.318 262.156 171.227 260.793 174.409L263.338 175.318C263.929 174.045 265.327 172.682 267.884 172.682C270.349 172.682 271.565 173.989 271.565 176.227V176.318C271.565 177.614 270.247 177.5 267.065 177.909C263.827 178.33 260.293 179.045 260.293 183.045C260.293 186.455 262.929 188.409 266.247 188.409ZM266.656 186C264.52 186 262.974 185.045 262.974 183.182C262.974 181.136 264.838 180.5 266.929 180.227C268.065 180.091 271.111 179.773 271.565 179.227V181.682C271.565 183.864 269.838 186 266.656 186ZM293.733 194.545V170.545H291.142V173.318H290.824C290.233 172.409 289.188 170.318 285.778 170.318C281.369 170.318 278.324 173.818 278.324 179.318C278.324 184.864 281.369 188.364 285.733 188.364C289.097 188.364 290.233 186.273 290.824 185.318H291.051V194.545H293.733ZM291.097 179.273C291.097 183.227 289.324 185.955 286.097 185.955C282.733 185.955 281.006 183 281.006 179.273C281.006 175.591 282.688 172.727 286.097 172.727C289.369 172.727 291.097 175.364 291.097 179.273ZM309.642 180.864C309.642 184.136 307.142 185.636 305.142 185.636C302.915 185.636 301.324 184 301.324 181.455V170.545H298.642V181.636C298.642 186.091 301.006 188.227 304.278 188.227C306.915 188.227 308.642 186.818 309.46 185.045H309.642V188H312.324V170.545H309.642V180.864ZM317.236 188H319.918V170.545H317.236V188ZM318.599 167.636C319.645 167.636 320.509 166.818 320.509 165.818C320.509 164.818 319.645 164 318.599 164C317.554 164 316.69 164.818 316.69 165.818C316.69 166.818 317.554 167.636 318.599 167.636Z" fill="#0A3871"/>
<path d="M16 509C16 495.745 26.7452 485 40 485H335C348.255 485 359 495.745 359 509V528C359 541.255 348.255 552 335 552H40C26.7452 552 16 541.255 16 528V509Z" fill="#0A3871"/>
<path d="M154.839 524H161.952V522.75H156.248V518.795H161.498V517.545H156.248V513.614H161.862V512.364H154.839V524ZM165.56 518.75C165.56 517.227 166.504 516.364 167.788 516.364C169.032 516.364 169.788 517.176 169.788 518.545V524H171.129V518.455C171.129 516.227 169.941 515.159 168.174 515.159C166.856 515.159 166.038 515.75 165.629 516.636H165.515V515.273H164.219V524H165.56V518.75ZM177.124 524.182C179.056 524.182 180.329 523 180.556 521.455H179.215C178.965 522.409 178.17 522.977 177.124 522.977C175.533 522.977 174.511 521.659 174.511 519.636C174.511 517.659 175.556 516.364 177.124 516.364C178.306 516.364 179.011 517.091 179.215 517.886H180.556C180.329 516.25 178.942 515.159 177.102 515.159C174.738 515.159 173.17 517.023 173.17 519.682C173.17 522.295 174.67 524.182 177.124 524.182ZM182.516 524H183.857V518.477C183.857 517.295 184.789 516.432 186.062 516.432C186.42 516.432 186.789 516.5 186.88 516.523V515.159C186.727 515.148 186.374 515.136 186.175 515.136C185.13 515.136 184.221 515.727 183.903 516.591H183.812V515.273H182.516V524ZM188.469 524H189.81V515.273H188.469V524ZM189.151 513.818C189.674 513.818 190.106 513.409 190.106 512.909C190.106 512.409 189.674 512 189.151 512C188.629 512 188.197 512.409 188.197 512.909C188.197 513.409 188.629 513.818 189.151 513.818ZM192.266 527.273H193.607V522.659H193.721C194.016 523.136 194.585 524.182 196.266 524.182C198.448 524.182 199.971 522.432 199.971 519.659C199.971 516.909 198.448 515.159 196.244 515.159C194.539 515.159 194.016 516.205 193.721 516.659H193.562V515.273H192.266V527.273ZM193.585 519.636C193.585 517.682 194.448 516.364 196.085 516.364C197.789 516.364 198.63 517.795 198.63 519.636C198.63 521.5 197.766 522.977 196.085 522.977C194.471 522.977 193.585 521.614 193.585 519.636ZM205.812 515.273H203.948V513.182H202.607V515.273H201.289V516.409H202.607V521.864C202.607 523.386 203.835 524.114 204.971 524.114C205.471 524.114 205.789 524.023 205.971 523.955L205.698 522.75C205.585 522.773 205.403 522.818 205.107 522.818C204.516 522.818 203.948 522.636 203.948 521.5V516.409H205.812V515.273ZM210.397 524.205C211.92 524.205 212.715 523.386 212.988 522.818H213.056V524H214.397V518.25C214.397 515.477 212.283 515.159 211.17 515.159C209.852 515.159 208.352 515.614 207.67 517.205L208.942 517.659C209.238 517.023 209.937 516.341 211.215 516.341C212.448 516.341 213.056 516.994 213.056 518.114V518.159C213.056 518.807 212.397 518.75 210.806 518.955C209.187 519.165 207.42 519.523 207.42 521.523C207.42 523.227 208.738 524.205 210.397 524.205ZM210.602 523C209.533 523 208.761 522.523 208.761 521.591C208.761 520.568 209.692 520.25 210.738 520.114C211.306 520.045 212.829 519.886 213.056 519.614V520.841C213.056 521.932 212.192 523 210.602 523ZM216.844 524H218.185V518.477C218.185 517.295 219.117 516.432 220.39 516.432C220.748 516.432 221.117 516.5 221.208 516.523V515.159C221.055 515.148 220.702 515.136 220.504 515.136C219.458 515.136 218.549 515.727 218.231 516.591H218.14V515.273H216.844V524Z" fill="white"/>
<path d="M143.969 615C147.514 615 149.514 612.795 149.514 609.159C149.514 605.545 147.514 603.364 144.128 603.364H140.378V615H143.969ZM141.787 613.75V604.614H144.037C146.764 604.614 148.151 606.341 148.151 609.159C148.151 612 146.764 613.75 143.878 613.75H141.787ZM155.355 615.182C157.128 615.182 158.423 614.295 158.832 612.977L157.537 612.614C157.196 613.523 156.406 613.977 155.355 613.977C153.781 613.977 152.696 612.96 152.634 611.091H158.969V610.523C158.969 607.273 157.037 606.159 155.219 606.159C152.855 606.159 151.287 608.023 151.287 610.705C151.287 613.386 152.832 615.182 155.355 615.182ZM152.634 609.932C152.724 608.574 153.685 607.364 155.219 607.364C156.673 607.364 157.605 608.455 157.605 609.932H152.634ZM167.19 608.227C166.77 606.989 165.827 606.159 164.099 606.159C162.259 606.159 160.895 607.205 160.895 608.682C160.895 609.886 161.611 610.693 163.213 611.068L164.668 611.409C165.548 611.614 165.963 612.034 165.963 612.636C165.963 613.386 165.168 614 163.918 614C162.821 614 162.134 613.528 161.895 612.591L160.622 612.909C160.935 614.392 162.156 615.182 163.94 615.182C165.969 615.182 167.349 614.074 167.349 612.568C167.349 611.352 166.588 610.585 165.031 610.205L163.736 609.886C162.702 609.631 162.236 609.284 162.236 608.614C162.236 607.864 163.031 607.318 164.099 607.318C165.27 607.318 165.753 607.966 165.986 608.568L167.19 608.227ZM173.027 615.182C174.8 615.182 176.095 614.295 176.504 612.977L175.209 612.614C174.868 613.523 174.078 613.977 173.027 613.977C171.453 613.977 170.368 612.96 170.305 611.091H176.641V610.523C176.641 607.273 174.709 606.159 172.891 606.159C170.527 606.159 168.959 608.023 168.959 610.705C168.959 613.386 170.504 615.182 173.027 615.182ZM170.305 609.932C170.396 608.574 171.357 607.364 172.891 607.364C174.345 607.364 175.277 608.455 175.277 609.932H170.305ZM180.021 609.75C180.021 608.227 180.964 607.364 182.249 607.364C183.493 607.364 184.249 608.176 184.249 609.545V615H185.589V609.455C185.589 607.227 184.402 606.159 182.635 606.159C181.317 606.159 180.499 606.75 180.089 607.636H179.976V606.273H178.68V615H180.021V609.75ZM191.585 615.182C193.517 615.182 194.79 614 195.017 612.455H193.676C193.426 613.409 192.631 613.977 191.585 613.977C189.994 613.977 188.972 612.659 188.972 610.636C188.972 608.659 190.017 607.364 191.585 607.364C192.767 607.364 193.472 608.091 193.676 608.886H195.017C194.79 607.25 193.403 606.159 191.562 606.159C189.199 606.159 187.631 608.023 187.631 610.682C187.631 613.295 189.131 615.182 191.585 615.182ZM196.977 615H198.318V609.477C198.318 608.295 199.25 607.432 200.523 607.432C200.881 607.432 201.25 607.5 201.341 607.523V606.159C201.188 606.148 200.835 606.136 200.636 606.136C199.591 606.136 198.682 606.727 198.364 607.591H198.273V606.273H196.977V615ZM202.93 615H204.271V606.273H202.93V615ZM203.612 604.818C204.135 604.818 204.567 604.409 204.567 603.909C204.567 603.409 204.135 603 203.612 603C203.089 603 202.658 603.409 202.658 603.909C202.658 604.409 203.089 604.818 203.612 604.818ZM206.727 618.273H208.068V613.659H208.182C208.477 614.136 209.045 615.182 210.727 615.182C212.909 615.182 214.432 613.432 214.432 610.659C214.432 607.909 212.909 606.159 210.705 606.159C209 606.159 208.477 607.205 208.182 607.659H208.023V606.273H206.727V618.273ZM208.045 610.636C208.045 608.682 208.909 607.364 210.545 607.364C212.25 607.364 213.091 608.795 213.091 610.636C213.091 612.5 212.227 613.977 210.545 613.977C208.932 613.977 208.045 612.614 208.045 610.636ZM220.273 606.273H218.409V604.182H217.068V606.273H215.75V607.409H217.068V612.864C217.068 614.386 218.295 615.114 219.432 615.114C219.932 615.114 220.25 615.023 220.432 614.955L220.159 613.75C220.045 613.773 219.864 613.818 219.568 613.818C218.977 613.818 218.409 613.636 218.409 612.5V607.409H220.273V606.273ZM224.858 615.205C226.381 615.205 227.176 614.386 227.449 613.818H227.517V615H228.858V609.25C228.858 606.477 226.744 606.159 225.631 606.159C224.312 606.159 222.812 606.614 222.131 608.205L223.403 608.659C223.699 608.023 224.398 607.341 225.676 607.341C226.909 607.341 227.517 607.994 227.517 609.114V609.159C227.517 609.807 226.858 609.75 225.267 609.955C223.648 610.165 221.881 610.523 221.881 612.523C221.881 614.227 223.199 615.205 224.858 615.205ZM225.062 614C223.994 614 223.222 613.523 223.222 612.591C223.222 611.568 224.153 611.25 225.199 611.114C225.767 611.045 227.29 610.886 227.517 610.614V611.841C227.517 612.932 226.653 614 225.062 614ZM231.305 615H232.646V609.477C232.646 608.295 233.578 607.432 234.851 607.432C235.209 607.432 235.578 607.5 235.669 607.523V606.159C235.516 606.148 235.163 606.136 234.964 606.136C233.919 606.136 233.01 606.727 232.692 607.591H232.601V606.273H231.305V615Z" fill="#0A3871"/>
<path d="M40 577H335V575H40V577ZM358 600V619H360V600H358ZM335 642H40V644H335V642ZM17 619V600H15V619H17ZM40 642C27.2975 642 17 631.703 17 619H15C15 632.807 26.1929 644 40 644V642ZM358 619C358 631.703 347.703 642 335 642V644C348.807 644 360 632.807 360 619H358ZM335 577C347.703 577 358 587.297 358 600H360C360 586.193 348.807 575 335 575V577ZM40 575C26.1929 575 15 586.193 15 600H17C17 587.297 27.2975 577 40 577V575Z" fill="#0A3871"/>
<path d="M32 460C32 462.122 31.1571 464.157 29.6569 465.657C28.1566 467.157 26.1217 468 24 468C21.8783 468 19.8434 467.157 18.3431 465.657C16.8429 464.157 16 462.122 16 460C16 457.878 16.8429 455.843 18.3431 454.343C19.8434 452.843 21.8783 452 24 452C26.1217 452 28.1566 452.843 29.6569 454.343C31.1571 455.843 32 457.878 32 460ZM24 456C23.8736 456 23.7486 456.027 23.6331 456.078C23.5176 456.129 23.4141 456.204 23.3293 456.298C23.2446 456.392 23.1803 456.502 23.1408 456.622C23.1013 456.742 23.0874 456.869 23.1 456.995L23.45 460.502C23.4618 460.64 23.5248 460.768 23.6266 460.862C23.7285 460.955 23.8617 461.007 24 461.007C24.1383 461.007 24.2715 460.955 24.3734 460.862C24.4752 460.768 24.5382 460.64 24.55 460.502L24.9 456.995C24.9126 456.869 24.8987 456.742 24.8592 456.622C24.8197 456.502 24.7554 456.392 24.6707 456.298C24.5859 456.204 24.4824 456.129 24.3669 456.078C24.2514 456.027 24.1264 456 24 456ZM24.002 462C23.7368 462 23.4824 462.105 23.2949 462.293C23.1074 462.48 23.002 462.735 23.002 463C23.002 463.265 23.1074 463.52 23.2949 463.707C23.4824 463.895 23.7368 464 24.002 464C24.2672 464 24.5216 463.895 24.7091 463.707C24.8966 463.52 25.002 463.265 25.002 463C25.002 462.735 24.8966 462.48 24.7091 462.293C24.5216 462.105 24.2672 462 24.002 462Z" fill="#67808E"/>
<path d="M45.8295 457.455H46.8523C46.8054 456.138 45.5909 455.153 43.9034 455.153C42.233 455.153 40.9205 456.125 40.9205 457.591C40.9205 458.767 41.7727 459.466 43.1364 459.858L44.2102 460.165C45.1307 460.42 45.9489 460.744 45.9489 461.614C45.9489 462.568 45.0284 463.199 43.8182 463.199C42.7784 463.199 41.858 462.739 41.7727 461.75H40.6818C40.7841 463.182 41.9432 464.153 43.8182 464.153C45.8295 464.153 46.9716 463.045 46.9716 461.631C46.9716 459.994 45.4205 459.466 44.517 459.227L43.6307 458.989C42.983 458.818 41.9432 458.477 41.9432 457.54C41.9432 456.705 42.7102 456.091 43.8693 456.091C44.9261 456.091 45.7273 456.594 45.8295 457.455ZM51.2319 464.136C53.0046 464.136 54.1978 462.79 54.1978 460.761C54.1978 458.716 53.0046 457.369 51.2319 457.369C49.4592 457.369 48.266 458.716 48.266 460.761C48.266 462.79 49.4592 464.136 51.2319 464.136ZM51.2319 463.233C49.8853 463.233 49.2717 462.074 49.2717 460.761C49.2717 459.449 49.8853 458.273 51.2319 458.273C52.5785 458.273 53.1921 459.449 53.1921 460.761C53.1921 462.074 52.5785 463.233 51.2319 463.233ZM56.7386 455.273H55.733V464H56.7386V455.273ZM61.2397 464.136C63.0124 464.136 64.2056 462.79 64.2056 460.761C64.2056 458.716 63.0124 457.369 61.2397 457.369C59.467 457.369 58.2738 458.716 58.2738 460.761C58.2738 462.79 59.467 464.136 61.2397 464.136ZM61.2397 463.233C59.8931 463.233 59.2795 462.074 59.2795 460.761C59.2795 459.449 59.8931 458.273 61.2397 458.273C62.5863 458.273 63.1999 459.449 63.1999 460.761C63.1999 462.074 62.5863 463.233 61.2397 463.233ZM70.1214 455.273H69.1158V464H70.1214V455.273ZM74.7077 464.136C76.0373 464.136 77.0089 463.472 77.3157 462.483L76.3441 462.21C76.0884 462.892 75.4961 463.233 74.7077 463.233C73.5273 463.233 72.7134 462.47 72.6665 461.068H77.418V460.642C77.418 458.205 75.9691 457.369 74.6055 457.369C72.8327 457.369 71.6566 458.767 71.6566 460.778C71.6566 462.79 72.8157 464.136 74.7077 464.136ZM72.6665 460.199C72.7347 459.18 73.4549 458.273 74.6055 458.273C75.6964 458.273 76.3952 459.091 76.3952 460.199H72.6665ZM81.7944 457.455H80.3967V455.886H79.391V457.455H78.4023V458.307H79.391V462.398C79.391 463.54 80.3114 464.085 81.1637 464.085C81.5387 464.085 81.7773 464.017 81.9137 463.966L81.7092 463.062C81.6239 463.08 81.4876 463.114 81.266 463.114C80.8228 463.114 80.3967 462.977 80.3967 462.125V458.307H81.7944V457.455ZM83.3072 464H84.3129V459.858C84.3129 458.972 85.0117 458.324 85.9663 458.324C86.2347 458.324 86.5117 458.375 86.5799 458.392V457.369C86.4648 457.361 86.2006 457.352 86.0515 457.352C85.2674 457.352 84.5856 457.795 84.3469 458.443H84.2788V457.455H83.3072V464ZM89.6982 464.153C90.8402 464.153 91.4368 463.54 91.6413 463.114H91.6925V464H92.6982V459.688C92.6982 457.608 91.1129 457.369 90.2777 457.369C89.2891 457.369 88.1641 457.71 87.6527 458.903L88.6072 459.244C88.8288 458.767 89.353 458.256 90.3118 458.256C91.2365 458.256 91.6925 458.746 91.6925 459.585V459.619C91.6925 460.105 91.1982 460.062 90.005 460.216C88.7905 460.374 87.4652 460.642 87.4652 462.142C87.4652 463.42 88.4538 464.153 89.6982 464.153ZM89.8516 463.25C89.0504 463.25 88.4709 462.892 88.4709 462.193C88.4709 461.426 89.1697 461.188 89.9538 461.085C90.38 461.034 91.522 460.915 91.6925 460.71V461.631C91.6925 462.449 91.0447 463.25 89.8516 463.25ZM99.1701 458.92C98.8548 457.991 98.1474 457.369 96.8519 457.369C95.4712 457.369 94.4485 458.153 94.4485 459.261C94.4485 460.165 94.9854 460.77 96.1871 461.051L97.2781 461.307C97.9386 461.46 98.2496 461.776 98.2496 462.227C98.2496 462.79 97.6531 463.25 96.7156 463.25C95.8931 463.25 95.3775 462.896 95.1985 462.193L94.244 462.432C94.4783 463.544 95.3945 464.136 96.7326 464.136C98.2539 464.136 99.2894 463.305 99.2894 462.176C99.2894 461.264 98.7184 460.689 97.5508 460.403L96.5792 460.165C95.8036 459.973 95.4542 459.713 95.4542 459.21C95.4542 458.648 96.0508 458.239 96.8519 458.239C97.7298 458.239 98.092 458.724 98.2667 459.176L99.1701 458.92ZM104.178 464H105.184V459.909C105.184 458.95 105.883 458.273 106.667 458.273C107.43 458.273 107.962 458.771 107.962 459.517V464H108.985V459.739C108.985 458.895 109.513 458.273 110.434 458.273C111.15 458.273 111.763 458.652 111.763 459.619V464H112.769V459.619C112.769 458.081 111.942 457.369 110.775 457.369C109.837 457.369 109.151 457.8 108.815 458.477H108.746C108.423 457.778 107.852 457.369 106.991 457.369C106.138 457.369 105.508 457.778 105.235 458.477H105.15V457.455H104.178V464ZM114.608 464H115.614V457.455H114.608V464ZM115.119 456.364C115.511 456.364 115.835 456.057 115.835 455.682C115.835 455.307 115.511 455 115.119 455C114.727 455 114.403 455.307 114.403 455.682C114.403 456.057 114.727 456.364 115.119 456.364ZM118.461 460.062C118.461 458.92 119.169 458.273 120.132 458.273C121.065 458.273 121.632 458.882 121.632 459.909V464H122.637V459.841C122.637 458.17 121.747 457.369 120.422 457.369C119.433 457.369 118.819 457.812 118.512 458.477H118.427V457.455H117.456V464H118.461V460.062ZM128.6 461.324C128.6 462.551 127.663 463.114 126.913 463.114C126.077 463.114 125.481 462.5 125.481 461.545V457.455H124.475V461.614C124.475 463.284 125.362 464.085 126.589 464.085C127.577 464.085 128.225 463.557 128.532 462.892H128.6V464H129.606V457.455H128.6V461.324ZM126.589 456.568H127.475L128.805 454.591H127.629L126.589 456.568ZM136.084 458.92C135.769 457.991 135.061 457.369 133.766 457.369C132.385 457.369 131.363 458.153 131.363 459.261C131.363 460.165 131.9 460.77 133.101 461.051L134.192 461.307C134.853 461.46 135.164 461.776 135.164 462.227C135.164 462.79 134.567 463.25 133.63 463.25C132.807 463.25 132.292 462.896 132.113 462.193L131.158 462.432C131.392 463.544 132.309 464.136 133.647 464.136C135.168 464.136 136.203 463.305 136.203 462.176C136.203 461.264 135.632 460.689 134.465 460.403L133.493 460.165C132.718 459.973 132.368 459.713 132.368 459.21C132.368 458.648 132.965 458.239 133.766 458.239C134.644 458.239 135.006 458.724 135.181 459.176L136.084 458.92ZM140.376 464.136C141.825 464.136 142.78 463.25 142.95 462.091H141.945C141.757 462.807 141.161 463.233 140.376 463.233C139.183 463.233 138.416 462.244 138.416 460.727C138.416 459.244 139.2 458.273 140.376 458.273C141.263 458.273 141.791 458.818 141.945 459.415H142.95C142.78 458.188 141.74 457.369 140.359 457.369C138.587 457.369 137.411 458.767 137.411 460.761C137.411 462.722 138.536 464.136 140.376 464.136ZM148.545 461.324C148.545 462.551 147.608 463.114 146.858 463.114C146.023 463.114 145.426 462.5 145.426 461.545V457.455H144.42V461.614C144.42 463.284 145.307 464.085 146.534 464.085C147.523 464.085 148.17 463.557 148.477 462.892H148.545V464H149.551V457.455H148.545V461.324ZM152.399 455.273H151.393V464H152.399V455.273ZM156.167 464.153C157.309 464.153 157.906 463.54 158.11 463.114H158.161V464H159.167V459.688C159.167 457.608 157.582 457.369 156.746 457.369C155.758 457.369 154.633 457.71 154.121 458.903L155.076 459.244C155.298 458.767 155.822 458.256 156.781 458.256C157.705 458.256 158.161 458.746 158.161 459.585V459.619C158.161 460.105 157.667 460.062 156.474 460.216C155.259 460.374 153.934 460.642 153.934 462.142C153.934 463.42 154.923 464.153 156.167 464.153ZM156.32 463.25C155.519 463.25 154.94 462.892 154.94 462.193C154.94 461.426 155.638 461.188 156.423 461.085C156.849 461.034 157.991 460.915 158.161 460.71V461.631C158.161 462.449 157.513 463.25 156.32 463.25ZM165.639 458.92C165.324 457.991 164.616 457.369 163.321 457.369C161.94 457.369 160.917 458.153 160.917 459.261C160.917 460.165 161.454 460.77 162.656 461.051L163.747 461.307C164.407 461.46 164.718 461.776 164.718 462.227C164.718 462.79 164.122 463.25 163.184 463.25C162.362 463.25 161.846 462.896 161.667 462.193L160.713 462.432C160.947 463.544 161.863 464.136 163.201 464.136C164.723 464.136 165.758 463.305 165.758 462.176C165.758 461.264 165.187 460.689 164.02 460.403L163.048 460.165C162.272 459.973 161.923 459.713 161.923 459.21C161.923 458.648 162.52 458.239 163.321 458.239C164.199 458.239 164.561 458.724 164.735 459.176L165.639 458.92ZM171.295 466.455C172.202 466.455 172.842 465.973 173.221 464.955L176.008 457.472L174.908 457.455L173.102 462.67H173.033L171.227 457.455H170.136L172.556 464.034L172.369 464.545C172.002 465.543 171.55 465.636 170.817 465.449L170.562 466.335C170.664 466.386 170.954 466.455 171.295 466.455ZM185.35 458.92C185.034 457.991 184.327 457.369 183.032 457.369C181.651 457.369 180.628 458.153 180.628 459.261C180.628 460.165 181.165 460.77 182.367 461.051L183.458 461.307C184.118 461.46 184.429 461.776 184.429 462.227C184.429 462.79 183.833 463.25 182.895 463.25C182.073 463.25 181.557 462.896 181.378 462.193L180.424 462.432C180.658 463.544 181.574 464.136 182.912 464.136C184.434 464.136 185.469 463.305 185.469 462.176C185.469 461.264 184.898 460.689 183.73 460.403L182.759 460.165C181.983 459.973 181.634 459.713 181.634 459.21C181.634 458.648 182.23 458.239 183.032 458.239C183.909 458.239 184.272 458.724 184.446 459.176L185.35 458.92ZM186.983 464H187.989V457.455H186.983V464ZM187.494 456.364C187.886 456.364 188.21 456.057 188.21 455.682C188.21 455.307 187.886 455 187.494 455C187.102 455 186.778 455.307 186.778 455.682C186.778 456.057 187.102 456.364 187.494 456.364ZM190.836 460.062C190.836 458.92 191.544 458.273 192.507 458.273C193.44 458.273 194.007 458.882 194.007 459.909V464H195.012V459.841C195.012 458.17 194.122 457.369 192.797 457.369C191.808 457.369 191.194 457.812 190.887 458.477H190.802V457.455H189.831V464H190.836V460.062ZM202.151 464.153C203.293 464.153 203.89 463.54 204.094 463.114H204.146V464H205.151V459.688C205.151 457.608 203.566 457.369 202.731 457.369C201.742 457.369 200.617 457.71 200.106 458.903L201.06 459.244C201.282 458.767 201.806 458.256 202.765 458.256C203.69 458.256 204.146 458.746 204.146 459.585V459.619C204.146 460.105 203.651 460.062 202.458 460.216C201.244 460.374 199.918 460.642 199.918 462.142C199.918 463.42 200.907 464.153 202.151 464.153ZM202.305 463.25C201.504 463.25 200.924 462.892 200.924 462.193C200.924 461.426 201.623 461.188 202.407 461.085C202.833 461.034 203.975 460.915 204.146 460.71V461.631C204.146 462.449 203.498 463.25 202.305 463.25ZM209.646 464.136C211.095 464.136 212.049 463.25 212.22 462.091H211.214C211.027 462.807 210.43 463.233 209.646 463.233C208.453 463.233 207.686 462.244 207.686 460.727C207.686 459.244 208.47 458.273 209.646 458.273C210.532 458.273 211.061 458.818 211.214 459.415H212.22C212.049 458.188 211.01 457.369 209.629 457.369C207.856 457.369 206.68 458.767 206.68 460.761C206.68 462.722 207.805 464.136 209.646 464.136ZM216.434 464.136C217.764 464.136 218.735 463.472 219.042 462.483L218.071 462.21C217.815 462.892 217.223 463.233 216.434 463.233C215.254 463.233 214.44 462.47 214.393 461.068H219.145V460.642C219.145 458.205 217.696 457.369 216.332 457.369C214.559 457.369 213.383 458.767 213.383 460.778C213.383 462.79 214.542 464.136 216.434 464.136ZM214.393 460.199C214.461 459.18 215.181 458.273 216.332 458.273C217.423 458.273 218.122 459.091 218.122 460.199H214.393ZM221.68 460.062C221.68 458.92 222.387 458.273 223.35 458.273C224.284 458.273 224.85 458.882 224.85 459.909V464H225.856V459.841C225.856 458.17 224.966 457.369 223.64 457.369C222.652 457.369 222.038 457.812 221.731 458.477H221.646V457.455H220.674V464H221.68V460.062ZM230.54 457.455H229.143V455.886H228.137V457.455H227.148V458.307H228.137V462.398C228.137 463.54 229.058 464.085 229.91 464.085C230.285 464.085 230.523 464.017 230.66 463.966L230.455 463.062C230.37 463.08 230.234 463.114 230.012 463.114C229.569 463.114 229.143 462.977 229.143 462.125V458.307H230.54V457.455ZM234.642 464.136C236.415 464.136 237.608 462.79 237.608 460.761C237.608 458.716 236.415 457.369 234.642 457.369C232.869 457.369 231.676 458.716 231.676 460.761C231.676 462.79 232.869 464.136 234.642 464.136ZM234.642 463.233C233.295 463.233 232.682 462.074 232.682 460.761C232.682 459.449 233.295 458.273 234.642 458.273C235.989 458.273 236.602 459.449 236.602 460.761C236.602 462.074 235.989 463.233 234.642 463.233ZM243.779 458.92C243.464 457.991 242.757 457.369 241.461 457.369C240.081 457.369 239.058 458.153 239.058 459.261C239.058 460.165 239.595 460.77 240.797 461.051L241.887 461.307C242.548 461.46 242.859 461.776 242.859 462.227C242.859 462.79 242.262 463.25 241.325 463.25C240.502 463.25 239.987 462.896 239.808 462.193L238.853 462.432C239.088 463.544 240.004 464.136 241.342 464.136C242.863 464.136 243.899 463.305 243.899 462.176C243.899 461.264 243.328 460.689 242.16 460.403L241.189 460.165C240.413 459.973 240.064 459.713 240.064 459.21C240.064 458.648 240.66 458.239 241.461 458.239C242.339 458.239 242.701 458.724 242.876 459.176L243.779 458.92Z" fill="#495057"/>
<g filter="url(#filter0_d_16_801)">
<rect x="24" y="707" width="327" height="186" rx="32" fill="white"/>
<path d="M86.9915 744.545H83.3182V755.523H83.1648L75.6307 744.545H72.392V762H76.0824V751.014H76.2102L83.804 762H86.9915V744.545ZM89.9723 762H93.603V748.909H89.9723V762ZM91.7962 747.222C92.8786 747.222 93.7649 746.395 93.7649 745.381C93.7649 744.375 92.8786 743.548 91.7962 743.548C90.7223 743.548 89.8359 744.375 89.8359 745.381C89.8359 746.395 90.7223 747.222 91.7962 747.222ZM100.142 754.432C100.151 752.744 101.156 751.756 102.622 751.756C104.08 751.756 104.957 752.71 104.949 754.312V762H108.58V753.665C108.58 750.614 106.79 748.739 104.062 748.739C102.119 748.739 100.713 749.693 100.125 751.219H99.9716V748.909H96.5114V762H100.142V754.432ZM117.339 767.182C121.08 767.182 123.739 765.477 123.739 762.128V748.909H120.134V751.108H119.998C119.512 750.043 118.447 748.739 116.256 748.739C113.384 748.739 110.955 750.972 110.955 755.429C110.955 759.784 113.316 761.812 116.265 761.812C118.353 761.812 119.521 760.764 119.998 759.682H120.151V762.077C120.151 763.875 119.001 764.574 117.424 764.574C115.822 764.574 115.012 763.875 114.714 763.082L111.356 763.534C111.79 765.597 113.81 767.182 117.339 767.182ZM117.415 759.085C115.634 759.085 114.663 757.67 114.663 755.412C114.663 753.188 115.617 751.628 117.415 751.628C119.18 751.628 120.168 753.119 120.168 755.412C120.168 757.722 119.163 759.085 117.415 759.085ZM135.023 756.426C135.032 758.182 133.83 759.102 132.526 759.102C131.154 759.102 130.268 758.139 130.259 756.597V748.909H126.629V757.244C126.637 760.304 128.427 762.17 131.06 762.17C133.029 762.17 134.444 761.156 135.032 759.622H135.168V762H138.654V748.909H135.023V756.426ZM131.35 747.222H133.915L136.515 743.344H133.157L131.35 747.222ZM145.189 754.432C145.197 752.744 146.203 751.756 147.669 751.756C149.126 751.756 150.004 752.71 149.996 754.312V762H153.626V753.665C153.626 750.614 151.837 748.739 149.109 748.739C147.166 748.739 145.76 749.693 145.172 751.219H145.018V748.909H141.558V762H145.189V754.432ZM162.043 762H165.673V754.142C165.673 752.693 166.594 751.73 167.804 751.73C168.997 751.73 169.798 752.548 169.798 753.835V762H173.318V754.006C173.318 752.651 174.094 751.73 175.415 751.73C176.574 751.73 177.443 752.455 177.443 753.912V762H181.065V753.196C181.065 750.358 179.378 748.739 176.94 748.739C175.023 748.739 173.531 749.719 172.994 751.219H172.858C172.44 749.702 171.102 748.739 169.304 748.739C167.54 748.739 166.202 749.676 165.656 751.219H165.503V748.909H162.043V762ZM189.899 762.256C193.138 762.256 195.32 760.679 195.831 758.25L192.473 758.028C192.107 759.026 191.169 759.545 189.959 759.545C188.143 759.545 186.993 758.344 186.993 756.392V756.384H195.908V755.386C195.908 750.938 193.214 748.739 189.754 748.739C185.902 748.739 183.405 751.474 183.405 755.514C183.405 759.665 185.868 762.256 189.899 762.256ZM186.993 754.134C187.07 752.642 188.203 751.449 189.814 751.449C191.391 751.449 192.482 752.574 192.49 754.134H186.993ZM201.908 754.432C201.916 752.744 202.922 751.756 204.388 751.756C205.845 751.756 206.723 752.71 206.714 754.312V762H210.345V753.665C210.345 750.614 208.555 748.739 205.828 748.739C203.885 748.739 202.479 749.693 201.891 751.219H201.737V748.909H198.277V762H201.908V754.432ZM224.099 752.642C223.775 750.23 221.832 748.739 218.525 748.739C215.175 748.739 212.968 750.29 212.977 752.812C212.968 754.773 214.204 756.043 216.761 756.554L219.028 757.006C220.17 757.236 220.69 757.653 220.707 758.31C220.69 759.085 219.846 759.639 218.576 759.639C217.281 759.639 216.42 759.085 216.198 758.02L212.627 758.207C212.968 760.713 215.099 762.256 218.567 762.256C221.96 762.256 224.388 760.526 224.397 757.943C224.388 756.051 223.153 754.918 220.613 754.398L218.244 753.92C217.025 753.656 216.573 753.239 216.582 752.608C216.573 751.824 217.46 751.312 218.585 751.312C219.846 751.312 220.596 752.003 220.775 752.847L224.099 752.642ZM230.416 762.247C232.351 762.247 233.604 761.403 234.243 760.185H234.345V762H237.788V753.17C237.788 750.051 235.146 748.739 232.232 748.739C229.095 748.739 227.033 750.239 226.53 752.625L229.888 752.898C230.135 752.028 230.911 751.389 232.214 751.389C233.45 751.389 234.158 752.011 234.158 753.085V753.136C234.158 753.98 233.263 754.091 230.987 754.312C228.396 754.551 226.07 755.42 226.07 758.344C226.07 760.935 227.919 762.247 230.416 762.247ZM231.456 759.741C230.339 759.741 229.538 759.222 229.538 758.224C229.538 757.202 230.382 756.699 231.661 756.52C232.453 756.409 233.749 756.222 234.183 755.932V757.321C234.183 758.693 233.05 759.741 231.456 759.741ZM240.605 748.909V762.588C240.605 763.577 240.188 764.071 239.02 764.071C238.866 764.071 238.73 764.071 238.543 764.054V766.892C238.807 766.901 239.02 766.909 239.276 766.909C242.361 766.909 244.236 765.682 244.236 762.648V748.909H240.605ZM242.412 747.222C243.494 747.222 244.381 746.395 244.381 745.381C244.381 744.375 243.494 743.548 242.412 743.548C241.338 743.548 240.452 744.375 240.452 745.381C240.452 746.395 241.338 747.222 242.412 747.222ZM253.11 762.256C256.349 762.256 258.531 760.679 259.042 758.25L255.684 758.028C255.317 759.026 254.38 759.545 253.17 759.545C251.354 759.545 250.204 758.344 250.204 756.392V756.384H259.119V755.386C259.119 750.938 256.425 748.739 252.965 748.739C249.113 748.739 246.616 751.474 246.616 755.514C246.616 759.665 249.079 762.256 253.11 762.256ZM250.204 754.134C250.281 752.642 251.414 751.449 253.025 751.449C254.602 751.449 255.692 752.574 255.701 754.134H250.204ZM274.082 748.909H271.483V748.031C271.483 747.145 271.841 746.625 272.906 746.625C273.341 746.625 273.784 746.719 274.074 746.812L274.713 744.085C274.261 743.949 273.264 743.727 272.148 743.727C269.685 743.727 267.852 745.116 267.852 747.963V748.909H266.003V751.636H267.852V762H271.483V751.636H274.082V748.909ZM284.695 756.426C284.704 758.182 283.502 759.102 282.198 759.102C280.826 759.102 279.94 758.139 279.931 756.597V748.909H276.3V757.244C276.309 760.304 278.099 762.17 280.732 762.17C282.701 762.17 284.116 761.156 284.704 759.622H284.84V762H288.326V748.909H284.695V756.426ZM297.196 762.256C300.435 762.256 302.616 760.679 303.128 758.25L299.77 758.028C299.403 759.026 298.466 759.545 297.256 759.545C295.44 759.545 294.29 758.344 294.29 756.392V756.384H303.205V755.386C303.205 750.938 300.511 748.739 297.051 748.739C293.199 748.739 290.702 751.474 290.702 755.514C290.702 759.665 293.165 762.256 297.196 762.256ZM294.29 754.134C294.366 752.642 295.5 751.449 297.111 751.449C298.688 751.449 299.778 752.574 299.787 754.134H294.29ZM127.075 791.256C130.314 791.256 132.495 789.679 133.007 787.25L129.649 787.028C129.282 788.026 128.345 788.545 127.135 788.545C125.319 788.545 124.169 787.344 124.169 785.392V785.384H133.083V784.386C133.083 779.938 130.39 777.739 126.93 777.739C123.078 777.739 120.581 780.474 120.581 784.514C120.581 788.665 123.044 791.256 127.075 791.256ZM124.169 783.134C124.245 781.642 125.379 780.449 126.99 780.449C128.566 780.449 129.657 781.574 129.666 783.134H124.169ZM139.083 783.432C139.092 781.744 140.098 780.756 141.564 780.756C143.021 780.756 143.899 781.71 143.89 783.312V791H147.521V782.665C147.521 779.614 145.731 777.739 143.004 777.739C141.061 777.739 139.654 778.693 139.066 780.219H138.913V777.909H135.453V791H139.083V783.432ZM156.297 791.256C159.783 791.256 161.973 789.21 162.144 786.202H158.718C158.505 787.599 157.584 788.384 156.34 788.384C154.644 788.384 153.544 786.96 153.544 784.455C153.544 781.983 154.652 780.568 156.34 780.568C157.669 780.568 158.522 781.446 158.718 782.75H162.144C161.99 779.724 159.698 777.739 156.28 777.739C152.309 777.739 149.854 780.491 149.854 784.506C149.854 788.486 152.266 791.256 156.297 791.256ZM170.383 791.256C174.355 791.256 176.826 788.537 176.826 784.506C176.826 780.449 174.355 777.739 170.383 777.739C166.412 777.739 163.94 780.449 163.94 784.506C163.94 788.537 166.412 791.256 170.383 791.256ZM170.4 788.443C168.568 788.443 167.63 786.764 167.63 784.48C167.63 782.196 168.568 780.509 170.4 780.509C172.199 780.509 173.136 782.196 173.136 784.48C173.136 786.764 172.199 788.443 170.4 788.443ZM182.818 783.432C182.826 781.744 183.832 780.756 185.298 780.756C186.755 780.756 187.633 781.71 187.625 783.312V791H191.255V782.665C191.255 779.614 189.466 777.739 186.738 777.739C184.795 777.739 183.389 778.693 182.801 780.219H182.647V777.909H179.187V791H182.818V783.432ZM201.08 777.909H198.617V774.773H194.986V777.909H193.196V780.636H194.986V787.455C194.969 790.02 196.716 791.29 199.35 791.179C200.287 791.145 200.952 790.957 201.319 790.838L200.748 788.136C200.569 788.17 200.185 788.256 199.844 788.256C199.12 788.256 198.617 787.983 198.617 786.977V780.636H201.08V777.909ZM203.445 791H207.076V783.594C207.076 781.983 208.252 780.875 209.854 780.875C210.357 780.875 211.047 780.96 211.388 781.071V777.849C211.064 777.773 210.613 777.722 210.246 777.722C208.78 777.722 207.578 778.574 207.101 780.193H206.965V777.909H203.445V791ZM216.623 791.247C218.558 791.247 219.811 790.403 220.45 789.185H220.552V791H223.995V782.17C223.995 779.051 221.353 777.739 218.439 777.739C215.302 777.739 213.24 779.239 212.737 781.625L216.095 781.898C216.342 781.028 217.118 780.389 218.422 780.389C219.657 780.389 220.365 781.011 220.365 782.085V782.136C220.365 782.98 219.47 783.091 217.194 783.312C214.603 783.551 212.277 784.42 212.277 787.344C212.277 789.935 214.126 791.247 216.623 791.247ZM217.663 788.741C216.547 788.741 215.745 788.222 215.745 787.224C215.745 786.202 216.589 785.699 217.868 785.52C218.66 785.409 219.956 785.222 220.39 784.932V786.321C220.39 787.693 219.257 788.741 217.663 788.741ZM231.636 791.213C233.75 791.213 234.849 789.994 235.352 788.903H235.505V791H239.085V773.545H235.463V780.108H235.352C234.866 779.043 233.818 777.739 231.627 777.739C228.755 777.739 226.326 779.972 226.326 784.472C226.326 788.852 228.653 791.213 231.636 791.213ZM232.787 788.324C231.005 788.324 230.034 786.739 230.034 784.455C230.034 782.188 230.988 780.628 232.787 780.628C234.551 780.628 235.539 782.119 235.539 784.455C235.539 786.79 234.534 788.324 232.787 788.324ZM247.985 791.256C251.956 791.256 254.428 788.537 254.428 784.506C254.428 780.449 251.956 777.739 247.985 777.739C244.013 777.739 241.542 780.449 241.542 784.506C241.542 788.537 244.013 791.256 247.985 791.256ZM248.002 788.443C246.169 788.443 245.232 786.764 245.232 784.48C245.232 782.196 246.169 780.509 248.002 780.509C249.8 780.509 250.738 782.196 250.738 784.48C250.738 786.764 249.8 788.443 248.002 788.443Z" fill="#343A40"/>
<path d="M86.076 819.364H84.6669V831H86.076V819.364ZM90.0604 825.75C90.0604 824.227 91.0036 823.364 92.2876 823.364C93.532 823.364 94.2876 824.176 94.2876 825.545V831H95.6286V825.455C95.6286 823.227 94.4411 822.159 92.674 822.159C91.3558 822.159 90.5376 822.75 90.1286 823.636H90.0149V822.273H88.7195V831H90.0604V825.75ZM101.602 834.455C103.692 834.455 105.374 833.5 105.374 831.25V822.273H104.079V823.659H103.942C103.647 823.205 103.102 822.159 101.397 822.159C99.1925 822.159 97.6697 823.909 97.6697 826.591C97.6697 829.318 99.2607 830.864 101.374 830.864C103.079 830.864 103.624 829.864 103.92 829.386H104.033V831.159C104.033 832.614 103.011 833.273 101.602 833.273C100.016 833.273 99.4595 832.438 99.1016 831.955L98.0334 832.705C98.5788 833.619 99.6527 834.455 101.602 834.455ZM101.556 829.659C99.8743 829.659 99.0107 828.386 99.0107 826.568C99.0107 824.795 99.8516 823.364 101.556 823.364C103.192 823.364 104.056 824.682 104.056 826.568C104.056 828.5 103.17 829.659 101.556 829.659ZM107.829 831H109.17V825.477C109.17 824.295 110.102 823.432 111.374 823.432C111.732 823.432 112.102 823.5 112.192 823.523V822.159C112.039 822.148 111.687 822.136 111.488 822.136C110.442 822.136 109.533 822.727 109.215 823.591H109.124V822.273H107.829V831ZM117.175 831.182C118.948 831.182 120.244 830.295 120.653 828.977L119.357 828.614C119.016 829.523 118.227 829.977 117.175 829.977C115.602 829.977 114.516 828.96 114.454 827.091H120.789V826.523C120.789 823.273 118.857 822.159 117.039 822.159C114.675 822.159 113.107 824.023 113.107 826.705C113.107 829.386 114.653 831.182 117.175 831.182ZM114.454 825.932C114.545 824.574 115.505 823.364 117.039 823.364C118.494 823.364 119.425 824.455 119.425 825.932H114.454ZM129.011 824.227C128.59 822.989 127.647 822.159 125.92 822.159C124.079 822.159 122.715 823.205 122.715 824.682C122.715 825.886 123.431 826.693 125.033 827.068L126.488 827.409C127.369 827.614 127.783 828.034 127.783 828.636C127.783 829.386 126.988 830 125.738 830C124.641 830 123.954 829.528 123.715 828.591L122.442 828.909C122.755 830.392 123.977 831.182 125.761 831.182C127.789 831.182 129.17 830.074 129.17 828.568C129.17 827.352 128.408 826.585 126.852 826.205L125.556 825.886C124.522 825.631 124.056 825.284 124.056 824.614C124.056 823.864 124.852 823.318 125.92 823.318C127.09 823.318 127.573 823.966 127.806 824.568L129.011 824.227ZM133.756 831.205C135.279 831.205 136.075 830.386 136.347 829.818H136.415V831H137.756V825.25C137.756 822.477 135.643 822.159 134.529 822.159C133.211 822.159 131.711 822.614 131.029 824.205L132.302 824.659C132.597 824.023 133.296 823.341 134.575 823.341C135.808 823.341 136.415 823.994 136.415 825.114V825.159C136.415 825.807 135.756 825.75 134.165 825.955C132.546 826.165 130.779 826.523 130.779 828.523C130.779 830.227 132.097 831.205 133.756 831.205ZM133.961 830C132.893 830 132.12 829.523 132.12 828.591C132.12 827.568 133.052 827.25 134.097 827.114C134.665 827.045 136.188 826.886 136.415 826.614V827.841C136.415 828.932 135.552 830 133.961 830ZM148.363 831.182C150.136 831.182 151.431 830.295 151.84 828.977L150.545 828.614C150.204 829.523 149.414 829.977 148.363 829.977C146.789 829.977 145.704 828.96 145.641 827.091H151.977V826.523C151.977 823.273 150.045 822.159 148.227 822.159C145.863 822.159 144.295 824.023 144.295 826.705C144.295 829.386 145.84 831.182 148.363 831.182ZM145.641 825.932C145.732 824.574 146.692 823.364 148.227 823.364C149.681 823.364 150.613 824.455 150.613 825.932H145.641ZM155.357 819.364H154.016V831H155.357V819.364ZM166.109 822.273H164.245V820.182H162.904V822.273H161.586V823.409H162.904V828.864C162.904 830.386 164.131 831.114 165.268 831.114C165.768 831.114 166.086 831.023 166.268 830.955L165.995 829.75C165.881 829.773 165.7 829.818 165.404 829.818C164.813 829.818 164.245 829.636 164.245 828.5V823.409H166.109V822.273ZM171.691 831.182C173.464 831.182 174.759 830.295 175.168 828.977L173.873 828.614C173.532 829.523 172.742 829.977 171.691 829.977C170.117 829.977 169.032 828.96 168.969 827.091H175.305V826.523C175.305 823.273 173.373 822.159 171.555 822.159C169.191 822.159 167.623 824.023 167.623 826.705C167.623 829.386 169.168 831.182 171.691 831.182ZM168.969 825.932C169.06 824.574 170.021 823.364 171.555 823.364C173.009 823.364 173.941 824.455 173.941 825.932H168.969ZM178.11 822.273H176.565L179.337 826.636L176.565 831H178.11L180.201 827.614L182.292 831H183.837L181.019 826.636L183.837 822.273H182.292L180.201 825.841L178.11 822.273ZM189.546 822.273H187.683V820.182H186.342V822.273H185.023V823.409H186.342V828.864C186.342 830.386 187.569 831.114 188.705 831.114C189.205 831.114 189.523 831.023 189.705 830.955L189.433 829.75C189.319 829.773 189.137 829.818 188.842 829.818C188.251 829.818 187.683 829.636 187.683 828.5V823.409H189.546V822.273ZM195.015 831.182C197.379 831.182 198.969 829.386 198.969 826.682C198.969 823.955 197.379 822.159 195.015 822.159C192.651 822.159 191.06 823.955 191.06 826.682C191.06 829.386 192.651 831.182 195.015 831.182ZM195.015 829.977C193.219 829.977 192.401 828.432 192.401 826.682C192.401 824.932 193.219 823.364 195.015 823.364C196.81 823.364 197.629 824.932 197.629 826.682C197.629 828.432 196.81 829.977 195.015 829.977ZM212.812 834.273V822.273H211.516V823.659H211.357C211.062 823.205 210.539 822.159 208.835 822.159C206.63 822.159 205.107 823.909 205.107 826.659C205.107 829.432 206.63 831.182 208.812 831.182C210.494 831.182 211.062 830.136 211.357 829.659H211.471V834.273H212.812ZM211.494 826.636C211.494 828.614 210.607 829.977 208.994 829.977C207.312 829.977 206.448 828.5 206.448 826.636C206.448 824.795 207.289 823.364 208.994 823.364C210.63 823.364 211.494 824.682 211.494 826.636ZM220.766 827.432C220.766 829.068 219.516 829.818 218.516 829.818C217.403 829.818 216.607 829 216.607 827.727V822.273H215.266V827.818C215.266 830.045 216.448 831.114 218.085 831.114C219.403 831.114 220.266 830.409 220.675 829.523H220.766V831H222.107V822.273H220.766V827.432ZM228.222 831.182C229.995 831.182 231.29 830.295 231.7 828.977L230.404 828.614C230.063 829.523 229.273 829.977 228.222 829.977C226.648 829.977 225.563 828.96 225.501 827.091H231.836V826.523C231.836 823.273 229.904 822.159 228.086 822.159C225.722 822.159 224.154 824.023 224.154 826.705C224.154 829.386 225.7 831.182 228.222 831.182ZM225.501 825.932C225.592 824.574 226.552 823.364 228.086 823.364C229.54 823.364 230.472 824.455 230.472 825.932H225.501ZM241.671 831.182C243.353 831.182 243.921 830.136 244.217 829.659H244.376V831H245.671V819.364H244.33V823.659H244.217C243.921 823.205 243.398 822.159 241.694 822.159C239.489 822.159 237.967 823.909 237.967 826.659C237.967 829.432 239.489 831.182 241.671 831.182ZM241.853 829.977C240.171 829.977 239.308 828.5 239.308 826.636C239.308 824.795 240.148 823.364 241.853 823.364C243.489 823.364 244.353 824.682 244.353 826.636C244.353 828.614 243.467 829.977 241.853 829.977ZM251.972 831.182C253.745 831.182 255.04 830.295 255.45 828.977L254.154 828.614C253.813 829.523 253.023 829.977 251.972 829.977C250.398 829.977 249.313 828.96 249.251 827.091H255.586V826.523C255.586 823.273 253.654 822.159 251.836 822.159C249.472 822.159 247.904 824.023 247.904 826.705C247.904 829.386 249.45 831.182 251.972 831.182ZM249.251 825.932C249.342 824.574 250.302 823.364 251.836 823.364C253.29 823.364 254.222 824.455 254.222 825.932H249.251ZM263.808 824.227C263.387 822.989 262.444 822.159 260.717 822.159C258.876 822.159 257.512 823.205 257.512 824.682C257.512 825.886 258.228 826.693 259.83 827.068L261.285 827.409C262.165 827.614 262.58 828.034 262.58 828.636C262.58 829.386 261.785 830 260.535 830C259.438 830 258.751 829.528 258.512 828.591L257.239 828.909C257.552 830.392 258.773 831.182 260.558 831.182C262.586 831.182 263.967 830.074 263.967 828.568C263.967 827.352 263.205 826.585 261.648 826.205L260.353 825.886C259.319 825.631 258.853 825.284 258.853 824.614C258.853 823.864 259.648 823.318 260.717 823.318C261.887 823.318 262.37 823.966 262.603 824.568L263.808 824.227ZM269.644 831.182C271.417 831.182 272.712 830.295 273.121 828.977L271.826 828.614C271.485 829.523 270.695 829.977 269.644 829.977C268.07 829.977 266.985 828.96 266.923 827.091H273.258V826.523C273.258 823.273 271.326 822.159 269.508 822.159C267.144 822.159 265.576 824.023 265.576 826.705C265.576 829.386 267.121 831.182 269.644 831.182ZM266.923 825.932C267.013 824.574 267.974 823.364 269.508 823.364C270.962 823.364 271.894 824.455 271.894 825.932H266.923ZM278.957 831.182C280.729 831.182 282.025 830.295 282.434 828.977L281.138 828.614C280.798 829.523 280.008 829.977 278.957 829.977C277.383 829.977 276.298 828.96 276.235 827.091H282.57V826.523C282.57 823.273 280.638 822.159 278.82 822.159C276.457 822.159 274.888 824.023 274.888 826.705C274.888 829.386 276.434 831.182 278.957 831.182ZM276.235 825.932C276.326 824.574 277.286 823.364 278.82 823.364C280.275 823.364 281.207 824.455 281.207 825.932H276.235ZM290.792 824.227C290.371 822.989 289.428 822.159 287.701 822.159C285.86 822.159 284.496 823.205 284.496 824.682C284.496 825.886 285.212 826.693 286.815 827.068L288.269 827.409C289.15 827.614 289.565 828.034 289.565 828.636C289.565 829.386 288.769 830 287.519 830C286.423 830 285.735 829.528 285.496 828.591L284.224 828.909C284.536 830.392 285.758 831.182 287.542 831.182C289.57 831.182 290.951 830.074 290.951 828.568C290.951 827.352 290.19 826.585 288.633 826.205L287.337 825.886C286.303 825.631 285.837 825.284 285.837 824.614C285.837 823.864 286.633 823.318 287.701 823.318C288.871 823.318 289.354 823.966 289.587 824.568L290.792 824.227ZM99.7145 855.182C101.487 855.182 102.783 854.295 103.192 852.977L101.896 852.614C101.555 853.523 100.766 853.977 99.7145 853.977C98.1406 853.977 97.0554 852.96 96.9929 851.091H103.328V850.523C103.328 847.273 101.396 846.159 99.5781 846.159C97.2145 846.159 95.6463 848.023 95.6463 850.705C95.6463 853.386 97.1918 855.182 99.7145 855.182ZM96.9929 849.932C97.0838 848.574 98.044 847.364 99.5781 847.364C101.033 847.364 101.964 848.455 101.964 849.932H96.9929ZM106.709 849.75C106.709 848.227 107.652 847.364 108.936 847.364C110.18 847.364 110.936 848.176 110.936 849.545V855H112.277V849.455C112.277 847.227 111.089 846.159 109.322 846.159C108.004 846.159 107.186 846.75 106.777 847.636H106.663V846.273H105.368V855H106.709V849.75ZM118.273 855.182C120.205 855.182 121.477 854 121.705 852.455H120.364C120.114 853.409 119.318 853.977 118.273 853.977C116.682 853.977 115.659 852.659 115.659 850.636C115.659 848.659 116.705 847.364 118.273 847.364C119.455 847.364 120.159 848.091 120.364 848.886H121.705C121.477 847.25 120.091 846.159 118.25 846.159C115.886 846.159 114.318 848.023 114.318 850.682C114.318 853.295 115.818 855.182 118.273 855.182ZM123.665 855H125.006V849.477C125.006 848.295 125.938 847.432 127.21 847.432C127.568 847.432 127.938 847.5 128.028 847.523V846.159C127.875 846.148 127.523 846.136 127.324 846.136C126.278 846.136 125.369 846.727 125.051 847.591H124.96V846.273H123.665V855ZM129.618 855H130.959V846.273H129.618V855ZM130.3 844.818C130.822 844.818 131.254 844.409 131.254 843.909C131.254 843.409 130.822 843 130.3 843C129.777 843 129.345 843.409 129.345 843.909C129.345 844.409 129.777 844.818 130.3 844.818ZM133.415 858.273H134.756V853.659H134.869C135.165 854.136 135.733 855.182 137.415 855.182C139.597 855.182 141.119 853.432 141.119 850.659C141.119 847.909 139.597 846.159 137.392 846.159C135.688 846.159 135.165 847.205 134.869 847.659H134.71V846.273H133.415V858.273ZM134.733 850.636C134.733 848.682 135.597 847.364 137.233 847.364C138.938 847.364 139.778 848.795 139.778 850.636C139.778 852.5 138.915 853.977 137.233 853.977C135.619 853.977 134.733 852.614 134.733 850.636ZM146.96 846.273H145.097V844.182H143.756V846.273H142.438V847.409H143.756V852.864C143.756 854.386 144.983 855.114 146.119 855.114C146.619 855.114 146.938 855.023 147.119 854.955L146.847 853.75C146.733 853.773 146.551 853.818 146.256 853.818C145.665 853.818 145.097 853.636 145.097 852.5V847.409H146.96V846.273ZM151.545 855.205C153.068 855.205 153.864 854.386 154.136 853.818H154.205V855H155.545V849.25C155.545 846.477 153.432 846.159 152.318 846.159C151 846.159 149.5 846.614 148.818 848.205L150.091 848.659C150.386 848.023 151.085 847.341 152.364 847.341C153.597 847.341 154.205 847.994 154.205 849.114V849.159C154.205 849.807 153.545 849.75 151.955 849.955C150.335 850.165 148.568 850.523 148.568 852.523C148.568 854.227 149.886 855.205 151.545 855.205ZM151.75 854C150.682 854 149.909 853.523 149.909 852.591C149.909 851.568 150.841 851.25 151.886 851.114C152.455 851.045 153.977 850.886 154.205 850.614V851.841C154.205 852.932 153.341 854 151.75 854ZM157.993 855H159.334V849.477C159.334 848.295 160.266 847.432 161.538 847.432C161.896 847.432 162.266 847.5 162.357 847.523V846.159C162.203 846.148 161.851 846.136 161.652 846.136C160.607 846.136 159.697 846.727 159.379 847.591H159.288V846.273H157.993V855ZM171.991 855.182C174.355 855.182 175.946 853.386 175.946 850.682C175.946 847.955 174.355 846.159 171.991 846.159C169.628 846.159 168.037 847.955 168.037 850.682C168.037 853.386 169.628 855.182 171.991 855.182ZM171.991 853.977C170.196 853.977 169.378 852.432 169.378 850.682C169.378 848.932 170.196 847.364 171.991 847.364C173.787 847.364 174.605 848.932 174.605 850.682C174.605 852.432 173.787 853.977 171.991 853.977ZM185.788 855.182C187.47 855.182 188.038 854.136 188.334 853.659H188.493V855H189.788V843.364H188.447V847.659H188.334C188.038 847.205 187.516 846.159 185.811 846.159C183.607 846.159 182.084 847.909 182.084 850.659C182.084 853.432 183.607 855.182 185.788 855.182ZM185.97 853.977C184.288 853.977 183.425 852.5 183.425 850.636C183.425 848.795 184.266 847.364 185.97 847.364C187.607 847.364 188.47 848.682 188.47 850.636C188.47 852.614 187.584 853.977 185.97 853.977ZM196.089 855.182C197.862 855.182 199.158 854.295 199.567 852.977L198.271 852.614C197.93 853.523 197.141 853.977 196.089 853.977C194.516 853.977 193.43 852.96 193.368 851.091H199.703V850.523C199.703 847.273 197.771 846.159 195.953 846.159C193.589 846.159 192.021 848.023 192.021 850.705C192.021 853.386 193.567 855.182 196.089 855.182ZM193.368 849.932C193.459 848.574 194.419 847.364 195.953 847.364C197.408 847.364 198.339 848.455 198.339 849.932H193.368ZM207.925 848.227C207.504 846.989 206.561 846.159 204.834 846.159C202.993 846.159 201.629 847.205 201.629 848.682C201.629 849.886 202.345 850.693 203.947 851.068L205.402 851.409C206.283 851.614 206.697 852.034 206.697 852.636C206.697 853.386 205.902 854 204.652 854C203.555 854 202.868 853.528 202.629 852.591L201.357 852.909C201.669 854.392 202.891 855.182 204.675 855.182C206.703 855.182 208.084 854.074 208.084 852.568C208.084 851.352 207.322 850.585 205.766 850.205L204.47 849.886C203.436 849.631 202.97 849.284 202.97 848.614C202.97 847.864 203.766 847.318 204.834 847.318C206.004 847.318 206.487 847.966 206.72 848.568L207.925 848.227ZM213.761 855.182C215.534 855.182 216.83 854.295 217.239 852.977L215.943 852.614C215.602 853.523 214.812 853.977 213.761 853.977C212.188 853.977 211.102 852.96 211.04 851.091H217.375V850.523C217.375 847.273 215.443 846.159 213.625 846.159C211.261 846.159 209.693 848.023 209.693 850.705C209.693 853.386 211.239 855.182 213.761 855.182ZM211.04 849.932C211.131 848.574 212.091 847.364 213.625 847.364C215.08 847.364 216.011 848.455 216.011 849.932H211.04ZM220.756 849.75C220.756 848.227 221.699 847.364 222.983 847.364C224.227 847.364 224.983 848.176 224.983 849.545V855H226.324V849.455C226.324 847.227 225.136 846.159 223.369 846.159C222.051 846.159 221.233 846.75 220.824 847.636H220.71V846.273H219.415V855H220.756V849.75ZM232.32 855.182C234.251 855.182 235.524 854 235.751 852.455H234.411C234.161 853.409 233.365 853.977 232.32 853.977C230.729 853.977 229.706 852.659 229.706 850.636C229.706 848.659 230.751 847.364 232.32 847.364C233.501 847.364 234.206 848.091 234.411 848.886H235.751C235.524 847.25 234.138 846.159 232.297 846.159C229.933 846.159 228.365 848.023 228.365 850.682C228.365 853.295 229.865 855.182 232.32 855.182ZM237.712 855H239.053V849.477C239.053 848.295 239.984 847.432 241.257 847.432C241.615 847.432 241.984 847.5 242.075 847.523V846.159C241.922 846.148 241.57 846.136 241.371 846.136C240.325 846.136 239.416 846.727 239.098 847.591H239.007V846.273H237.712V855ZM243.665 855H245.006V846.273H243.665V855ZM244.347 844.818C244.869 844.818 245.301 844.409 245.301 843.909C245.301 843.409 244.869 843 244.347 843C243.824 843 243.392 843.409 243.392 843.909C243.392 844.409 243.824 844.818 244.347 844.818ZM247.462 858.273H248.803V853.659H248.916C249.212 854.136 249.78 855.182 251.462 855.182C253.643 855.182 255.166 853.432 255.166 850.659C255.166 847.909 253.643 846.159 251.439 846.159C249.734 846.159 249.212 847.205 248.916 847.659H248.757V846.273H247.462V858.273ZM248.78 850.636C248.78 848.682 249.643 847.364 251.28 847.364C252.984 847.364 253.825 848.795 253.825 850.636C253.825 852.5 252.962 853.977 251.28 853.977C249.666 853.977 248.78 852.614 248.78 850.636ZM261.007 846.273H259.143V844.182H257.803V846.273H256.484V847.409H257.803V852.864C257.803 854.386 259.03 855.114 260.166 855.114C260.666 855.114 260.984 855.023 261.166 854.955L260.893 853.75C260.78 853.773 260.598 853.818 260.303 853.818C259.712 853.818 259.143 853.636 259.143 852.5V847.409H261.007V846.273ZM265.592 855.205C267.115 855.205 267.911 854.386 268.183 853.818H268.251V855H269.592V849.25C269.592 846.477 267.479 846.159 266.365 846.159C265.047 846.159 263.547 846.614 262.865 848.205L264.138 848.659C264.433 848.023 265.132 847.341 266.411 847.341C267.643 847.341 268.251 847.994 268.251 849.114V849.159C268.251 849.807 267.592 849.75 266.001 849.955C264.382 850.165 262.615 850.523 262.615 852.523C262.615 854.227 263.933 855.205 265.592 855.205ZM265.797 854C264.729 854 263.956 853.523 263.956 852.591C263.956 851.568 264.888 851.25 265.933 851.114C266.501 851.045 268.024 850.886 268.251 850.614V851.841C268.251 852.932 267.388 854 265.797 854ZM272.04 855H273.381V849.477C273.381 848.295 274.312 847.432 275.585 847.432C275.943 847.432 276.312 847.5 276.403 847.523V846.159C276.25 846.148 275.898 846.136 275.699 846.136C274.653 846.136 273.744 846.727 273.426 847.591H273.335V846.273H272.04V855ZM277.97 855.091C278.533 855.091 278.993 854.631 278.993 854.068C278.993 853.506 278.533 853.045 277.97 853.045C277.408 853.045 276.947 853.506 276.947 854.068C276.947 854.631 277.408 855.091 277.97 855.091Z" fill="#495057"/>
</g>
<path fill-rule="evenodd" clip-rule="evenodd" d="M40.084 47.6529C40.0393 47.9311 39.9304 48.1959 39.7654 48.4275C39.6004 48.659 39.3836 48.8512 39.1313 48.9898C38.6231 49.3086 38.1785 49.468 37.7286 49.6274C36.7705 49.9488 35.7621 50.2702 34.6956 50.643C33.5708 51.0157 32.5624 51.3885 31.6626 51.6585C30.5404 52.0313 29.4738 52.3526 28.4602 52.7254C27.6976 53.0425 26.9812 53.4556 26.3297 53.9544C25.7237 54.4877 25.1949 55.0983 24.7576 55.7695C24.3077 56.515 24.0245 57.4766 24.0245 58.5975C24.0245 60.842 24.5856 62.5491 25.7104 63.6161C26.8325 64.7396 28.9127 65.2718 31.996 65.2718C35.1402 65.2718 37.2733 64.6856 38.4008 63.5107C39.5203 62.3357 40.0814 60.6826 40.0814 58.5487V47.6529H40.084ZM31.9987 24C37.5036 24 41.545 25.0155 44.1254 27.098C46.7085 29.1291 48 31.7412 48 34.8366V61.2148C48 62.2817 47.7777 63.4567 47.386 64.737C46.989 66.0225 46.2056 67.1949 44.9696 68.2592C43.7919 69.3313 42.1643 70.2389 40.0867 70.933C38.0091 71.6272 35.3149 72 32.0013 72C28.6931 72 25.9935 71.6272 23.9186 70.933C21.8437 70.2389 20.2134 69.3313 19.0356 68.2592C17.94 67.3001 17.1101 66.089 16.622 64.737C16.225 63.4592 16 62.2843 16 61.2174V57.001C16 54.7565 16.6167 52.674 17.8526 50.8563C19.0886 48.9898 20.8274 47.7095 23.0744 46.9073C24.1965 46.5345 25.488 46.1618 26.9463 45.681C28.4072 45.1976 29.7517 44.7169 31.1015 44.2927C32.4512 43.8633 33.629 43.434 34.6373 43.0586C35.2458 42.8221 35.8639 42.6094 36.49 42.421L37.5009 41.9402C37.8979 41.7268 38.287 41.4055 38.6813 40.9787C39.073 40.5545 39.4091 40.0737 39.6923 39.5389C39.9915 38.9599 40.1457 38.3203 40.1423 37.6724V35.9627C40.1464 35.3361 40.011 34.716 39.7453 34.145C39.523 33.5023 39.073 32.9161 38.4564 32.3839C37.8397 31.8492 36.9955 31.4224 35.9871 31.0984C34.9761 30.7822 33.6316 30.6202 32.1125 30.6202C28.9683 30.6202 26.8907 31.2116 25.7686 32.4354C24.8158 33.5049 24.2547 34.8392 24.1436 36.3329C24.1436 36.6543 23.863 36.8677 23.5243 36.8677L16.6775 36.9757C16.5149 36.9764 16.3586 36.9146 16.2426 36.8039C16.1266 36.6931 16.0603 36.5423 16.0582 36.3844V34.8418C16.0582 33.3429 16.3414 31.9546 16.9581 30.6202C17.5774 29.2833 18.5328 28.165 19.8217 27.2009C21.1132 26.2419 22.7991 25.4423 24.8185 24.9076C26.7849 24.2648 29.1986 24 32.004 24H31.9987Z" fill="#0A3871"/>
</g>
<defs>
<filter id="filter0_d_16_801" x="0" y="707" width="375" height="234" filterUnits="userSpaceOnUse" color-interpolation-filters="sRGB">
<feFlood flood-opacity="0" result="BackgroundImageFix"/>
<feColorMatrix in="SourceAlpha" type="matrix" values="0 0 0 0 0 0 0 0 0 0 0 0 0 0 0 0 0 0 127 0" result="hardAlpha"/>
<feMorphology radius="8" operator="erode" in="SourceAlpha" result="effect1_dropShadow_16_801"/>
<feOffset dy="24"/>
<feGaussianBlur stdDeviation="16"/>
<feComposite in2="hardAlpha" operator="out"/>
<feColorMatrix type="matrix" values="0 0 0 0 0 0 0 0 0 0 0 0 0 0 0 0 0 0 0.08 0"/>
<feBlend mode="normal" in2="BackgroundImageFix" result="effect1_dropShadow_16_801"/>
<feBlend mode="normal" in="SourceGraphic" in2="effect1_dropShadow_16_801" result="shape"/>
</filter>
<clipPath id="clip0_16_801">
<rect width="375" height="933" fill="white"/>
</clipPath>
</defs>
</svg>
