<svg width="768" height="1174" viewBox="0 0 768 1174" fill="none" xmlns="http://www.w3.org/2000/svg">
<g clip-path="url(#clip0_10_165)">
<rect width="768" height="1174" fill="#F3F5FC"/>
<rect x="40" y="76" width="31" height="48" fill="#E9ECF8"/>
<path fill-rule="evenodd" clip-rule="evenodd" d="M63.3958 96.2683C63.3524 96.537 63.2466 96.7928 63.0863 97.0165C62.926 97.2401 62.7154 97.4259 62.4703 97.5597C61.9766 97.8677 61.5447 98.0217 61.1077 98.1757C60.177 98.4861 59.1974 98.7966 58.1613 99.1567C57.0687 99.5169 56.0891 99.877 55.215 100.138C54.1249 100.498 53.0888 100.808 52.1041 101.168C51.3633 101.475 50.6674 101.874 50.0345 102.356C49.4458 102.871 48.9321 103.461 48.5073 104.109C48.0703 104.829 47.7952 105.758 47.7952 106.841C47.7952 109.009 48.3402 110.659 49.4329 111.689C50.523 112.775 52.5438 113.289 55.5389 113.289C58.5932 113.289 60.6654 112.722 61.7607 111.587C62.8482 110.452 63.3932 108.855 63.3932 106.794V96.2683H63.3958ZM55.5415 73.4187C60.8891 73.4187 64.815 74.3997 67.3217 76.4115C69.831 78.3736 71.0856 80.897 71.0856 83.8873V109.369C71.0856 110.4 70.8696 111.535 70.4891 112.772C70.1035 114.014 69.3425 115.146 68.1418 116.175C66.9977 117.21 65.4166 118.087 63.3984 118.758C61.3802 119.428 58.7629 119.788 55.5441 119.788C52.3304 119.788 49.708 119.428 47.6923 118.758C45.6767 118.087 44.093 117.21 42.9489 116.175C41.8846 115.248 41.0783 114.078 40.6042 112.772C40.2185 111.538 40 110.403 40 109.372V105.299C40 103.131 40.599 101.119 41.7997 99.3629C43.0003 97.5597 44.6894 96.3229 46.8722 95.548C47.9623 95.1879 49.2169 94.8277 50.6335 94.3633C52.0527 93.8964 53.3588 93.4319 54.6699 93.0221C55.9811 92.6074 57.1252 92.1926 58.1048 91.83C58.6959 91.6015 59.2963 91.396 59.9044 91.214L60.8866 90.7496C61.2722 90.5434 61.6501 90.233 62.0332 89.8207C62.4137 89.4109 62.7402 88.9465 63.0153 88.4299C63.306 87.8705 63.4557 87.2526 63.4524 86.6267V84.9751C63.4564 84.3698 63.3249 83.7708 63.0667 83.2192C62.8508 82.5983 62.4137 82.032 61.8147 81.5179C61.2156 81.0013 60.3955 80.589 59.416 80.2761C58.4338 79.9706 57.1278 79.8141 55.6521 79.8141C52.5977 79.8141 50.5795 80.3853 49.4894 81.5675C48.5639 82.6007 48.0189 83.8898 47.9109 85.3328C47.9109 85.6432 47.6383 85.8494 47.3093 85.8494L40.6582 85.9537C40.5002 85.9543 40.3483 85.8947 40.2356 85.7877C40.123 85.6807 40.0586 85.535 40.0566 85.3824V83.8922C40.0566 82.4443 40.3317 81.1031 40.9307 79.8141C41.5323 78.5226 42.4604 77.4422 43.7125 76.5108C44.9671 75.5844 46.6048 74.812 48.5665 74.2954C50.4767 73.6745 52.8214 73.4187 55.5466 73.4187H55.5415Z" fill="#0A3871"/>
<path d="M45.6364 252.727H42.8182V276H45.6364V252.727ZM53.6051 265.5C53.6051 262.455 55.4915 260.727 58.0597 260.727C60.5483 260.727 62.0597 262.352 62.0597 265.091V276H64.7415V264.909C64.7415 260.455 62.3665 258.318 58.8324 258.318C56.196 258.318 54.5597 259.5 53.7415 261.273H53.5142V258.545H50.9233V276H53.6051V265.5ZM76.6875 282.909C80.8693 282.909 84.233 281 84.233 276.5V258.545H81.642V261.318H81.3693C80.7784 260.409 79.6875 258.318 76.2784 258.318C71.8693 258.318 68.8239 261.818 68.8239 267.182C68.8239 272.636 72.0057 275.727 76.233 275.727C79.642 275.727 80.733 273.727 81.3239 272.773H81.5511V276.318C81.5511 279.227 79.5057 280.545 76.6875 280.545C73.517 280.545 72.4034 278.875 71.6875 277.909L69.5511 279.409C70.642 281.239 72.7898 282.909 76.6875 282.909ZM76.5966 273.318C73.233 273.318 71.5057 270.773 71.5057 267.136C71.5057 263.591 73.1875 260.727 76.5966 260.727C79.8693 260.727 81.5966 263.364 81.5966 267.136C81.5966 271 79.8239 273.318 76.5966 273.318ZM89.142 276H91.8239V264.955C91.8239 262.591 93.6875 260.864 96.233 260.864C96.9489 260.864 97.6875 261 97.8693 261.045V258.318C97.5625 258.295 96.858 258.273 96.4602 258.273C94.3693 258.273 92.5511 259.455 91.9148 261.182H91.733V258.545H89.142V276ZM107.835 276.364C111.381 276.364 113.972 274.591 114.79 271.955L112.199 271.227C111.517 273.045 109.938 273.955 107.835 273.955C104.688 273.955 102.517 271.92 102.392 268.182H115.062V267.045C115.062 260.545 111.199 258.318 107.562 258.318C102.835 258.318 99.6989 262.045 99.6989 267.409C99.6989 272.773 102.79 276.364 107.835 276.364ZM102.392 265.864C102.574 263.148 104.494 260.727 107.562 260.727C110.472 260.727 112.335 262.909 112.335 265.864H102.392ZM131.506 262.455C130.665 259.977 128.778 258.318 125.324 258.318C121.642 258.318 118.915 260.409 118.915 263.364C118.915 265.773 120.347 267.386 123.551 268.136L126.46 268.818C128.222 269.227 129.051 270.068 129.051 271.273C129.051 272.773 127.46 274 124.96 274C122.767 274 121.392 273.057 120.915 271.182L118.369 271.818C118.994 274.784 121.438 276.364 125.006 276.364C129.062 276.364 131.824 274.148 131.824 271.136C131.824 268.705 130.301 267.17 127.188 266.409L124.597 265.773C122.528 265.261 121.597 264.568 121.597 263.227C121.597 261.727 123.188 260.636 125.324 260.636C127.665 260.636 128.631 261.932 129.097 263.136L131.506 262.455ZM143.179 276.364C146.724 276.364 149.315 274.591 150.134 271.955L147.543 271.227C146.861 273.045 145.281 273.955 143.179 273.955C140.031 273.955 137.861 271.92 137.736 268.182H150.406V267.045C150.406 260.545 146.543 258.318 142.906 258.318C138.179 258.318 135.043 262.045 135.043 267.409C135.043 272.773 138.134 276.364 143.179 276.364ZM137.736 265.864C137.918 263.148 139.838 260.727 142.906 260.727C145.815 260.727 147.679 262.909 147.679 265.864H137.736ZM170.804 276.364C174.349 276.364 176.94 274.591 177.759 271.955L175.168 271.227C174.486 273.045 172.906 273.955 170.804 273.955C167.656 273.955 165.486 271.92 165.361 268.182H178.031V267.045C178.031 260.545 174.168 258.318 170.531 258.318C165.804 258.318 162.668 262.045 162.668 267.409C162.668 272.773 165.759 276.364 170.804 276.364ZM165.361 265.864C165.543 263.148 167.463 260.727 170.531 260.727C173.44 260.727 175.304 262.909 175.304 265.864H165.361ZM184.793 252.727H182.111V276H184.793V252.727ZM206.295 258.545H202.568V254.364H199.886V258.545H197.25V260.818H199.886V271.727C199.886 274.773 202.341 276.227 204.614 276.227C205.614 276.227 206.25 276.045 206.614 275.909L206.068 273.5C205.841 273.545 205.477 273.636 204.886 273.636C203.705 273.636 202.568 273.273 202.568 271V260.818H206.295V258.545ZM217.46 276.364C221.006 276.364 223.597 274.591 224.415 271.955L221.824 271.227C221.142 273.045 219.562 273.955 217.46 273.955C214.312 273.955 212.142 271.92 212.017 268.182H224.688V267.045C224.688 260.545 220.824 258.318 217.188 258.318C212.46 258.318 209.324 262.045 209.324 267.409C209.324 272.773 212.415 276.364 217.46 276.364ZM212.017 265.864C212.199 263.148 214.119 260.727 217.188 260.727C220.097 260.727 221.96 262.909 221.96 265.864H212.017ZM230.298 258.545H227.207L232.753 267.273L227.207 276H230.298L234.48 269.227L238.662 276H241.753L236.116 267.273L241.753 258.545H238.662L234.48 265.682L230.298 258.545ZM253.17 258.545H249.443V254.364H246.761V258.545H244.125V260.818H246.761V271.727C246.761 274.773 249.216 276.227 251.489 276.227C252.489 276.227 253.125 276.045 253.489 275.909L252.943 273.5C252.716 273.545 252.352 273.636 251.761 273.636C250.58 273.636 249.443 273.273 249.443 271V260.818H253.17V258.545ZM264.108 276.364C268.835 276.364 272.017 272.773 272.017 267.364C272.017 261.909 268.835 258.318 264.108 258.318C259.381 258.318 256.199 261.909 256.199 267.364C256.199 272.773 259.381 276.364 264.108 276.364ZM264.108 273.955C260.517 273.955 258.881 270.864 258.881 267.364C258.881 263.864 260.517 260.727 264.108 260.727C267.699 260.727 269.335 263.864 269.335 267.364C269.335 270.864 267.699 273.955 264.108 273.955ZM290.247 276.409C293.293 276.409 294.884 274.773 295.429 273.636H295.565V276H298.247V264.5C298.247 258.955 294.02 258.318 291.793 258.318C289.156 258.318 286.156 259.227 284.793 262.409L287.338 263.318C287.929 262.045 289.327 260.682 291.884 260.682C294.349 260.682 295.565 261.989 295.565 264.227V264.318C295.565 265.614 294.247 265.5 291.065 265.909C287.827 266.33 284.293 267.045 284.293 271.045C284.293 274.455 286.929 276.409 290.247 276.409ZM290.656 274C288.52 274 286.974 273.045 286.974 271.182C286.974 269.136 288.838 268.5 290.929 268.227C292.065 268.091 295.111 267.773 295.565 267.227V269.682C295.565 271.864 293.838 274 290.656 274ZM317.733 282.545V258.545H315.142V261.318H314.824C314.233 260.409 313.188 258.318 309.778 258.318C305.369 258.318 302.324 261.818 302.324 267.318C302.324 272.864 305.369 276.364 309.733 276.364C313.097 276.364 314.233 274.273 314.824 273.318H315.051V282.545H317.733ZM315.097 267.273C315.097 271.227 313.324 273.955 310.097 273.955C306.733 273.955 305.006 271 305.006 267.273C305.006 263.591 306.688 260.727 310.097 260.727C313.369 260.727 315.097 263.364 315.097 267.273ZM333.642 268.864C333.642 272.136 331.142 273.636 329.142 273.636C326.915 273.636 325.324 272 325.324 269.455V258.545H322.642V269.636C322.642 274.091 325.006 276.227 328.278 276.227C330.915 276.227 332.642 274.818 333.46 273.045H333.642V276H336.324V258.545H333.642V268.864ZM341.236 276H343.918V258.545H341.236V276ZM342.599 255.636C343.645 255.636 344.509 254.818 344.509 253.818C344.509 252.818 343.645 252 342.599 252C341.554 252 340.69 252.818 340.69 253.818C340.69 254.818 341.554 255.636 342.599 255.636Z" fill="#0A3871"/>
<path d="M56 845C56 847.122 55.1571 849.157 53.6569 850.657C52.1566 852.157 50.1217 853 48 853C45.8783 853 43.8434 852.157 42.3431 850.657C40.8429 849.157 40 847.122 40 845C40 842.878 40.8429 840.843 42.3431 839.343C43.8434 837.843 45.8783 837 48 837C50.1217 837 52.1566 837.843 53.6569 839.343C55.1571 840.843 56 842.878 56 845ZM48 841C47.8736 841 47.7486 841.027 47.6331 841.078C47.5176 841.129 47.4141 841.204 47.3293 841.298C47.2446 841.392 47.1803 841.502 47.1408 841.622C47.1013 841.742 47.0874 841.869 47.1 841.995L47.45 845.502C47.4618 845.64 47.5248 845.768 47.6266 845.862C47.7285 845.955 47.8617 846.007 48 846.007C48.1383 846.007 48.2715 845.955 48.3734 845.862C48.4752 845.768 48.5382 845.64 48.55 845.502L48.9 841.995C48.9126 841.869 48.8987 841.742 48.8592 841.622C48.8197 841.502 48.7554 841.392 48.6707 841.298C48.5859 841.204 48.4824 841.129 48.3669 841.078C48.2514 841.027 48.1264 841 48 841ZM48.002 847C47.7368 847 47.4824 847.105 47.2949 847.293C47.1074 847.48 47.002 847.735 47.002 848C47.002 848.265 47.1074 848.52 47.2949 848.707C47.4824 848.895 47.7368 849 48.002 849C48.2672 849 48.5216 848.895 48.7091 848.707C48.8966 848.52 49.002 848.265 49.002 848C49.002 847.735 48.8966 847.48 48.7091 847.293C48.5216 847.105 48.2672 847 48.002 847Z" fill="#67808E"/>
<path d="M69.8295 842.455H70.8523C70.8054 841.138 69.5909 840.153 67.9034 840.153C66.233 840.153 64.9205 841.125 64.9205 842.591C64.9205 843.767 65.7727 844.466 67.1364 844.858L68.2102 845.165C69.1307 845.42 69.9489 845.744 69.9489 846.614C69.9489 847.568 69.0284 848.199 67.8182 848.199C66.7784 848.199 65.858 847.739 65.7727 846.75H64.6818C64.7841 848.182 65.9432 849.153 67.8182 849.153C69.8295 849.153 70.9716 848.045 70.9716 846.631C70.9716 844.994 69.4205 844.466 68.517 844.227L67.6307 843.989C66.983 843.818 65.9432 843.477 65.9432 842.54C65.9432 841.705 66.7102 841.091 67.8693 841.091C68.9261 841.091 69.7273 841.594 69.8295 842.455ZM75.2319 849.136C77.0046 849.136 78.1978 847.79 78.1978 845.761C78.1978 843.716 77.0046 842.369 75.2319 842.369C73.4592 842.369 72.266 843.716 72.266 845.761C72.266 847.79 73.4592 849.136 75.2319 849.136ZM75.2319 848.233C73.8853 848.233 73.2717 847.074 73.2717 845.761C73.2717 844.449 73.8853 843.273 75.2319 843.273C76.5785 843.273 77.1921 844.449 77.1921 845.761C77.1921 847.074 76.5785 848.233 75.2319 848.233ZM80.7386 840.273H79.733V849H80.7386V840.273ZM85.2397 849.136C87.0124 849.136 88.2056 847.79 88.2056 845.761C88.2056 843.716 87.0124 842.369 85.2397 842.369C83.467 842.369 82.2738 843.716 82.2738 845.761C82.2738 847.79 83.467 849.136 85.2397 849.136ZM85.2397 848.233C83.8931 848.233 83.2795 847.074 83.2795 845.761C83.2795 844.449 83.8931 843.273 85.2397 843.273C86.5863 843.273 87.1999 844.449 87.1999 845.761C87.1999 847.074 86.5863 848.233 85.2397 848.233ZM94.1214 840.273H93.1158V849H94.1214V840.273ZM98.7077 849.136C100.037 849.136 101.009 848.472 101.316 847.483L100.344 847.21C100.088 847.892 99.4961 848.233 98.7077 848.233C97.5273 848.233 96.7134 847.47 96.6665 846.068H101.418V845.642C101.418 843.205 99.9691 842.369 98.6055 842.369C96.8327 842.369 95.6566 843.767 95.6566 845.778C95.6566 847.79 96.8157 849.136 98.7077 849.136ZM96.6665 845.199C96.7347 844.18 97.4549 843.273 98.6055 843.273C99.6964 843.273 100.395 844.091 100.395 845.199H96.6665ZM105.794 842.455H104.397V840.886H103.391V842.455H102.402V843.307H103.391V847.398C103.391 848.54 104.311 849.085 105.164 849.085C105.539 849.085 105.777 849.017 105.914 848.966L105.709 848.062C105.624 848.08 105.488 848.114 105.266 848.114C104.823 848.114 104.397 847.977 104.397 847.125V843.307H105.794V842.455ZM107.307 849H108.313V844.858C108.313 843.972 109.012 843.324 109.966 843.324C110.235 843.324 110.512 843.375 110.58 843.392V842.369C110.465 842.361 110.201 842.352 110.051 842.352C109.267 842.352 108.586 842.795 108.347 843.443H108.279V842.455H107.307V849ZM113.698 849.153C114.84 849.153 115.437 848.54 115.641 848.114H115.692V849H116.698V844.688C116.698 842.608 115.113 842.369 114.278 842.369C113.289 842.369 112.164 842.71 111.653 843.903L112.607 844.244C112.829 843.767 113.353 843.256 114.312 843.256C115.237 843.256 115.692 843.746 115.692 844.585V844.619C115.692 845.105 115.198 845.062 114.005 845.216C112.79 845.374 111.465 845.642 111.465 847.142C111.465 848.42 112.454 849.153 113.698 849.153ZM113.852 848.25C113.05 848.25 112.471 847.892 112.471 847.193C112.471 846.426 113.17 846.188 113.954 846.085C114.38 846.034 115.522 845.915 115.692 845.71V846.631C115.692 847.449 115.045 848.25 113.852 848.25ZM123.17 843.92C122.855 842.991 122.147 842.369 120.852 842.369C119.471 842.369 118.449 843.153 118.449 844.261C118.449 845.165 118.985 845.77 120.187 846.051L121.278 846.307C121.939 846.46 122.25 846.776 122.25 847.227C122.25 847.79 121.653 848.25 120.716 848.25C119.893 848.25 119.377 847.896 119.199 847.193L118.244 847.432C118.478 848.544 119.395 849.136 120.733 849.136C122.254 849.136 123.289 848.305 123.289 847.176C123.289 846.264 122.718 845.689 121.551 845.403L120.579 845.165C119.804 844.973 119.454 844.713 119.454 844.21C119.454 843.648 120.051 843.239 120.852 843.239C121.73 843.239 122.092 843.724 122.267 844.176L123.17 843.92ZM128.178 849H129.184V844.909C129.184 843.95 129.883 843.273 130.667 843.273C131.43 843.273 131.962 843.771 131.962 844.517V849H132.985V844.739C132.985 843.895 133.513 843.273 134.434 843.273C135.15 843.273 135.763 843.652 135.763 844.619V849H136.769V844.619C136.769 843.081 135.942 842.369 134.775 842.369C133.837 842.369 133.151 842.8 132.815 843.477H132.746C132.423 842.778 131.852 842.369 130.991 842.369C130.138 842.369 129.508 842.778 129.235 843.477H129.15V842.455H128.178V849ZM138.608 849H139.614V842.455H138.608V849ZM139.119 841.364C139.511 841.364 139.835 841.057 139.835 840.682C139.835 840.307 139.511 840 139.119 840C138.727 840 138.403 840.307 138.403 840.682C138.403 841.057 138.727 841.364 139.119 841.364ZM142.461 845.062C142.461 843.92 143.169 843.273 144.132 843.273C145.065 843.273 145.632 843.882 145.632 844.909V849H146.637V844.841C146.637 843.17 145.747 842.369 144.422 842.369C143.433 842.369 142.819 842.812 142.512 843.477H142.427V842.455H141.456V849H142.461V845.062ZM152.6 846.324C152.6 847.551 151.663 848.114 150.913 848.114C150.077 848.114 149.481 847.5 149.481 846.545V842.455H148.475V846.614C148.475 848.284 149.362 849.085 150.589 849.085C151.577 849.085 152.225 848.557 152.532 847.892H152.6V849H153.606V842.455H152.6V846.324ZM150.589 841.568H151.475L152.805 839.591H151.629L150.589 841.568ZM160.084 843.92C159.769 842.991 159.061 842.369 157.766 842.369C156.385 842.369 155.363 843.153 155.363 844.261C155.363 845.165 155.9 845.77 157.101 846.051L158.192 846.307C158.853 846.46 159.164 846.776 159.164 847.227C159.164 847.79 158.567 848.25 157.63 848.25C156.807 848.25 156.292 847.896 156.113 847.193L155.158 847.432C155.392 848.544 156.309 849.136 157.647 849.136C159.168 849.136 160.203 848.305 160.203 847.176C160.203 846.264 159.632 845.689 158.465 845.403L157.493 845.165C156.718 844.973 156.368 844.713 156.368 844.21C156.368 843.648 156.965 843.239 157.766 843.239C158.644 843.239 159.006 843.724 159.181 844.176L160.084 843.92ZM164.376 849.136C165.825 849.136 166.78 848.25 166.95 847.091H165.945C165.757 847.807 165.161 848.233 164.376 848.233C163.183 848.233 162.416 847.244 162.416 845.727C162.416 844.244 163.2 843.273 164.376 843.273C165.263 843.273 165.791 843.818 165.945 844.415H166.95C166.78 843.188 165.74 842.369 164.359 842.369C162.587 842.369 161.411 843.767 161.411 845.761C161.411 847.722 162.536 849.136 164.376 849.136ZM172.545 846.324C172.545 847.551 171.608 848.114 170.858 848.114C170.023 848.114 169.426 847.5 169.426 846.545V842.455H168.42V846.614C168.42 848.284 169.307 849.085 170.534 849.085C171.523 849.085 172.17 848.557 172.477 847.892H172.545V849H173.551V842.455H172.545V846.324ZM176.399 840.273H175.393V849H176.399V840.273ZM180.167 849.153C181.309 849.153 181.906 848.54 182.11 848.114H182.161V849H183.167V844.688C183.167 842.608 181.582 842.369 180.746 842.369C179.758 842.369 178.633 842.71 178.121 843.903L179.076 844.244C179.298 843.767 179.822 843.256 180.781 843.256C181.705 843.256 182.161 843.746 182.161 844.585V844.619C182.161 845.105 181.667 845.062 180.474 845.216C179.259 845.374 177.934 845.642 177.934 847.142C177.934 848.42 178.923 849.153 180.167 849.153ZM180.32 848.25C179.519 848.25 178.94 847.892 178.94 847.193C178.94 846.426 179.638 846.188 180.423 846.085C180.849 846.034 181.991 845.915 182.161 845.71V846.631C182.161 847.449 181.513 848.25 180.32 848.25ZM189.639 843.92C189.324 842.991 188.616 842.369 187.321 842.369C185.94 842.369 184.917 843.153 184.917 844.261C184.917 845.165 185.454 845.77 186.656 846.051L187.747 846.307C188.407 846.46 188.718 846.776 188.718 847.227C188.718 847.79 188.122 848.25 187.184 848.25C186.362 848.25 185.846 847.896 185.667 847.193L184.713 847.432C184.947 848.544 185.863 849.136 187.201 849.136C188.723 849.136 189.758 848.305 189.758 847.176C189.758 846.264 189.187 845.689 188.02 845.403L187.048 845.165C186.272 844.973 185.923 844.713 185.923 844.21C185.923 843.648 186.52 843.239 187.321 843.239C188.199 843.239 188.561 843.724 188.735 844.176L189.639 843.92ZM195.295 851.455C196.202 851.455 196.842 850.973 197.221 849.955L200.008 842.472L198.908 842.455L197.102 847.67H197.033L195.227 842.455H194.136L196.556 849.034L196.369 849.545C196.002 850.543 195.55 850.636 194.817 850.449L194.562 851.335C194.664 851.386 194.954 851.455 195.295 851.455ZM209.35 843.92C209.034 842.991 208.327 842.369 207.032 842.369C205.651 842.369 204.628 843.153 204.628 844.261C204.628 845.165 205.165 845.77 206.367 846.051L207.458 846.307C208.118 846.46 208.429 846.776 208.429 847.227C208.429 847.79 207.833 848.25 206.895 848.25C206.073 848.25 205.557 847.896 205.378 847.193L204.424 847.432C204.658 848.544 205.574 849.136 206.912 849.136C208.434 849.136 209.469 848.305 209.469 847.176C209.469 846.264 208.898 845.689 207.73 845.403L206.759 845.165C205.983 844.973 205.634 844.713 205.634 844.21C205.634 843.648 206.23 843.239 207.032 843.239C207.909 843.239 208.272 843.724 208.446 844.176L209.35 843.92ZM210.983 849H211.989V842.455H210.983V849ZM211.494 841.364C211.886 841.364 212.21 841.057 212.21 840.682C212.21 840.307 211.886 840 211.494 840C211.102 840 210.778 840.307 210.778 840.682C210.778 841.057 211.102 841.364 211.494 841.364ZM214.836 845.062C214.836 843.92 215.544 843.273 216.507 843.273C217.44 843.273 218.007 843.882 218.007 844.909V849H219.012V844.841C219.012 843.17 218.122 842.369 216.797 842.369C215.808 842.369 215.194 842.812 214.887 843.477H214.802V842.455H213.831V849H214.836V845.062ZM226.151 849.153C227.293 849.153 227.89 848.54 228.094 848.114H228.146V849H229.151V844.688C229.151 842.608 227.566 842.369 226.731 842.369C225.742 842.369 224.617 842.71 224.106 843.903L225.06 844.244C225.282 843.767 225.806 843.256 226.765 843.256C227.69 843.256 228.146 843.746 228.146 844.585V844.619C228.146 845.105 227.651 845.062 226.458 845.216C225.244 845.374 223.918 845.642 223.918 847.142C223.918 848.42 224.907 849.153 226.151 849.153ZM226.305 848.25C225.504 848.25 224.924 847.892 224.924 847.193C224.924 846.426 225.623 846.188 226.407 846.085C226.833 846.034 227.975 845.915 228.146 845.71V846.631C228.146 847.449 227.498 848.25 226.305 848.25ZM233.646 849.136C235.095 849.136 236.049 848.25 236.22 847.091H235.214C235.027 847.807 234.43 848.233 233.646 848.233C232.453 848.233 231.686 847.244 231.686 845.727C231.686 844.244 232.47 843.273 233.646 843.273C234.532 843.273 235.061 843.818 235.214 844.415H236.22C236.049 843.188 235.01 842.369 233.629 842.369C231.856 842.369 230.68 843.767 230.68 845.761C230.68 847.722 231.805 849.136 233.646 849.136ZM240.434 849.136C241.764 849.136 242.735 848.472 243.042 847.483L242.071 847.21C241.815 847.892 241.223 848.233 240.434 848.233C239.254 848.233 238.44 847.47 238.393 846.068H243.145V845.642C243.145 843.205 241.696 842.369 240.332 842.369C238.559 842.369 237.383 843.767 237.383 845.778C237.383 847.79 238.542 849.136 240.434 849.136ZM238.393 845.199C238.461 844.18 239.181 843.273 240.332 843.273C241.423 843.273 242.122 844.091 242.122 845.199H238.393ZM245.68 845.062C245.68 843.92 246.387 843.273 247.35 843.273C248.284 843.273 248.85 843.882 248.85 844.909V849H249.856V844.841C249.856 843.17 248.966 842.369 247.64 842.369C246.652 842.369 246.038 842.812 245.731 843.477H245.646V842.455H244.674V849H245.68V845.062ZM254.54 842.455H253.143V840.886H252.137V842.455H251.148V843.307H252.137V847.398C252.137 848.54 253.058 849.085 253.91 849.085C254.285 849.085 254.523 849.017 254.66 848.966L254.455 848.062C254.37 848.08 254.234 848.114 254.012 848.114C253.569 848.114 253.143 847.977 253.143 847.125V843.307H254.54V842.455ZM258.642 849.136C260.415 849.136 261.608 847.79 261.608 845.761C261.608 843.716 260.415 842.369 258.642 842.369C256.869 842.369 255.676 843.716 255.676 845.761C255.676 847.79 256.869 849.136 258.642 849.136ZM258.642 848.233C257.295 848.233 256.682 847.074 256.682 845.761C256.682 844.449 257.295 843.273 258.642 843.273C259.989 843.273 260.602 844.449 260.602 845.761C260.602 847.074 259.989 848.233 258.642 848.233ZM267.779 843.92C267.464 842.991 266.757 842.369 265.461 842.369C264.081 842.369 263.058 843.153 263.058 844.261C263.058 845.165 263.595 845.77 264.797 846.051L265.887 846.307C266.548 846.46 266.859 846.776 266.859 847.227C266.859 847.79 266.262 848.25 265.325 848.25C264.502 848.25 263.987 847.896 263.808 847.193L262.853 847.432C263.088 848.544 264.004 849.136 265.342 849.136C266.863 849.136 267.899 848.305 267.899 847.176C267.899 846.264 267.328 845.689 266.16 845.403L265.189 845.165C264.413 844.973 264.064 844.713 264.064 844.21C264.064 843.648 264.66 843.239 265.461 843.239C266.339 843.239 266.701 843.724 266.876 844.176L267.779 843.92Z" fill="#495057"/>
<path d="M40 894C40 880.745 50.7452 870 64 870H348C361.255 870 372 880.745 372 894V913C372 926.255 361.255 937 348 937H64C50.7452 937 40 926.255 40 913V894Z" fill="#0A3871"/>
<path d="M173.339 909H180.452V907.75H174.748V903.795H179.998V902.545H174.748V898.614H180.362V897.364H173.339V909ZM184.06 903.75C184.06 902.227 185.004 901.364 186.288 901.364C187.532 901.364 188.288 902.176 188.288 903.545V909H189.629V903.455C189.629 901.227 188.441 900.159 186.674 900.159C185.356 900.159 184.538 900.75 184.129 901.636H184.015V900.273H182.719V909H184.06V903.75ZM195.624 909.182C197.556 909.182 198.829 908 199.056 906.455H197.715C197.465 907.409 196.67 907.977 195.624 907.977C194.033 907.977 193.011 906.659 193.011 904.636C193.011 902.659 194.056 901.364 195.624 901.364C196.806 901.364 197.511 902.091 197.715 902.886H199.056C198.829 901.25 197.442 900.159 195.602 900.159C193.238 900.159 191.67 902.023 191.67 904.682C191.67 907.295 193.17 909.182 195.624 909.182ZM201.016 909H202.357V903.477C202.357 902.295 203.289 901.432 204.562 901.432C204.92 901.432 205.289 901.5 205.38 901.523V900.159C205.227 900.148 204.874 900.136 204.675 900.136C203.63 900.136 202.721 900.727 202.403 901.591H202.312V900.273H201.016V909ZM206.969 909H208.31V900.273H206.969V909ZM207.651 898.818C208.174 898.818 208.606 898.409 208.606 897.909C208.606 897.409 208.174 897 207.651 897C207.129 897 206.697 897.409 206.697 897.909C206.697 898.409 207.129 898.818 207.651 898.818ZM210.766 912.273H212.107V907.659H212.221C212.516 908.136 213.085 909.182 214.766 909.182C216.948 909.182 218.471 907.432 218.471 904.659C218.471 901.909 216.948 900.159 214.744 900.159C213.039 900.159 212.516 901.205 212.221 901.659H212.062V900.273H210.766V912.273ZM212.085 904.636C212.085 902.682 212.948 901.364 214.585 901.364C216.289 901.364 217.13 902.795 217.13 904.636C217.13 906.5 216.266 907.977 214.585 907.977C212.971 907.977 212.085 906.614 212.085 904.636ZM224.312 900.273H222.448V898.182H221.107V900.273H219.789V901.409H221.107V906.864C221.107 908.386 222.335 909.114 223.471 909.114C223.971 909.114 224.289 909.023 224.471 908.955L224.198 907.75C224.085 907.773 223.903 907.818 223.607 907.818C223.016 907.818 222.448 907.636 222.448 906.5V901.409H224.312V900.273ZM228.897 909.205C230.42 909.205 231.215 908.386 231.488 907.818H231.556V909H232.897V903.25C232.897 900.477 230.783 900.159 229.67 900.159C228.352 900.159 226.852 900.614 226.17 902.205L227.442 902.659C227.738 902.023 228.437 901.341 229.715 901.341C230.948 901.341 231.556 901.994 231.556 903.114V903.159C231.556 903.807 230.897 903.75 229.306 903.955C227.687 904.165 225.92 904.523 225.92 906.523C225.92 908.227 227.238 909.205 228.897 909.205ZM229.102 908C228.033 908 227.261 907.523 227.261 906.591C227.261 905.568 228.192 905.25 229.238 905.114C229.806 905.045 231.329 904.886 231.556 904.614V905.841C231.556 906.932 230.692 908 229.102 908ZM235.344 909H236.685V903.477C236.685 902.295 237.617 901.432 238.89 901.432C239.248 901.432 239.617 901.5 239.708 901.523V900.159C239.555 900.148 239.202 900.136 239.004 900.136C237.958 900.136 237.049 900.727 236.731 901.591H236.64V900.273H235.344V909Z" fill="white"/>
<path d="M518.469 909C522.014 909 524.014 906.795 524.014 903.159C524.014 899.545 522.014 897.364 518.628 897.364H514.878V909H518.469ZM516.287 907.75V898.614H518.537C521.264 898.614 522.651 900.341 522.651 903.159C522.651 906 521.264 907.75 518.378 907.75H516.287ZM529.855 909.182C531.628 909.182 532.923 908.295 533.332 906.977L532.037 906.614C531.696 907.523 530.906 907.977 529.855 907.977C528.281 907.977 527.196 906.96 527.134 905.091H533.469V904.523C533.469 901.273 531.537 900.159 529.719 900.159C527.355 900.159 525.787 902.023 525.787 904.705C525.787 907.386 527.332 909.182 529.855 909.182ZM527.134 903.932C527.224 902.574 528.185 901.364 529.719 901.364C531.173 901.364 532.105 902.455 532.105 903.932H527.134ZM541.69 902.227C541.27 900.989 540.327 900.159 538.599 900.159C536.759 900.159 535.395 901.205 535.395 902.682C535.395 903.886 536.111 904.693 537.713 905.068L539.168 905.409C540.048 905.614 540.463 906.034 540.463 906.636C540.463 907.386 539.668 908 538.418 908C537.321 908 536.634 907.528 536.395 906.591L535.122 906.909C535.435 908.392 536.656 909.182 538.44 909.182C540.469 909.182 541.849 908.074 541.849 906.568C541.849 905.352 541.088 904.585 539.531 904.205L538.236 903.886C537.202 903.631 536.736 903.284 536.736 902.614C536.736 901.864 537.531 901.318 538.599 901.318C539.77 901.318 540.253 901.966 540.486 902.568L541.69 902.227ZM547.527 909.182C549.3 909.182 550.595 908.295 551.004 906.977L549.709 906.614C549.368 907.523 548.578 907.977 547.527 907.977C545.953 907.977 544.868 906.96 544.805 905.091H551.141V904.523C551.141 901.273 549.209 900.159 547.391 900.159C545.027 900.159 543.459 902.023 543.459 904.705C543.459 907.386 545.004 909.182 547.527 909.182ZM544.805 903.932C544.896 902.574 545.857 901.364 547.391 901.364C548.845 901.364 549.777 902.455 549.777 903.932H544.805ZM554.521 903.75C554.521 902.227 555.464 901.364 556.749 901.364C557.993 901.364 558.749 902.176 558.749 903.545V909H560.089V903.455C560.089 901.227 558.902 900.159 557.135 900.159C555.817 900.159 554.999 900.75 554.589 901.636H554.476V900.273H553.18V909H554.521V903.75ZM566.085 909.182C568.017 909.182 569.29 908 569.517 906.455H568.176C567.926 907.409 567.131 907.977 566.085 907.977C564.494 907.977 563.472 906.659 563.472 904.636C563.472 902.659 564.517 901.364 566.085 901.364C567.267 901.364 567.972 902.091 568.176 902.886H569.517C569.29 901.25 567.903 900.159 566.062 900.159C563.699 900.159 562.131 902.023 562.131 904.682C562.131 907.295 563.631 909.182 566.085 909.182ZM571.477 909H572.818V903.477C572.818 902.295 573.75 901.432 575.023 901.432C575.381 901.432 575.75 901.5 575.841 901.523V900.159C575.688 900.148 575.335 900.136 575.136 900.136C574.091 900.136 573.182 900.727 572.864 901.591H572.773V900.273H571.477V909ZM577.43 909H578.771V900.273H577.43V909ZM578.112 898.818C578.635 898.818 579.067 898.409 579.067 897.909C579.067 897.409 578.635 897 578.112 897C577.589 897 577.158 897.409 577.158 897.909C577.158 898.409 577.589 898.818 578.112 898.818ZM581.227 912.273H582.568V907.659H582.682C582.977 908.136 583.545 909.182 585.227 909.182C587.409 909.182 588.932 907.432 588.932 904.659C588.932 901.909 587.409 900.159 585.205 900.159C583.5 900.159 582.977 901.205 582.682 901.659H582.523V900.273H581.227V912.273ZM582.545 904.636C582.545 902.682 583.409 901.364 585.045 901.364C586.75 901.364 587.591 902.795 587.591 904.636C587.591 906.5 586.727 907.977 585.045 907.977C583.432 907.977 582.545 906.614 582.545 904.636ZM594.773 900.273H592.909V898.182H591.568V900.273H590.25V901.409H591.568V906.864C591.568 908.386 592.795 909.114 593.932 909.114C594.432 909.114 594.75 909.023 594.932 908.955L594.659 907.75C594.545 907.773 594.364 907.818 594.068 907.818C593.477 907.818 592.909 907.636 592.909 906.5V901.409H594.773V900.273ZM599.358 909.205C600.881 909.205 601.676 908.386 601.949 907.818H602.017V909H603.358V903.25C603.358 900.477 601.244 900.159 600.131 900.159C598.812 900.159 597.312 900.614 596.631 902.205L597.903 902.659C598.199 902.023 598.898 901.341 600.176 901.341C601.409 901.341 602.017 901.994 602.017 903.114V903.159C602.017 903.807 601.358 903.75 599.767 903.955C598.148 904.165 596.381 904.523 596.381 906.523C596.381 908.227 597.699 909.205 599.358 909.205ZM599.562 908C598.494 908 597.722 907.523 597.722 906.591C597.722 905.568 598.653 905.25 599.699 905.114C600.267 905.045 601.79 904.886 602.017 904.614V905.841C602.017 906.932 601.153 908 599.562 908ZM605.805 909H607.146V903.477C607.146 902.295 608.078 901.432 609.351 901.432C609.709 901.432 610.078 901.5 610.169 901.523V900.159C610.016 900.148 609.663 900.136 609.464 900.136C608.419 900.136 607.51 900.727 607.192 901.591H607.101V900.273H605.805V909Z" fill="#0A3871"/>
<path d="M420 871H704V869H420V871ZM727 894V913H729V894H727ZM704 936H420V938H704V936ZM397 913V894H395V913H397ZM420 936C407.297 936 397 925.703 397 913H395C395 926.807 406.193 938 420 938V936ZM727 913C727 925.703 716.703 936 704 936V938C717.807 938 729 926.807 729 913H727ZM704 871C716.703 871 727 881.297 727 894H729C729 880.193 717.807 869 704 869V871ZM420 869C406.193 869 395 880.193 395 894H397C397 881.297 407.297 871 420 871V869Z" fill="#0A3871"/>
<g filter="url(#filter0_d_10_165)">
<rect x="40" y="1001" width="688" height="133" rx="32" fill="white"/>
<path d="M212.874 1038.55H209.201V1049.52H209.048L201.513 1038.55H198.275V1056H201.965V1045.01H202.093L209.687 1056H212.874V1038.55ZM215.855 1056H219.486V1042.91H215.855V1056ZM217.679 1041.22C218.761 1041.22 219.648 1040.39 219.648 1039.38C219.648 1038.38 218.761 1037.55 217.679 1037.55C216.605 1037.55 215.719 1038.38 215.719 1039.38C215.719 1040.39 216.605 1041.22 217.679 1041.22ZM226.025 1048.43C226.033 1046.74 227.039 1045.76 228.505 1045.76C229.962 1045.76 230.84 1046.71 230.832 1048.31V1056H234.462V1047.66C234.462 1044.61 232.673 1042.74 229.945 1042.74C228.002 1042.74 226.596 1043.69 226.008 1045.22H225.854V1042.91H222.394V1056H226.025V1048.43ZM243.222 1061.18C246.963 1061.18 249.622 1059.48 249.622 1056.13V1042.91H246.017V1045.11H245.881C245.395 1044.04 244.33 1042.74 242.139 1042.74C239.267 1042.74 236.838 1044.97 236.838 1049.43C236.838 1053.78 239.199 1055.81 242.148 1055.81C244.236 1055.81 245.403 1054.76 245.881 1053.68H246.034V1056.08C246.034 1057.88 244.884 1058.57 243.307 1058.57C241.705 1058.57 240.895 1057.88 240.597 1057.08L237.239 1057.53C237.673 1059.6 239.693 1061.18 243.222 1061.18ZM243.298 1053.09C241.517 1053.09 240.545 1051.67 240.545 1049.41C240.545 1047.19 241.5 1045.63 243.298 1045.63C245.062 1045.63 246.051 1047.12 246.051 1049.41C246.051 1051.72 245.045 1053.09 243.298 1053.09ZM260.906 1050.43C260.915 1052.18 259.713 1053.1 258.409 1053.1C257.037 1053.1 256.151 1052.14 256.142 1050.6V1042.91H252.511V1051.24C252.52 1054.3 254.31 1056.17 256.943 1056.17C258.912 1056.17 260.327 1055.16 260.915 1053.62H261.051V1056H264.537V1042.91H260.906V1050.43ZM257.233 1041.22H259.798L262.398 1037.34H259.04L257.233 1041.22ZM271.072 1048.43C271.08 1046.74 272.086 1045.76 273.552 1045.76C275.009 1045.76 275.887 1046.71 275.879 1048.31V1056H279.509V1047.66C279.509 1044.61 277.719 1042.74 274.992 1042.74C273.049 1042.74 271.643 1043.69 271.055 1045.22H270.901V1042.91H267.441V1056H271.072V1048.43ZM287.925 1056H291.556V1048.14C291.556 1046.69 292.477 1045.73 293.687 1045.73C294.88 1045.73 295.681 1046.55 295.681 1047.84V1056H299.201V1048.01C299.201 1046.65 299.977 1045.73 301.298 1045.73C302.457 1045.73 303.326 1046.45 303.326 1047.91V1056H306.948V1047.2C306.948 1044.36 305.261 1042.74 302.823 1042.74C300.906 1042.74 299.414 1043.72 298.877 1045.22H298.741C298.323 1043.7 296.985 1042.74 295.187 1042.74C293.423 1042.74 292.085 1043.68 291.539 1045.22H291.386V1042.91H287.925V1056ZM315.782 1056.26C319.021 1056.26 321.202 1054.68 321.714 1052.25L318.356 1052.03C317.989 1053.03 317.052 1053.55 315.842 1053.55C314.026 1053.55 312.876 1052.34 312.876 1050.39V1050.38H321.79V1049.39C321.79 1044.94 319.097 1042.74 315.637 1042.74C311.785 1042.74 309.288 1045.47 309.288 1049.51C309.288 1053.66 311.751 1056.26 315.782 1056.26ZM312.876 1048.13C312.952 1046.64 314.086 1045.45 315.697 1045.45C317.273 1045.45 318.364 1046.57 318.373 1048.13H312.876ZM327.79 1048.43C327.799 1046.74 328.805 1045.76 330.271 1045.76C331.728 1045.76 332.606 1046.71 332.597 1048.31V1056H336.228V1047.66C336.228 1044.61 334.438 1042.74 331.711 1042.74C329.768 1042.74 328.362 1043.69 327.773 1045.22H327.62V1042.91H324.16V1056H327.79V1048.43ZM349.982 1046.64C349.658 1044.23 347.714 1042.74 344.408 1042.74C341.058 1042.74 338.851 1044.29 338.859 1046.81C338.851 1048.77 340.087 1050.04 342.643 1050.55L344.911 1051.01C346.053 1051.24 346.572 1051.65 346.589 1052.31C346.572 1053.09 345.729 1053.64 344.459 1053.64C343.163 1053.64 342.303 1053.09 342.081 1052.02L338.51 1052.21C338.851 1054.71 340.982 1056.26 344.45 1056.26C347.842 1056.26 350.271 1054.53 350.28 1051.94C350.271 1050.05 349.036 1048.92 346.496 1048.4L344.126 1047.92C342.908 1047.66 342.456 1047.24 342.464 1046.61C342.456 1045.82 343.342 1045.31 344.467 1045.31C345.729 1045.31 346.479 1046 346.658 1046.85L349.982 1046.64ZM356.299 1056.25C358.234 1056.25 359.487 1055.4 360.126 1054.18H360.228V1056H363.671V1047.17C363.671 1044.05 361.029 1042.74 358.114 1042.74C354.978 1042.74 352.915 1044.24 352.413 1046.62L355.771 1046.9C356.018 1046.03 356.793 1045.39 358.097 1045.39C359.333 1045.39 360.04 1046.01 360.04 1047.09V1047.14C360.04 1047.98 359.146 1048.09 356.87 1048.31C354.279 1048.55 351.952 1049.42 351.952 1052.34C351.952 1054.93 353.802 1056.25 356.299 1056.25ZM357.339 1053.74C356.222 1053.74 355.421 1053.22 355.421 1052.22C355.421 1051.2 356.265 1050.7 357.543 1050.52C358.336 1050.41 359.631 1050.22 360.066 1049.93V1051.32C360.066 1052.69 358.933 1053.74 357.339 1053.74ZM366.488 1042.91V1056.59C366.488 1057.58 366.07 1058.07 364.903 1058.07C364.749 1058.07 364.613 1058.07 364.425 1058.05V1060.89C364.69 1060.9 364.903 1060.91 365.158 1060.91C368.244 1060.91 370.119 1059.68 370.119 1056.65V1042.91H366.488ZM368.295 1041.22C369.377 1041.22 370.263 1040.39 370.263 1039.38C370.263 1038.38 369.377 1037.55 368.295 1037.55C367.221 1037.55 366.335 1038.38 366.335 1039.38C366.335 1040.39 367.221 1041.22 368.295 1041.22ZM378.993 1056.26C382.232 1056.26 384.413 1054.68 384.925 1052.25L381.567 1052.03C381.2 1053.03 380.263 1053.55 379.053 1053.55C377.237 1053.55 376.087 1052.34 376.087 1050.39V1050.38H385.001V1049.39C385.001 1044.94 382.308 1042.74 378.848 1042.74C374.996 1042.74 372.499 1045.47 372.499 1049.51C372.499 1053.66 374.962 1056.26 378.993 1056.26ZM376.087 1048.13C376.163 1046.64 377.297 1045.45 378.908 1045.45C380.484 1045.45 381.575 1046.57 381.584 1048.13H376.087ZM399.965 1042.91H397.366V1042.03C397.366 1041.14 397.724 1040.62 398.789 1040.62C399.224 1040.62 399.667 1040.72 399.957 1040.81L400.596 1038.09C400.144 1037.95 399.147 1037.73 398.031 1037.73C395.567 1037.73 393.735 1039.12 393.735 1041.96V1042.91H391.886V1045.64H393.735V1056H397.366V1045.64H399.965V1042.91ZM410.578 1050.43C410.587 1052.18 409.385 1053.1 408.081 1053.1C406.709 1053.1 405.822 1052.14 405.814 1050.6V1042.91H402.183V1051.24C402.192 1054.3 403.982 1056.17 406.615 1056.17C408.584 1056.17 409.999 1055.16 410.587 1053.62H410.723V1056H414.209V1042.91H410.578V1050.43ZM423.079 1056.26C426.317 1056.26 428.499 1054.68 429.011 1052.25L425.653 1052.03C425.286 1053.03 424.349 1053.55 423.138 1053.55C421.323 1053.55 420.173 1052.34 420.173 1050.39V1050.38H429.087V1049.39C429.087 1044.94 426.394 1042.74 422.934 1042.74C419.082 1042.74 416.585 1045.47 416.585 1049.51C416.585 1053.66 419.048 1056.26 423.079 1056.26ZM420.173 1048.13C420.249 1046.64 421.383 1045.45 422.994 1045.45C424.57 1045.45 425.661 1046.57 425.67 1048.13H420.173ZM442.977 1056.26C446.216 1056.26 448.398 1054.68 448.909 1052.25L445.551 1052.03C445.185 1053.03 444.247 1053.55 443.037 1053.55C441.222 1053.55 440.071 1052.34 440.071 1050.39V1050.38H448.986V1049.39C448.986 1044.94 446.293 1042.74 442.832 1042.74C438.98 1042.74 436.483 1045.47 436.483 1049.51C436.483 1053.66 438.946 1056.26 442.977 1056.26ZM440.071 1048.13C440.148 1046.64 441.281 1045.45 442.892 1045.45C444.469 1045.45 445.56 1046.57 445.568 1048.13H440.071ZM454.986 1048.43C454.994 1046.74 456 1045.76 457.466 1045.76C458.923 1045.76 459.801 1046.71 459.793 1048.31V1056H463.423V1047.66C463.423 1044.61 461.634 1042.74 458.906 1042.74C456.963 1042.74 455.557 1043.69 454.969 1045.22H454.815V1042.91H451.355V1056H454.986V1048.43ZM472.2 1056.26C475.685 1056.26 477.876 1054.21 478.046 1051.2H474.62C474.407 1052.6 473.487 1053.38 472.242 1053.38C470.546 1053.38 469.447 1051.96 469.447 1049.45C469.447 1046.98 470.555 1045.57 472.242 1045.57C473.572 1045.57 474.424 1046.45 474.62 1047.75H478.046C477.893 1044.72 475.6 1042.74 472.183 1042.74C468.211 1042.74 465.756 1045.49 465.756 1049.51C465.756 1053.49 468.168 1056.26 472.2 1056.26ZM486.286 1056.26C490.257 1056.26 492.729 1053.54 492.729 1049.51C492.729 1045.45 490.257 1042.74 486.286 1042.74C482.314 1042.74 479.842 1045.45 479.842 1049.51C479.842 1053.54 482.314 1056.26 486.286 1056.26ZM486.303 1053.44C484.47 1053.44 483.533 1051.76 483.533 1049.48C483.533 1047.2 484.47 1045.51 486.303 1045.51C488.101 1045.51 489.038 1047.2 489.038 1049.48C489.038 1051.76 488.101 1053.44 486.303 1053.44ZM498.72 1048.43C498.729 1046.74 499.734 1045.76 501.2 1045.76C502.658 1045.76 503.536 1046.71 503.527 1048.31V1056H507.158V1047.66C507.158 1044.61 505.368 1042.74 502.641 1042.74C500.697 1042.74 499.291 1043.69 498.703 1045.22H498.55V1042.91H495.089V1056H498.72V1048.43ZM516.982 1042.91H514.519V1039.77H510.888V1042.91H509.099V1045.64H510.888V1052.45C510.871 1055.02 512.619 1056.29 515.252 1056.18C516.19 1056.14 516.854 1055.96 517.221 1055.84L516.65 1053.14C516.471 1053.17 516.087 1053.26 515.746 1053.26C515.022 1053.26 514.519 1052.98 514.519 1051.98V1045.64H516.982V1042.91ZM519.347 1056H522.978V1048.59C522.978 1046.98 524.154 1045.88 525.756 1045.88C526.259 1045.88 526.95 1045.96 527.29 1046.07V1042.85C526.967 1042.77 526.515 1042.72 526.148 1042.72C524.683 1042.72 523.481 1043.57 523.004 1045.19H522.867V1042.91H519.347V1056ZM532.526 1056.25C534.46 1056.25 535.713 1055.4 536.352 1054.18H536.455V1056H539.898V1047.17C539.898 1044.05 537.256 1042.74 534.341 1042.74C531.205 1042.74 529.142 1044.24 528.639 1046.62L531.997 1046.9C532.244 1046.03 533.02 1045.39 534.324 1045.39C535.56 1045.39 536.267 1046.01 536.267 1047.09V1047.14C536.267 1047.98 535.372 1048.09 533.097 1048.31C530.506 1048.55 528.179 1049.42 528.179 1052.34C528.179 1054.93 530.028 1056.25 532.526 1056.25ZM533.565 1053.74C532.449 1053.74 531.648 1053.22 531.648 1052.22C531.648 1051.2 532.491 1050.7 533.77 1050.52C534.562 1050.41 535.858 1050.22 536.293 1049.93V1051.32C536.293 1052.69 535.159 1053.74 533.565 1053.74ZM547.538 1056.21C549.652 1056.21 550.751 1054.99 551.254 1053.9H551.408V1056H554.987V1038.55H551.365V1045.11H551.254C550.768 1044.04 549.72 1042.74 547.53 1042.74C544.658 1042.74 542.229 1044.97 542.229 1049.47C542.229 1053.85 544.555 1056.21 547.538 1056.21ZM548.689 1053.32C546.908 1053.32 545.936 1051.74 545.936 1049.45C545.936 1047.19 546.891 1045.63 548.689 1045.63C550.453 1045.63 551.442 1047.12 551.442 1049.45C551.442 1051.79 550.436 1053.32 548.689 1053.32ZM563.887 1056.26C567.859 1056.26 570.33 1053.54 570.33 1049.51C570.33 1045.45 567.859 1042.74 563.887 1042.74C559.915 1042.74 557.444 1045.45 557.444 1049.51C557.444 1053.54 559.915 1056.26 563.887 1056.26ZM563.904 1053.44C562.072 1053.44 561.134 1051.76 561.134 1049.48C561.134 1047.2 562.072 1045.51 563.904 1045.51C565.702 1045.51 566.64 1047.2 566.64 1049.48C566.64 1051.76 565.702 1053.44 563.904 1053.44Z" fill="#343A40"/>
<path d="M187.654 1084.36H186.245V1096H187.654V1084.36ZM191.638 1090.75C191.638 1089.23 192.582 1088.36 193.866 1088.36C195.11 1088.36 195.866 1089.18 195.866 1090.55V1096H197.207V1090.45C197.207 1088.23 196.019 1087.16 194.252 1087.16C192.934 1087.16 192.116 1087.75 191.707 1088.64H191.593V1087.27H190.298V1096H191.638V1090.75ZM203.18 1099.45C205.271 1099.45 206.952 1098.5 206.952 1096.25V1087.27H205.657V1088.66H205.521C205.225 1088.2 204.68 1087.16 202.975 1087.16C200.771 1087.16 199.248 1088.91 199.248 1091.59C199.248 1094.32 200.839 1095.86 202.952 1095.86C204.657 1095.86 205.202 1094.86 205.498 1094.39H205.612V1096.16C205.612 1097.61 204.589 1098.27 203.18 1098.27C201.594 1098.27 201.038 1097.44 200.68 1096.95L199.612 1097.7C200.157 1098.62 201.231 1099.45 203.18 1099.45ZM203.134 1094.66C201.452 1094.66 200.589 1093.39 200.589 1091.57C200.589 1089.8 201.43 1088.36 203.134 1088.36C204.771 1088.36 205.634 1089.68 205.634 1091.57C205.634 1093.5 204.748 1094.66 203.134 1094.66ZM209.407 1096H210.748V1090.48C210.748 1089.3 211.68 1088.43 212.952 1088.43C213.31 1088.43 213.68 1088.5 213.771 1088.52V1087.16C213.617 1087.15 213.265 1087.14 213.066 1087.14C212.021 1087.14 211.112 1087.73 210.793 1088.59H210.702V1087.27H209.407V1096ZM218.754 1096.18C220.526 1096.18 221.822 1095.3 222.231 1093.98L220.935 1093.61C220.594 1094.52 219.805 1094.98 218.754 1094.98C217.18 1094.98 216.094 1093.96 216.032 1092.09H222.367V1091.52C222.367 1088.27 220.435 1087.16 218.617 1087.16C216.254 1087.16 214.685 1089.02 214.685 1091.7C214.685 1094.39 216.231 1096.18 218.754 1096.18ZM216.032 1090.93C216.123 1089.57 217.083 1088.36 218.617 1088.36C220.072 1088.36 221.004 1089.45 221.004 1090.93H216.032ZM230.589 1089.23C230.168 1087.99 229.225 1087.16 227.498 1087.16C225.657 1087.16 224.293 1088.2 224.293 1089.68C224.293 1090.89 225.009 1091.69 226.612 1092.07L228.066 1092.41C228.947 1092.61 229.362 1093.03 229.362 1093.64C229.362 1094.39 228.566 1095 227.316 1095C226.219 1095 225.532 1094.53 225.293 1093.59L224.021 1093.91C224.333 1095.39 225.555 1096.18 227.339 1096.18C229.367 1096.18 230.748 1095.07 230.748 1093.57C230.748 1092.35 229.987 1091.59 228.43 1091.2L227.134 1090.89C226.1 1090.63 225.634 1090.28 225.634 1089.61C225.634 1088.86 226.43 1088.32 227.498 1088.32C228.668 1088.32 229.151 1088.97 229.384 1089.57L230.589 1089.23ZM235.335 1096.2C236.857 1096.2 237.653 1095.39 237.925 1094.82H237.994V1096H239.335V1090.25C239.335 1087.48 237.221 1087.16 236.107 1087.16C234.789 1087.16 233.289 1087.61 232.607 1089.2L233.88 1089.66C234.175 1089.02 234.874 1088.34 236.153 1088.34C237.386 1088.34 237.994 1088.99 237.994 1090.11V1090.16C237.994 1090.81 237.335 1090.75 235.744 1090.95C234.124 1091.16 232.357 1091.52 232.357 1093.52C232.357 1095.23 233.675 1096.2 235.335 1096.2ZM235.539 1095C234.471 1095 233.698 1094.52 233.698 1093.59C233.698 1092.57 234.63 1092.25 235.675 1092.11C236.244 1092.05 237.766 1091.89 237.994 1091.61V1092.84C237.994 1093.93 237.13 1095 235.539 1095ZM249.941 1096.18C251.714 1096.18 253.009 1095.3 253.418 1093.98L252.123 1093.61C251.782 1094.52 250.992 1094.98 249.941 1094.98C248.367 1094.98 247.282 1093.96 247.219 1092.09H253.555V1091.52C253.555 1088.27 251.623 1087.16 249.805 1087.16C247.441 1087.16 245.873 1089.02 245.873 1091.7C245.873 1094.39 247.418 1096.18 249.941 1096.18ZM247.219 1090.93C247.31 1089.57 248.271 1088.36 249.805 1088.36C251.259 1088.36 252.191 1089.45 252.191 1090.93H247.219ZM256.935 1084.36H255.594V1096H256.935V1084.36ZM267.687 1087.27H265.823V1085.18H264.482V1087.27H263.164V1088.41H264.482V1093.86C264.482 1095.39 265.71 1096.11 266.846 1096.11C267.346 1096.11 267.664 1096.02 267.846 1095.95L267.573 1094.75C267.46 1094.77 267.278 1094.82 266.982 1094.82C266.391 1094.82 265.823 1094.64 265.823 1093.5V1088.41H267.687V1087.27ZM273.269 1096.18C275.042 1096.18 276.337 1095.3 276.746 1093.98L275.451 1093.61C275.11 1094.52 274.32 1094.98 273.269 1094.98C271.695 1094.98 270.61 1093.96 270.548 1092.09H276.883V1091.52C276.883 1088.27 274.951 1087.16 273.133 1087.16C270.769 1087.16 269.201 1089.02 269.201 1091.7C269.201 1094.39 270.746 1096.18 273.269 1096.18ZM270.548 1090.93C270.638 1089.57 271.599 1088.36 273.133 1088.36C274.587 1088.36 275.519 1089.45 275.519 1090.93H270.548ZM279.688 1087.27H278.143L280.915 1091.64L278.143 1096H279.688L281.779 1092.61L283.87 1096H285.415L282.597 1091.64L285.415 1087.27H283.87L281.779 1090.84L279.688 1087.27ZM291.124 1087.27H289.261V1085.18H287.92V1087.27H286.602V1088.41H287.92V1093.86C287.92 1095.39 289.147 1096.11 290.283 1096.11C290.783 1096.11 291.102 1096.02 291.283 1095.95L291.011 1094.75C290.897 1094.77 290.715 1094.82 290.42 1094.82C289.829 1094.82 289.261 1094.64 289.261 1093.5V1088.41H291.124V1087.27ZM296.593 1096.18C298.957 1096.18 300.548 1094.39 300.548 1091.68C300.548 1088.95 298.957 1087.16 296.593 1087.16C294.229 1087.16 292.638 1088.95 292.638 1091.68C292.638 1094.39 294.229 1096.18 296.593 1096.18ZM296.593 1094.98C294.798 1094.98 293.979 1093.43 293.979 1091.68C293.979 1089.93 294.798 1088.36 296.593 1088.36C298.388 1088.36 299.207 1089.93 299.207 1091.68C299.207 1093.43 298.388 1094.98 296.593 1094.98ZM314.39 1099.27V1087.27H313.094V1088.66H312.935C312.64 1088.2 312.117 1087.16 310.413 1087.16C308.208 1087.16 306.685 1088.91 306.685 1091.66C306.685 1094.43 308.208 1096.18 310.39 1096.18C312.072 1096.18 312.64 1095.14 312.935 1094.66H313.049V1099.27H314.39ZM313.072 1091.64C313.072 1093.61 312.185 1094.98 310.572 1094.98C308.89 1094.98 308.026 1093.5 308.026 1091.64C308.026 1089.8 308.867 1088.36 310.572 1088.36C312.208 1088.36 313.072 1089.68 313.072 1091.64ZM322.344 1092.43C322.344 1094.07 321.094 1094.82 320.094 1094.82C318.981 1094.82 318.185 1094 318.185 1092.73V1087.27H316.844V1092.82C316.844 1095.05 318.026 1096.11 319.663 1096.11C320.981 1096.11 321.844 1095.41 322.254 1094.52H322.344V1096H323.685V1087.27H322.344V1092.43ZM329.8 1096.18C331.573 1096.18 332.869 1095.3 333.278 1093.98L331.982 1093.61C331.641 1094.52 330.852 1094.98 329.8 1094.98C328.227 1094.98 327.141 1093.96 327.079 1092.09H333.414V1091.52C333.414 1088.27 331.482 1087.16 329.664 1087.16C327.3 1087.16 325.732 1089.02 325.732 1091.7C325.732 1094.39 327.278 1096.18 329.8 1096.18ZM327.079 1090.93C327.17 1089.57 328.13 1088.36 329.664 1088.36C331.119 1088.36 332.05 1089.45 332.05 1090.93H327.079ZM343.249 1096.18C344.931 1096.18 345.499 1095.14 345.795 1094.66H345.954V1096H347.249V1084.36H345.908V1088.66H345.795C345.499 1088.2 344.977 1087.16 343.272 1087.16C341.067 1087.16 339.545 1088.91 339.545 1091.66C339.545 1094.43 341.067 1096.18 343.249 1096.18ZM343.431 1094.98C341.749 1094.98 340.886 1093.5 340.886 1091.64C340.886 1089.8 341.727 1088.36 343.431 1088.36C345.067 1088.36 345.931 1089.68 345.931 1091.64C345.931 1093.61 345.045 1094.98 343.431 1094.98ZM353.55 1096.18C355.323 1096.18 356.619 1095.3 357.028 1093.98L355.732 1093.61C355.391 1094.52 354.602 1094.98 353.55 1094.98C351.977 1094.98 350.891 1093.96 350.829 1092.09H357.164V1091.52C357.164 1088.27 355.232 1087.16 353.414 1087.16C351.05 1087.16 349.482 1089.02 349.482 1091.7C349.482 1094.39 351.028 1096.18 353.55 1096.18ZM350.829 1090.93C350.92 1089.57 351.88 1088.36 353.414 1088.36C354.869 1088.36 355.8 1089.45 355.8 1090.93H350.829ZM365.386 1089.23C364.965 1087.99 364.022 1087.16 362.295 1087.16C360.454 1087.16 359.09 1088.2 359.09 1089.68C359.09 1090.89 359.806 1091.69 361.408 1092.07L362.863 1092.41C363.744 1092.61 364.158 1093.03 364.158 1093.64C364.158 1094.39 363.363 1095 362.113 1095C361.016 1095 360.329 1094.53 360.09 1093.59L358.817 1093.91C359.13 1095.39 360.352 1096.18 362.136 1096.18C364.164 1096.18 365.545 1095.07 365.545 1093.57C365.545 1092.35 364.783 1091.59 363.227 1091.2L361.931 1090.89C360.897 1090.63 360.431 1090.28 360.431 1089.61C360.431 1088.86 361.227 1088.32 362.295 1088.32C363.465 1088.32 363.948 1088.97 364.181 1089.57L365.386 1089.23ZM371.222 1096.18C372.995 1096.18 374.29 1095.3 374.7 1093.98L373.404 1093.61C373.063 1094.52 372.273 1094.98 371.222 1094.98C369.648 1094.98 368.563 1093.96 368.501 1092.09H374.836V1091.52C374.836 1088.27 372.904 1087.16 371.086 1087.16C368.722 1087.16 367.154 1089.02 367.154 1091.7C367.154 1094.39 368.7 1096.18 371.222 1096.18ZM368.501 1090.93C368.592 1089.57 369.552 1088.36 371.086 1088.36C372.54 1088.36 373.472 1089.45 373.472 1090.93H368.501ZM380.535 1096.18C382.308 1096.18 383.603 1095.3 384.012 1093.98L382.717 1093.61C382.376 1094.52 381.586 1094.98 380.535 1094.98C378.961 1094.98 377.876 1093.96 377.813 1092.09H384.148V1091.52C384.148 1088.27 382.217 1087.16 380.398 1087.16C378.035 1087.16 376.467 1089.02 376.467 1091.7C376.467 1094.39 378.012 1096.18 380.535 1096.18ZM377.813 1090.93C377.904 1089.57 378.864 1088.36 380.398 1088.36C381.853 1088.36 382.785 1089.45 382.785 1090.93H377.813ZM392.37 1089.23C391.95 1087.99 391.006 1087.16 389.279 1087.16C387.438 1087.16 386.075 1088.2 386.075 1089.68C386.075 1090.89 386.79 1091.69 388.393 1092.07L389.847 1092.41C390.728 1092.61 391.143 1093.03 391.143 1093.64C391.143 1094.39 390.347 1095 389.097 1095C388.001 1095 387.313 1094.53 387.075 1093.59L385.802 1093.91C386.114 1095.39 387.336 1096.18 389.12 1096.18C391.148 1096.18 392.529 1095.07 392.529 1093.57C392.529 1092.35 391.768 1091.59 390.211 1091.2L388.915 1090.89C387.881 1090.63 387.415 1090.28 387.415 1089.61C387.415 1088.86 388.211 1088.32 389.279 1088.32C390.45 1088.32 390.933 1088.97 391.165 1089.57L392.37 1089.23ZM402.707 1096.18C404.479 1096.18 405.775 1095.3 406.184 1093.98L404.888 1093.61C404.548 1094.52 403.758 1094.98 402.707 1094.98C401.133 1094.98 400.048 1093.96 399.985 1092.09H406.32V1091.52C406.32 1088.27 404.388 1087.16 402.57 1087.16C400.207 1087.16 398.638 1089.02 398.638 1091.7C398.638 1094.39 400.184 1096.18 402.707 1096.18ZM399.985 1090.93C400.076 1089.57 401.036 1088.36 402.57 1088.36C404.025 1088.36 404.957 1089.45 404.957 1090.93H399.985ZM409.701 1090.75C409.701 1089.23 410.644 1088.36 411.928 1088.36C413.173 1088.36 413.928 1089.18 413.928 1090.55V1096H415.269V1090.45C415.269 1088.23 414.082 1087.16 412.315 1087.16C410.996 1087.16 410.178 1087.75 409.769 1088.64H409.656V1087.27H408.36V1096H409.701V1090.75ZM421.265 1096.18C423.197 1096.18 424.469 1095 424.697 1093.45H423.356C423.106 1094.41 422.31 1094.98 421.265 1094.98C419.674 1094.98 418.651 1093.66 418.651 1091.64C418.651 1089.66 419.697 1088.36 421.265 1088.36C422.447 1088.36 423.151 1089.09 423.356 1089.89H424.697C424.469 1088.25 423.083 1087.16 421.242 1087.16C418.879 1087.16 417.31 1089.02 417.31 1091.68C417.31 1094.3 418.81 1096.18 421.265 1096.18ZM426.657 1096H427.998V1090.48C427.998 1089.3 428.93 1088.43 430.202 1088.43C430.56 1088.43 430.93 1088.5 431.021 1088.52V1087.16C430.867 1087.15 430.515 1087.14 430.316 1087.14C429.271 1087.14 428.362 1087.73 428.043 1088.59H427.952V1087.27H426.657V1096ZM432.61 1096H433.951V1087.27H432.61V1096ZM433.292 1085.82C433.815 1085.82 434.246 1085.41 434.246 1084.91C434.246 1084.41 433.815 1084 433.292 1084C432.769 1084 432.337 1084.41 432.337 1084.91C432.337 1085.41 432.769 1085.82 433.292 1085.82ZM436.407 1099.27H437.748V1094.66H437.862C438.157 1095.14 438.725 1096.18 440.407 1096.18C442.589 1096.18 444.112 1094.43 444.112 1091.66C444.112 1088.91 442.589 1087.16 440.384 1087.16C438.68 1087.16 438.157 1088.2 437.862 1088.66H437.702V1087.27H436.407V1099.27ZM437.725 1091.64C437.725 1089.68 438.589 1088.36 440.225 1088.36C441.93 1088.36 442.771 1089.8 442.771 1091.64C442.771 1093.5 441.907 1094.98 440.225 1094.98C438.612 1094.98 437.725 1093.61 437.725 1091.64ZM449.952 1087.27H448.089V1085.18H446.748V1087.27H445.43V1088.41H446.748V1093.86C446.748 1095.39 447.975 1096.11 449.112 1096.11C449.612 1096.11 449.93 1096.02 450.112 1095.95L449.839 1094.75C449.725 1094.77 449.543 1094.82 449.248 1094.82C448.657 1094.82 448.089 1094.64 448.089 1093.5V1088.41H449.952V1087.27ZM454.538 1096.2C456.06 1096.2 456.856 1095.39 457.129 1094.82H457.197V1096H458.538V1090.25C458.538 1087.48 456.424 1087.16 455.31 1087.16C453.992 1087.16 452.492 1087.61 451.81 1089.2L453.083 1089.66C453.379 1089.02 454.077 1088.34 455.356 1088.34C456.589 1088.34 457.197 1088.99 457.197 1090.11V1090.16C457.197 1090.81 456.538 1090.75 454.947 1090.95C453.327 1091.16 451.56 1091.52 451.56 1093.52C451.56 1095.23 452.879 1096.2 454.538 1096.2ZM454.742 1095C453.674 1095 452.901 1094.52 452.901 1093.59C452.901 1092.57 453.833 1092.25 454.879 1092.11C455.447 1092.05 456.969 1091.89 457.197 1091.61V1092.84C457.197 1093.93 456.333 1095 454.742 1095ZM460.985 1096H462.326V1090.48C462.326 1089.3 463.258 1088.43 464.531 1088.43C464.888 1088.43 465.258 1088.5 465.349 1088.52V1087.16C465.195 1087.15 464.843 1087.14 464.644 1087.14C463.599 1087.14 462.69 1087.73 462.371 1088.59H462.281V1087.27H460.985V1096ZM474.984 1096.18C477.347 1096.18 478.938 1094.39 478.938 1091.68C478.938 1088.95 477.347 1087.16 474.984 1087.16C472.62 1087.16 471.029 1088.95 471.029 1091.68C471.029 1094.39 472.62 1096.18 474.984 1096.18ZM474.984 1094.98C473.188 1094.98 472.37 1093.43 472.37 1091.68C472.37 1089.93 473.188 1088.36 474.984 1088.36C476.779 1088.36 477.597 1089.93 477.597 1091.68C477.597 1093.43 476.779 1094.98 474.984 1094.98ZM488.781 1096.18C490.462 1096.18 491.031 1095.14 491.326 1094.66H491.485V1096H492.781V1084.36H491.44V1088.66H491.326C491.031 1088.2 490.508 1087.16 488.803 1087.16C486.599 1087.16 485.076 1088.91 485.076 1091.66C485.076 1094.43 486.599 1096.18 488.781 1096.18ZM488.962 1094.98C487.281 1094.98 486.417 1093.5 486.417 1091.64C486.417 1089.8 487.258 1088.36 488.962 1088.36C490.599 1088.36 491.462 1089.68 491.462 1091.64C491.462 1093.61 490.576 1094.98 488.962 1094.98ZM499.082 1096.18C500.854 1096.18 502.15 1095.3 502.559 1093.98L501.263 1093.61C500.923 1094.52 500.133 1094.98 499.082 1094.98C497.508 1094.98 496.423 1093.96 496.36 1092.09H502.695V1091.52C502.695 1088.27 500.763 1087.16 498.945 1087.16C496.582 1087.16 495.013 1089.02 495.013 1091.7C495.013 1094.39 496.559 1096.18 499.082 1096.18ZM496.36 1090.93C496.451 1089.57 497.411 1088.36 498.945 1088.36C500.4 1088.36 501.332 1089.45 501.332 1090.93H496.36ZM510.917 1089.23C510.496 1087.99 509.553 1087.16 507.826 1087.16C505.985 1087.16 504.621 1088.2 504.621 1089.68C504.621 1090.89 505.337 1091.69 506.94 1092.07L508.394 1092.41C509.275 1092.61 509.69 1093.03 509.69 1093.64C509.69 1094.39 508.894 1095 507.644 1095C506.548 1095 505.86 1094.53 505.621 1093.59L504.349 1093.91C504.661 1095.39 505.883 1096.18 507.667 1096.18C509.695 1096.18 511.076 1095.07 511.076 1093.57C511.076 1092.35 510.315 1091.59 508.758 1091.2L507.462 1090.89C506.428 1090.63 505.962 1090.28 505.962 1089.61C505.962 1088.86 506.758 1088.32 507.826 1088.32C508.996 1088.32 509.479 1088.97 509.712 1089.57L510.917 1089.23ZM516.754 1096.18C518.526 1096.18 519.822 1095.3 520.231 1093.98L518.935 1093.61C518.594 1094.52 517.805 1094.98 516.754 1094.98C515.18 1094.98 514.094 1093.96 514.032 1092.09H520.367V1091.52C520.367 1088.27 518.435 1087.16 516.617 1087.16C514.254 1087.16 512.685 1089.02 512.685 1091.7C512.685 1094.39 514.231 1096.18 516.754 1096.18ZM514.032 1090.93C514.123 1089.57 515.083 1088.36 516.617 1088.36C518.072 1088.36 519.004 1089.45 519.004 1090.93H514.032ZM523.748 1090.75C523.748 1089.23 524.691 1088.36 525.975 1088.36C527.219 1088.36 527.975 1089.18 527.975 1090.55V1096H529.316V1090.45C529.316 1088.23 528.129 1087.16 526.362 1087.16C525.043 1087.16 524.225 1087.75 523.816 1088.64H523.702V1087.27H522.407V1096H523.748V1090.75ZM535.312 1096.18C537.244 1096.18 538.516 1095 538.744 1093.45H537.403C537.153 1094.41 536.357 1094.98 535.312 1094.98C533.721 1094.98 532.698 1093.66 532.698 1091.64C532.698 1089.66 533.744 1088.36 535.312 1088.36C536.494 1088.36 537.198 1089.09 537.403 1089.89H538.744C538.516 1088.25 537.13 1087.16 535.289 1087.16C532.925 1087.16 531.357 1089.02 531.357 1091.68C531.357 1094.3 532.857 1096.18 535.312 1096.18ZM540.704 1096H542.045V1090.48C542.045 1089.3 542.977 1088.43 544.249 1088.43C544.607 1088.43 544.977 1088.5 545.067 1088.52V1087.16C544.914 1087.15 544.562 1087.14 544.363 1087.14C543.317 1087.14 542.408 1087.73 542.09 1088.59H541.999V1087.27H540.704V1096ZM546.657 1096H547.998V1087.27H546.657V1096ZM547.339 1085.82C547.862 1085.82 548.293 1085.41 548.293 1084.91C548.293 1084.41 547.862 1084 547.339 1084C546.816 1084 546.384 1084.41 546.384 1084.91C546.384 1085.41 546.816 1085.82 547.339 1085.82ZM550.454 1099.27H551.795V1094.66H551.908C552.204 1095.14 552.772 1096.18 554.454 1096.18C556.636 1096.18 558.158 1094.43 558.158 1091.66C558.158 1088.91 556.636 1087.16 554.431 1087.16C552.727 1087.16 552.204 1088.2 551.908 1088.66H551.749V1087.27H550.454V1099.27ZM551.772 1091.64C551.772 1089.68 552.636 1088.36 554.272 1088.36C555.977 1088.36 556.817 1089.8 556.817 1091.64C556.817 1093.5 555.954 1094.98 554.272 1094.98C552.658 1094.98 551.772 1093.61 551.772 1091.64ZM563.999 1087.27H562.136V1085.18H560.795V1087.27H559.477V1088.41H560.795V1093.86C560.795 1095.39 562.022 1096.11 563.158 1096.11C563.658 1096.11 563.977 1096.02 564.158 1095.95L563.886 1094.75C563.772 1094.77 563.59 1094.82 563.295 1094.82C562.704 1094.82 562.136 1094.64 562.136 1093.5V1088.41H563.999V1087.27ZM568.585 1096.2C570.107 1096.2 570.903 1095.39 571.175 1094.82H571.244V1096H572.585V1090.25C572.585 1087.48 570.471 1087.16 569.357 1087.16C568.039 1087.16 566.539 1087.61 565.857 1089.2L567.13 1089.66C567.425 1089.02 568.124 1088.34 569.403 1088.34C570.636 1088.34 571.244 1088.99 571.244 1090.11V1090.16C571.244 1090.81 570.585 1090.75 568.994 1090.95C567.374 1091.16 565.607 1091.52 565.607 1093.52C565.607 1095.23 566.925 1096.2 568.585 1096.2ZM568.789 1095C567.721 1095 566.948 1094.52 566.948 1093.59C566.948 1092.57 567.88 1092.25 568.925 1092.11C569.494 1092.05 571.016 1091.89 571.244 1091.61V1092.84C571.244 1093.93 570.38 1095 568.789 1095ZM575.032 1096H576.373V1090.48C576.373 1089.3 577.305 1088.43 578.577 1088.43C578.935 1088.43 579.305 1088.5 579.396 1088.52V1087.16C579.242 1087.15 578.89 1087.14 578.691 1087.14C577.646 1087.14 576.737 1087.73 576.418 1088.59H576.327V1087.27H575.032V1096ZM580.962 1096.09C581.525 1096.09 581.985 1095.63 581.985 1095.07C581.985 1094.51 581.525 1094.05 580.962 1094.05C580.4 1094.05 579.94 1094.51 579.94 1095.07C579.94 1095.63 580.4 1096.09 580.962 1096.09Z" fill="#495057"/>
</g>
</g>
<defs>
<filter id="filter0_d_10_165" x="16" y="1001" width="736" height="181" filterUnits="userSpaceOnUse" color-interpolation-filters="sRGB">
<feFlood flood-opacity="0" result="BackgroundImageFix"/>
<feColorMatrix in="SourceAlpha" type="matrix" values="0 0 0 0 0 0 0 0 0 0 0 0 0 0 0 0 0 0 127 0" result="hardAlpha"/>
<feMorphology radius="8" operator="erode" in="SourceAlpha" result="effect1_dropShadow_10_165"/>
<feOffset dy="24"/>
<feGaussianBlur stdDeviation="16"/>
<feComposite in2="hardAlpha" operator="out"/>
<feColorMatrix type="matrix" values="0 0 0 0 0 0 0 0 0 0 0 0 0 0 0 0 0 0 0.08 0"/>
<feBlend mode="normal" in2="BackgroundImageFix" result="effect1_dropShadow_10_165"/>
<feBlend mode="normal" in="SourceGraphic" in2="effect1_dropShadow_10_165" result="shape"/>
</filter>
<clipPath id="clip0_10_165">
<rect width="768" height="1174" fill="white"/>
</clipPath>
</defs>
</svg>
